<?xml version="1.0" encoding="UTF-8" standalone="no"?>
<svg
   xmlns:dc="http://purl.org/dc/elements/1.1/"
   xmlns:cc="http://creativecommons.org/ns#"
   xmlns:rdf="http://www.w3.org/1999/02/22-rdf-syntax-ns#"
   xmlns:svg="http://www.w3.org/2000/svg"
   xmlns="http://www.w3.org/2000/svg"
   xmlns:sodipodi="http://sodipodi.sourceforge.net/DTD/sodipodi-0.dtd"
   xmlns:inkscape="http://www.inkscape.org/namespaces/inkscape"
   version="1.1"
   viewBox="0 0 512 512"
   width="512.0pt"
   height="512.0pt"
   id="svg2016"
   sodipodi:docname="cendyne-smol-dash.svg"
   inkscape:version="1.0.2 (e86c8708, 2021-01-15)">
  <metadata
     id="metadata2022">
    <rdf:RDF>
      <cc:Work
         rdf:about="">
        <dc:format>image/svg+xml</dc:format>
        <dc:type
           rdf:resource="http://purl.org/dc/dcmitype/StillImage" />
        <dc:title></dc:title>
      </cc:Work>
    </rdf:RDF>
  </metadata>
  <defs
     id="defs2020" />
  <sodipodi:namedview
     pagecolor="#ffffff"
     bordercolor="#666666"
     borderopacity="1"
     objecttolerance="10"
     gridtolerance="10"
     guidetolerance="10"
     inkscape:pageopacity="0"
     inkscape:pageshadow="2"
     inkscape:window-width="1418"
     inkscape:window-height="980"
     id="namedview2018"
     showgrid="false"
     inkscape:zoom="0.70910507"
     inkscape:cx="296.91185"
     inkscape:cy="491.06627"
     inkscape:window-x="742"
     inkscape:window-y="228"
     inkscape:window-maximized="0"
     inkscape:current-layer="svg2016"
     inkscape:document-rotation="0" />
  <path
     d="m 425.06421,118.25479 c 0.57246,4.70023 -0.15065,9.79214 -1.14493,14.40197 -3.05816,7.9241 -8.67734,13.07627 -13.66379,19.6144 -2.15427,2.83219 -4.79061,5.12204 -7.63787,7.23111 -5.63424,4.21815 -10.28927,8.76773 -16.70688,11.85602 -10.12356,4.95632 -19.73492,8.9485 -31.2595,6.47787 -2.31999,-1.70233 -4.30854,-3.88672 -6.37242,-5.87528 0.0151,-3.11842 0.0151,-6.22177 0,-9.34019 3.02803,-2.81712 5.33294,-5.98073 9.38538,-7.23111 15.62222,-4.80568 30.88288,-13.99522 41.02151,-26.99616 3.7662,-5.36308 6.97501,-10.57551 11.96146,-15.07989 4.88101,-4.11269 13.15159,-1.34077 14.41704,4.94126 z"
     fill="#ffffff"
     id="path1828"
     style="stroke-width:1.50648" />
  <path
     d="m 416.1157,115.07612 c 4.30854,7.41189 0.57247,13.63366 -3.10335,20.18686 -9.29499,15.03469 -24.34475,26.66473 -40.70514,33.08234 -5.90541,1.88311 -13.73912,4.80568 -19.53908,1.49142 0.82857,-2.39531 1.40103,-4.08257 3.8566,-5.1371 4.86593,-2.38025 10.25914,-3.51011 15.21547,-5.72464 14.19106,-6.35735 26.96602,-16.05909 35.82414,-28.92445 3.17868,-4.77555 5.37814,-10.12356 8.45136,-14.97443 z"
     fill="#000000"
     id="path1832"
     style="stroke-width:1.50648" />
</svg>
