<?xml version="1.0" encoding="UTF-8" standalone="no"?>
<svg
   xmlns:dc="http://purl.org/dc/elements/1.1/"
   xmlns:cc="http://creativecommons.org/ns#"
   xmlns:rdf="http://www.w3.org/1999/02/22-rdf-syntax-ns#"
   xmlns:svg="http://www.w3.org/2000/svg"
   xmlns="http://www.w3.org/2000/svg"
   xmlns:sodipodi="http://sodipodi.sourceforge.net/DTD/sodipodi-0.dtd"
   xmlns:inkscape="http://www.inkscape.org/namespaces/inkscape"
   version="1.1"
   viewBox="0 0 512 512"
   width="512.0pt"
   height="512.0pt"
   id="svg2016"
   sodipodi:docname="cendyne-smol.svg"
   inkscape:version="1.0.2 (e86c8708, 2021-01-15)">
  <metadata
     id="metadata2022">
    <rdf:RDF>
      <cc:Work
         rdf:about="">
        <dc:format>image/svg+xml</dc:format>
        <dc:type
           rdf:resource="http://purl.org/dc/dcmitype/StillImage" />
        <dc:title />
      </cc:Work>
    </rdf:RDF>
  </metadata>
  <defs
     id="defs2020" />
  <sodipodi:namedview
     pagecolor="#ffffff"
     bordercolor="#666666"
     borderopacity="1"
     objecttolerance="10"
     gridtolerance="10"
     guidetolerance="10"
     inkscape:pageopacity="0"
     inkscape:pageshadow="2"
     inkscape:window-width="1418"
     inkscape:window-height="980"
     id="namedview2018"
     showgrid="false"
     inkscape:zoom="0.70910507"
     inkscape:cx="296.91185"
     inkscape:cy="491.06627"
     inkscape:window-x="742"
     inkscape:window-y="228"
     inkscape:window-maximized="0"
     inkscape:current-layer="svg2016"
     inkscape:document-rotation="0" />
  <path
     d="m 268.84202,82.867531 c 1.85297,-0.768306 10.30434,-0.78337 12.11211,0.06026 6.34229,3.178678 11.79576,8.360976 17.71623,12.323024 3.44985,2.244658 6.34229,5.061775 9.08409,8.119935 5.31788,0.0753 10.77135,-0.2561 16.0591,0.37662 5.6945,0.36156 10.24408,5.90541 13.67886,9.97291 5.01658,10.50018 5.42333,22.19048 2.83218,33.39871 1.70233,9.08409 2.81712,18.51466 -1.26544,27.192 -2.7418,5.16723 -9.00877,9.94278 -10.69603,16.34533 -0.82856,3.20881 -1.85297,6.11632 -3.64568,8.93344 0.42181,2.92258 0.97921,4.65503 2.84725,6.94488 0.0151,4.32361 0.7683,8.16514 -1.40103,12.08199 -4.53451,9.67161 -14.44716,14.85391 -24.97747,14.05548 -7.27631,0.73817 -11.85602,-5.57399 -18.06272,-6.46281 -6.79424,1.98855 -13.1064,6.22177 -18.51467,10.72615 -5.93554,5.83009 -10.07836,14.04041 -13.42275,21.58789 2.4405,13.0612 2.27479,27.40291 0.43688,40.58462 -0.61766,4.9262 -0.45195,9.89759 -1.12986,14.77859 -3.40465,16.52611 -5.39321,33.35352 -7.99942,50.01521 -0.64779,3.54023 -0.51221,7.0654 -0.21091,10.65082 3.08829,0.31637 6.46281,0.28624 9.41551,1.28051 16.60144,6.68879 30.59665,18.09285 41.97059,31.77171 2.10908,4.33867 3.69088,9.17448 5.12204,13.78431 1.38597,10.04824 1.02441,20.48816 -0.21091,30.53639 1.29558,0 2.59115,0 3.87166,0 5.1823,4.85088 10.00304,9.86746 10.60564,17.35468 -0.0452,4.79061 1.00934,10.15369 -2.33505,14.07054 -2.72673,3.63062 -6.44774,8.72253 -11.26849,9.29499 -7.90903,1.34077 -14.07054,5.40827 -22.35619,5.2275 -5.78489,0.37662 -10.90693,-1.82285 -16.5713,-2.1844 -5.75476,-0.36156 -10.75628,2.35011 -16.5713,2.19946 -5.42334,0.15065 -10.53031,-1.20519 -15.81807,-2.47063 -3.94698,-0.82857 -6.01086,-3.8114 -8.82798,-6.41761 -3.38959,-0.63273 -6.74904,-1.34077 -10.1085,-2.09401 -0.13558,1.46128 -0.27116,2.90751 -0.40675,4.36879 -2.53089,2.28986 -5.10697,5.79996 -8.49655,6.65865 -4.86594,1.73246 -9.82227,1.38597 -14.92924,1.44623 -2.31998,2.19946 -4.47425,5.30281 -7.668,6.08618 -9.53603,3.07323 -17.91207,0.76831 -27.29745,-0.467 -10.03317,2.56101 -21.18114,2.07894 -31.50054,1.59687 -3.75114,0 -6.89969,-1.40103 -10.37966,-2.54596 -4.80568,-0.5122 -9.656551,-0.10545 -14.492358,-0.5574 -2.018686,-2.07894 -4.21815,-4.05243 -6.056058,-6.31216 -1.099732,-4.6249 -0.271167,-10.0181 -0.06026,-14.76352 -7.803577,-0.45195 -15.697543,-1.61194 -22.943722,-4.6249 -7.140725,-3.254 -12.413412,-8.02955 -18.499599,-12.79003 -8.993698,-7.47215 -17.128701,-18.06272 -19.855434,-29.58731 -1.627,-11.58485 -1.129861,-23.6819 -0.316361,-35.327 -4.338668,-4.21815 -6.040993,-9.52097 -8.481494,-14.86898 -2.696603,-6.07112 -3.043094,-13.21185 -4.579705,-19.82531 -1.28051,-5.19736 -1.581806,-10.5755 -0.451945,-15.83312 2.350112,-10.69602 2.259723,-21.22633 6.025928,-31.63613 5.137104,-16.10429 15.170275,-27.71926 25.926556,-40.26826 7.924096,-7.09553 16.044034,-13.51314 26.122399,-17.24922 3.555298,-0.37662 7.652929,-0.66285 11.117838,0.24104 2.09401,1.67219 3.946983,3.70594 5.87528,5.57398 -0.07533,3.11842 0.677916,7.00514 -0.376621,9.92772 -8.888244,11.17809 -17.143766,23.44086 -22.642425,36.65271 7.577605,-9.56617 15.06482,-18.87622 24.977472,-26.19773 7.366697,-6.82436 15.592089,-12.4586 23.124499,-19.05699 3.69088,-3.10336 7.89397,-5.25763 12.20251,-7.35164 5.63424,-2.74179 10.33446,-6.92981 16.04403,-9.56616 7.89397,-4.09763 17.46013,-7.74332 23.66683,-14.16093 1.35584,-0.0151 2.69661,-0.0452 4.03737,-0.0603 4.50439,-3.70594 9.02383,-7.35163 13.88977,-10.5755 5.33295,-3.22387 8.75266,-9.8072 12.36822,-14.80872 10.60563,-17.89701 19.96088,-35.43246 32.57014,-51.64221 -5.9958,-4.48931 -13.45289,-8.45136 -17.59571,-14.62794 -3.72101,-5.28775 -7.99942,-10.10849 -11.9464,-15.21547 -3.17868,-3.40464 -1.76259,-9.24979 -2.04882,-13.63366 2.60621,-2.30492 5.07684,-5.90541 8.6924,-6.32722 11.14797,-2.60622 23.32034,-2.09401 34.57376,-0.22597 7.54748,0.70804 14.71833,2.01868 22.03984,3.94698 -3.52517,-10.68096 -2.53089,-23.546315 7.41189,-30.430938 z"
     fill="#ffffff"
     id="path1822"
     style="stroke-width:1.50648" />
  <path
     d="m 278.39311,91.409284 c 9.49084,5.619178 17.44507,12.639386 25.47462,20.096466 6.70384,-2.03375 15.41131,-2.87738 21.84399,0.39169 5.51372,2.93764 7.14072,8.9937 8.67733,14.58275 1.43116,6.85449 1.49142,14.71833 -2.81712,20.62374 -4.09763,5.89034 -6.35735,12.51886 -9.65655,18.81596 -1.80778,3.34439 -3.29919,6.82436 -4.63996,10.37966 -1.43116,3.58542 -1.89817,7.33657 -2.38025,11.14796 0.88883,1.05454 1.79272,2.12414 2.68154,3.19375 0.27117,-6.97502 4.44412,-11.13291 8.31578,-16.3604 1.58181,-2.01868 3.05816,-4.12776 4.30854,-6.37242 2.63635,-6.19164 1.22025,-13.16665 1.56674,-20.05127 2.27479,4.79061 3.72101,10.51524 2.93764,15.80299 -1.53661,6.74904 -6.94488,12.57913 -11.35887,17.65597 -3.16361,3.46491 -3.91685,7.09553 -4.47425,13.29471 -0.5574,6.19917 1.97349,12.21003 1.627,18.82349 -2.79216,-0.0105 -1.71739,-3.17868 -2.60622,-4.77555 -0.57246,4.14283 -3.38958,6.59839 -6.23683,9.34019 -8.07475,2.57609 -16.04404,0.24104 -22.73282,-4.65503 -4.65503,-4.74542 -8.81292,-9.65655 -10.86173,-16.10429 2.28985,0.90389 4.30854,1.97349 6.86956,1.61193 2.93764,-0.12051 3.22387,-0.48207 5.12204,2.00363 -0.93402,2.50076 -1.56675,5.03165 -1.89817,7.60773 2.77193,-1.55168 5.24256,-6.86956 8.81292,-4.68516 1.34077,3.75114 1.77765,7.5776 1.86804,11.52459 1.74752,0.30129 3.47997,0.61766 5.22749,0.93402 l -0.45195,-2.60622 -3.78127,0.54234 c 0.58753,-1.50649 1.16,-3.01297 1.74752,-4.51945 l 3.91686,1.64207 c -1.83791,-8.46643 -0.5574,-17.06845 -7.77345,-23.19983 -3.58543,-2.68154 -6.47787,-1.12986 -9.86746,0.75324 -1.56674,-2.31998 -3.13348,-4.63996 -4.70022,-6.94488 -1.34077,-0.33143 -2.6966,-0.64779 -4.03737,-0.96415 l 4.17295,-1.52154 c 2.27479,1.73245 3.93192,3.84152 5.78489,5.99579 2.19947,-0.61765 4.38387,-1.23531 6.58333,-1.85297 0.22597,-3.60049 0.84363,-7.53241 0.18078,-11.08771 -1.09974,-4.26334 -3.82647,-7.17085 -6.89969,-10.12356 -1.98856,2.24466 -3.02803,4.89607 -4.15789,7.6228 -1.74752,0.12052 -3.5101,0.22598 -5.25762,0.33143 -0.3013,1.56674 -0.6026,3.13348 -0.88883,4.71529 -4.08256,-5.46853 0.99428,-11.88615 3.8566,-16.64663 2.03375,-2.1844 3.87165,-7.03527 7.39682,-4.47425 -0.61765,0.94908 -1.25038,1.91323 -1.85297,2.87738 1.40103,0.94908 2.81712,1.89817 4.23321,2.84725 1.6722,-2.50076 1.77765,-5.01658 1.91324,-7.92409 l -1.79272,-0.10546 -2.42543,-1.64206 c 6.99007,-6.76411 17.58064,-14.88405 27.82472,-14.04042 5.46853,0.0753 8.61708,3.66076 12.89549,6.49294 1.05453,-8.1802 0.96415,-15.99884 -3.10336,-23.3806 -1.76258,-3.08829 -4.80567,-4.73035 -8.25552,-5.21243 -10.51524,-1.73245 -21.96451,2.57609 -30.1899,9.03889 -3.58543,2.72674 -6.04099,7.09554 -10.45498,7.98436 1.59687,-3.26907 3.32932,-6.47787 4.92619,-9.74694 -4.74542,-0.24104 -8.37604,1.94336 -12.47367,3.88672 2.01869,3.73608 5.03165,6.94489 6.68878,10.83161 4.53451,10.43992 -2.42543,24.55566 -13.6186,26.99616 -8.19526,1.50648 -15.42637,-0.75324 -23.13956,-3.17868 -2.83219,7.99942 -0.42182,14.82378 2.53089,22.26581 0.54233,1.40102 1.0696,2.81712 1.58181,4.23321 l -2.50076,1.14493 c -3.5553,-6.59839 -5.24256,-13.63367 -6.77917,-20.89491 -13.6186,16.8726 -23.51619,38.74672 -35.4174,56.0562 -3.70594,5.60411 -8.60201,9.89758 -13.52821,14.37184 9.295,4.5797 12.69965,13.73911 13.34744,23.54631 -5.00152,-5.22749 -5.49866,-13.8295 -11.14797,-17.92714 -4.05244,-2.83218 -8.91838,-1.41609 -12.549,1.3709 -4.74542,3.78127 -7.05033,10.27421 -10.98225,15.07989 -0.10545,-2.84725 -0.18078,-5.6945 -0.24104,-8.54175 -6.89969,2.96777 -13.12146,7.18591 -19.85543,10.54537 -2.2296,1.15999 -4.44412,2.30492 -6.65865,3.47997 -5.36308,2.84725 -10.50018,6.13139 -15.53183,9.52097 -1.86804,1.35583 -3.63062,2.81712 -5.36308,4.3236 -14.3869,10.80148 -31.003399,22.67256 -41.157088,37.70725 -3.269066,2.86231 -6.297095,5.90541 -8.737596,9.52097 -3.31426,5.76982 -6.161511,11.82588 -9.114216,17.79155 -1.340769,2.57608 -2.832186,5.06178 -4.172955,7.65293 -1.807779,4.3236 -3.660752,8.52669 -6.116317,12.54899 -0.90389,2.30492 -1.611936,4.70023 -2.410372,7.03527 -5.061779,11.23836 -9.279929,23.21489 -10.168754,35.59817 -0.391685,5.98074 -1.129861,12.26277 -0.617657,18.22844 0.301296,3.84153 1.235315,7.56254 2.651408,11.14796 3.736076,9.62642 8.014485,15.8482 16.270006,22.13023 4.398928,3.82646 9.415513,6.71891 14.643006,9.2498 7.53241,3.49503 16.074163,5.19736 24.254361,6.31216 3.043093,0.18077 7.366694,0.90388 9.279934,-2.07895 3.64568,-4.63996 6.71891,-9.65655 9.27992,-14.95937 2.69661,-4.89606 5.63425,-9.58122 7.74332,-14.77859 0.82857,-1.8379 1.627,-3.67581 2.35011,-5.55891 2.19947,-5.81502 4.38387,-11.63005 6.38749,-17.50533 -5.83009,-4.5797 -7.50228,-9.85239 -8.84305,-16.90272 0.5122,-5.1823 1.20518,-10.33447 2.25972,-15.44145 5.84515,-12.57912 16.25494,-20.66893 27.99044,-27.41797 1.74752,-8.9485 1.65713,-17.97233 2.80205,-26.96603 0.84363,-7.41189 0.48208,-14.85391 1.14493,-22.25074 0.22597,-2.00362 0.5122,-4.00724 0.75324,-6.01086 0.76831,-7.68306 1.52155,-16.13442 6.13138,-22.6123 -0.96414,8.2254 -3.2088,16.13443 -3.61555,24.46527 -0.39169,8.54176 -0.82857,17.06844 -1.29558,25.6102 -0.33142,11.6903 -0.90389,23.65177 -4.95632,34.75454 -4.15789,11.10277 -7.35164,22.5219 -11.67524,33.56442 -1.627,4.00724 -2.87738,8.10487 -4.1127,12.2477 l -3.47997,0.94908 1.0696,-3.52517 c 0.51221,-1.83791 0.99428,-3.69088 1.52155,-5.52879 1.58181,-6.73397 5.9958,-13.22691 5.00152,-19.96088 1.09973,-0.13559 1.95843,-0.49714 2.59115,-1.08467 2.51582,-6.19164 5.19736,-12.53393 6.37242,-19.14739 -9.40045,4.65503 -17.61078,12.23264 -22.59723,21.51257 2.98283,-0.13559 5.96567,-0.3013 8.93344,-0.63273 -3.51011,0.94909 -8.52669,1.03948 -9.98798,4.98646 -1.74752,4.63996 -0.97921,10.45499 -0.79843,15.30586 0.18077,2.07894 0.5122,4.14282 0.88882,6.19164 1.9283,2.04881 3.52517,3.02803 6.28203,3.60049 1.38596,0.27117 2.75686,0.54233 4.12776,0.79844 -1.91323,3.01296 -3.61556,6.14644 -5.07684,9.40044 -2.21453,5.81502 -4.95633,11.01239 -5.76983,17.27935 -3.79633,5.30282 -6.08619,10.28928 -7.75838,16.58637 3.26906,2.39531 6.44774,4.9262 9.58122,7.50228 3.254,-2.59115 6.97501,-6.2519 11.14797,-7.08046 3.78127,-0.84363 7.09553,0.27116 10.66589,1.38596 l 1.76259,2.12414 -1.73246,0.93402 c -5.46853,-1.08467 -9.68668,-2.93764 -14.643,0.94908 -8.87318,7.0654 -17.47519,19.93076 -20.1266,30.97327 6.41761,2.66648 12.7599,2.38024 19.58426,2.47063 4.50439,-0.12052 10.45499,-0.15065 14.04042,-3.29919 2.54595,-4.89607 1.94336,-11.6903 2.35011,-17.08351 l 3.84153,2.4405 c 3.16361,-6.58333 6.7641,-12.33809 13.70898,-15.42637 3.51011,-0.99428 6.53814,0.79843 8.78279,3.40464 4.30854,5.25763 6.83943,12.30796 8.27059,18.90635 -3.58543,-0.78337 -3.85659,-3.99217 -5.40827,-6.79423 -2.07894,-4.39893 -4.63996,-10.96719 -9.79213,-12.42848 -5.7397,1.58181 -9.5059,8.85812 -12.2929,13.6638 -1.94336,3.79633 -3.88672,8.05967 -3.55529,12.42847 2.57608,3.17868 7.96929,3.17868 11.6903,3.40465 3.55529,-0.0603 8.6924,0.51221 11.56978,-1.97349 1.15999,-4.14283 -0.52727,-9.11422 -0.79844,-13.39263 4.02231,2.33505 4.23322,5.89035 5.04672,10.07837 -0.52727,1.8831 -1.12986,3.75114 -1.70233,5.61918 -3.5101,1.77765 -7.03527,3.16361 -11.04251,2.96777 -6.41761,-0.45195 -12.42848,-0.48208 -17.85181,-4.42906 -3.26907,2.75686 -6.46281,4.24828 -10.77135,4.56464 -7.92409,0.45195 -16.19468,0.52727 -23.95306,-1.29557 -2.19947,-0.31636 -3.19375,-1.79272 -4.47425,-3.43478 0.60259,-10.37966 8.04461,-19.08713 13.54327,-27.44811 -2.30492,-2.10907 -4.54958,-4.79061 -7.74332,-5.4384 -4.89607,1.91324 -8.30072,8.31579 -11.1329,12.50381 -2.80206,4.881 -7.411893,11.22329 -6.929819,17.03831 1.099732,5.00152 8.602009,-0.21091 9.807199,4.76048 -5.21243,1.25038 -11.389005,1.9283 -13.347432,-4.39893 -0.241037,-5.48359 3.34439,-11.31368 6.040992,-15.93858 -14.251319,-0.28623 -29.406528,-3.7662 -41.398125,-11.75056 -8.014485,-5.36307 -15.501701,-10.51524 -19.840369,-19.43362 -8.466429,-14.85391 -7.351632,-31.80183 -5.197363,-48.1321 -5.815021,-5.1823 -8.81292,-13.75418 -11.31368,-20.97023 -3.058159,-15.77286 -2.289853,-32.73585 1.596871,-48.31288 4.534511,-16.27 14.010283,-31.28963 25.444482,-43.58252 8.948503,-9.11422 20.985295,-18.01753 34.332726,-17.83675 -0.376621,4.15789 -3.871659,6.32723 -6.251901,9.67162 -7.728253,10.12355 -14.808718,21.13594 -19.508942,33.00702 -3.992178,9.86745 -6.071123,22.59723 -1.807779,32.66053 4.112696,-9.73188 9.385383,-18.87622 16.34533,-26.87564 22.386323,-27.37278 53.85673,-47.89107 85.1313,-63.76939 6.10125,-3.43478 12.88042,-6.32722 17.73129,-11.20822 4.53452,-3.57037 9.97292,-5.7397 14.26639,-9.73188 10.04823,-8.73759 13.63366,-19.50894 20.97023,-30.15977 8.25552,-14.73339 17.27935,-28.80393 28.23147,-41.68436 -7.8337,-4.67009 -14.74846,-10.39472 -20.90997,-17.09857 -4.70022,-5.12204 -10.30433,-10.40979 -13.73911,-16.48091 -1.20519,-2.15427 -0.63273,-4.35373 -0.54234,-6.71891 2.75686,-0.94908 5.45347,-1.82284 8.39111,-1.94336 9.05395,-0.5574 18.21337,-0.46701 27.22213,0.70804 9.62642,1.50649 18.62012,2.33505 27.26732,7.24618 1.65713,-1.29557 3.31426,-2.59115 4.98646,-3.85659 -3.8566,-8.24046 -5.52879,-18.8009 -2.33505,-27.493299 1.53661,-4.097631 6.01086,-2.696603 8.9485,-1.114797 z"
     fill="#1a1613"
     id="path1824"
     sodipodi:nodetypes="cccccccccccccccccccccccccccccccccccccccccccccccccccccccccccccccccccccccccccccccccccccccccccccccccccccccccccccccccccccccccccccccccccccccccccccccccccccccccccccccccccccccccccccccccccc"
     style="stroke-width:1.50648" />
  <path
     d="m 273.61757,91.891359 c 9.97291,5.137103 18.80089,12.609251 27.23719,19.930761 -0.24104,0.54233 -0.70804,0.93401 -1.38596,1.15999 -4.20309,1.74752 -7.96929,4.29347 -12.09705,6.16151 -4.35374,0.31636 -8.7376,0.0904 -13.1064,0.28623 -2.62127,-6.11632 -4.20308,-12.48874 -3.73607,-19.19258 0.33142,-3.193743 0.31636,-6.236837 3.08829,-8.345911 z"
     fill="#e1bd40"
     id="path1826"
     style="stroke-width:1.50648" />
  <path
     d="m 319.32423,113.81067 c 3.44985,0.48208 6.49294,2.12414 8.25552,5.21243 4.06751,7.38176 4.15789,15.2004 3.10336,23.3806 -4.27841,-2.83218 -7.42696,-6.41761 -12.89549,-6.49294 -10.24408,-0.84363 -20.83465,7.27631 -27.82472,14.04042 l 2.42543,1.64206 c -0.85869,0.73818 -1.68726,1.50648 -2.50076,2.30492 -3.52517,-2.56102 -5.36307,2.28985 -7.39682,4.47425 -2.86232,4.76048 -7.93916,11.1781 -3.8566,16.64663 -0.31636,1.97349 -0.63272,3.96205 -0.94908,5.93554 l 1.43116,-0.0151 c 1.34077,0.31636 2.6966,0.63272 4.03737,0.96415 -1.82285,0.82857 -3.63062,1.64207 -5.4384,2.47063 0.57246,2.4857 1.12986,4.95633 1.70232,7.44202 1.43116,-0.0452 2.86232,-0.10545 4.27841,-0.16571 0.42182,2.39531 0.82857,4.79061 1.23532,7.20098 -2.56102,0.36156 -4.57971,-0.70804 -6.86956,-1.61193 -2.51583,-6.2519 -3.82647,-12.08199 -3.13348,-18.86116 0.37662,-2.6966 0.93401,-5.36307 1.46128,-8.02955 -7.36669,-1.09973 -14.43209,-0.10545 -21.7536,1.06961 -5.75476,1.15999 -8.99369,5.24255 -11.04251,10.47005 -2.95271,-7.44203 -5.36308,-14.26639 -2.53089,-22.26581 7.71319,2.42544 14.9443,4.68516 23.13956,3.17868 11.19317,-2.4405 18.15311,-16.55624 13.6186,-26.99616 -1.65713,-3.88672 -4.67009,-7.09553 -6.68878,-10.83161 4.09763,-1.94336 7.72825,-4.12776 12.47367,-3.88672 -1.59687,3.26907 -3.32932,6.47787 -4.92619,9.74694 4.41399,-0.88882 6.86955,-5.25762 10.45498,-7.98436 8.22539,-6.4628 19.67466,-10.77134 30.1899,-9.03889 z"
     fill="#3f2e26"
     id="path1830"
     style="stroke-width:1.50648" />
  <path
     d="m 255.31381,122.35243 c 6.28203,2.09401 13.51314,5.33294 17.58065,10.77134 4.12776,7.89397 3.75114,18.13805 -4.06751,23.63671 -5.49866,3.10335 -13.18171,2.84725 -19.10219,1.17505 -6.97501,-2.42543 -13.69392,-4.5797 -19.34323,-9.44564 -6.86956,-5.25762 -12.26276,-11.78069 -18.10791,-18.07779 -2.81712,-3.22387 -5.57399,-6.04099 -5.96567,-10.54537 15.98377,-2.81712 33.21793,-0.87376 49.00586,2.4857 z"
     fill="#e1bd40"
     id="path1834"
     style="stroke-width:1.50648" />
  <path
     d="m 256.44367,132.35547 c 3.10335,-1.44623 6.85449,-1.77765 10.21395,-1.28051 7.9241,2.80205 8.9485,15.41131 3.22387,20.69906 -5.31788,5.66437 -15.14014,6.23684 -20.35257,0.19584 -4.50438,-6.88462 0.0753,-16.25494 6.91475,-19.61439 z"
     fill="#1b1c11"
     id="path1836"
     style="stroke-width:1.50648" />
  <path
     d="m 264.92517,135.02194 c 6.13138,2.15427 6.38748,11.20823 1.64206,14.92924 -3.61556,3.14854 -7.95422,3.05816 -12.23263,1.44622 3.58542,-1.49142 6.95994,-2.93764 6.85449,-7.47215 -0.0753,-3.94698 -3.61556,-4.63997 -6.8093,-5.06178 2.72673,-2.63634 6.59839,-5.39321 10.54538,-3.84153 z"
     fill="#4cabc7"
     id="path1838"
     style="stroke-width:1.50648" />
  <path
     d="m 254.37979,138.86347 c 3.19374,0.42181 6.73398,1.1148 6.8093,5.06178 0.10545,4.53451 -3.26907,5.98073 -6.85449,7.47215 -3.99218,-3.2992 -2.92258,-8.9485 0.0452,-12.53393 z"
     fill="#ffffff"
     id="path1840"
     style="stroke-width:1.50648" />
  <path
     d="m 314.02142,140.91228 c -1.09974,2.01869 -2.36518,3.93192 -3.63063,5.87528 -1.97349,-1.89816 -3.41971,-2.75686 -3.61555,-5.67943 1.91323,-0.40675 6.35735,-3.19374 7.24618,-0.19585 z"
     fill="#c0c0c0"
     id="path1842"
     style="stroke-width:1.50648" />
  <path
     d="m 319.3393,139.67697 c 1.82284,-1.34077 5.22749,0.15065 3.91685,2.60621 -1.68726,1.88311 -5.39321,-0.28623 -3.91685,-2.60621 z"
     fill="#8d8a89"
     id="path1844"
     style="stroke-width:1.50648" />
  <path
     d="m 305.13317,142.6598 c 1.09973,3.38959 0.54233,4.48932 -1.20518,7.38177 -1.76259,-1.25038 -3.26907,-2.56102 -4.60984,-4.26335 1.80778,-1.34077 3.64569,-2.45556 5.81502,-3.11842 z"
     fill="#b5b4b4"
     id="path1846"
     style="stroke-width:1.50648" />
  <path
     d="m 320.69513,149.19794 c -7.14072,4.33866 -12.65445,11.63004 -16.0591,19.14738 -0.2561,3.97712 2.51583,7.90903 3.38959,11.84095 l -0.12052,0.84363 c -2.71167,3.11842 -4.77555,3.87166 -8.85812,4.50438 l -2.12414,-1.92829 c 0.54234,-4.59477 1.65713,-8.78279 0.3013,-13.3625 -1.15999,-2.9979 -3.67582,-5.66437 -5.67944,-8.16513 1.00935,-0.70805 2.01869,-1.43116 3.02803,-2.15427 0.8135,-4.51945 0.79844,-7.02021 4.98646,-9.62642 1.59687,0.60259 3.16361,1.22025 4.74542,1.85297 1.0244,-1.15999 2.03375,-2.30492 3.05815,-3.46491 1.32571,0.21091 2.66648,0.42182 3.99218,0.63272 1.03947,-1.5818 2.06388,-3.16361 3.13348,-4.71528 4.57971,-0.0904 5.00153,0.0753 6.20671,4.59477 z"
     fill="#e1bd40"
     id="path1848"
     style="stroke-width:1.50648" />
  <path
     d="m 325.60626,143.68421 c 2.28985,0.24104 2.12414,3.84153 0.0151,4.26335 -0.61766,-1.43116 -0.61766,-2.84726 -0.0151,-4.26335 z"
     fill="#888684"
     id="path1850"
     style="stroke-width:1.50648" />
  <path
     d="m 331.57193,147.10393 0.19584,0.75324 c -0.34649,6.88462 1.06961,13.85963 -1.56674,20.05127 -2.71167,-0.99428 -5.36307,-1.79271 -8.28565,-1.98855 3.2992,-6.2971 5.55892,-12.92562 9.65655,-18.81596 z"
     fill="#3f2e26"
     id="path1852"
     style="stroke-width:1.50648" />
  <path
     d="m 292.38833,151.59324 1.79272,0.10546 c -0.13559,2.90751 -0.24104,5.42333 -1.91324,7.92409 -1.41609,-0.94908 -2.83218,-1.89817 -4.23321,-2.84725 0.60259,-0.96415 1.23532,-1.9283 1.85297,-2.87738 0.8135,-0.79844 1.64207,-1.56674 2.50076,-2.30492 z"
     fill="#afadab"
     id="path1854"
     style="stroke-width:1.50648" />
  <path
     d="m 321.96058,152.06025 c 1.79271,2.89245 -0.42182,4.63997 -1.38597,7.3667 -3.254,-2.80206 -3.43478,-2.95271 -1.80778,-7.05034 1.06961,-0.13558 2.12414,-0.24103 3.19375,-0.31636 z"
     fill="#b4b2b0"
     id="path1856"
     style="stroke-width:1.50648" />
  <path
     d="m 318.43541,161.08408 c -0.0151,0.85869 -0.0452,1.70232 -0.0904,2.54595 -2.71167,0.57247 -3.34439,1.6722 -4.95633,3.72101 -1.20518,-3.02802 -2.54595,-5.3932 0.33143,-7.98435 2.15427,-2.22959 3.29919,0.12052 4.71529,1.71739 z"
     fill="#f0f0f0"
     id="path1858"
     style="stroke-width:1.50648" />
  <path
     d="m 283.65074,162.69601 c 2.9527,0.91896 0.43688,7.12566 -2.69661,5.2275 -0.79843,-1.61194 1.29558,-4.47425 2.69661,-5.2275 z"
     fill="#9f9d9c"
     id="path1860"
     style="stroke-width:1.50648" />
  <path
     d="m 288.93849,162.34952 c 3.07322,2.95271 5.79995,5.86022 6.89969,10.12356 0.66285,3.5553 0.0452,7.48722 -0.18078,11.08771 -2.19946,0.61766 -4.38386,1.23532 -6.58333,1.85297 -1.85297,-2.15427 -3.5101,-4.26334 -5.78489,-5.99579 l -4.17295,1.52154 -1.43116,0.0151 c 0.31636,-1.97349 0.63272,-3.96205 0.94908,-5.93554 0.28623,-1.58181 0.58753,-3.14855 0.88883,-4.71529 1.74752,-0.10545 3.5101,-0.21091 5.25762,-0.33143 1.12986,-2.72673 2.16933,-5.37814 4.15789,-7.6228 z"
     fill="#e1bd40"
     id="path1862"
     style="stroke-width:1.50648" />
  <path
     d="m 235.89526,166.37183 c 1.53661,7.26124 3.22387,14.29652 6.77917,20.89491 l 2.50076,-1.14493 0.42181,1.627 c -2.62128,4.68516 0.5122,9.73188 -3.10335,13.46795 -6.22177,7.51735 -13.28717,13.91989 -18.37908,22.35619 -10.30434,15.0347 -18.2435,31.50054 -22.95879,49.12638 -0.97921,4.98646 0.43688,10.22902 -0.13558,15.30586 -0.40675,1.71739 -0.90389,3.41972 -1.29558,5.13711 -0.61766,-0.91896 -1.23531,-1.85298 -1.83791,-2.787 -5.25762,18.62012 -11.50952,36.95401 -17.32454,55.40841 -2.6966,8.88825 -6.38748,17.67104 -8.135,26.78525 -0.51221,2.15427 0.34649,3.8566 0.88882,5.87528 1.12986,3.44985 0.70805,7.44203 0.79844,11.07265 0.12052,13.55834 0.16571,27.11667 0.5122,40.67501 0.42182,9.06902 0.64779,18.74064 3.41972,27.38785 0.73817,-1.1148 1.46128,-2.25973 2.15426,-3.40465 0.96415,4.70022 2.35012,9.27993 3.3444,13.96508 0.24103,1.3709 0.45194,2.7418 0.66285,4.1127 3.52517,1.25038 7.00514,1.14493 10.69602,0.91895 1.46129,4.02231 4.77555,9.68668 3.52517,13.98016 -5.03165,3.63062 -13.18172,-0.8587 -17.61078,4.12776 l -0.88882,-0.0603 c -0.8135,-4.18802 -1.02441,-7.74332 -5.04672,-10.07837 0.27117,4.27841 1.95843,9.2498 0.79844,13.39263 -2.87738,2.4857 -8.01449,1.91323 -11.56978,1.97349 -3.72101,-0.22597 -9.11422,-0.22597 -11.6903,-3.40465 -0.33143,-4.3688 1.61193,-8.63214 3.55529,-12.42847 2.787,-4.80568 6.5532,-12.08199 12.2929,-13.6638 5.15217,1.46129 7.71319,8.02955 9.79213,12.42848 1.55168,2.80206 1.82284,6.01086 5.40827,6.79423 -1.43116,-6.59839 -3.96205,-13.64872 -8.27059,-18.90635 -2.24465,-2.60621 -5.27268,-4.39892 -8.78279,-3.40464 -6.94488,3.08828 -10.54537,8.84304 -13.70898,15.42637 -1.28051,-0.8135 -2.56102,-1.627 -3.84153,-2.4405 -0.40675,5.39321 0.19584,12.18744 -2.35011,17.08351 -3.58543,3.14854 -9.53603,3.17867 -14.04042,3.29919 -6.82436,-0.0904 -13.16665,0.19585 -19.58426,-2.47063 2.65141,-11.04251 11.25342,-23.90787 20.1266,-30.97327 4.95632,-3.88672 9.17447,-2.03375 14.643,-0.94908 l 1.73246,-0.93402 0.42181,-0.5574 c 2.19947,2.01869 4.29348,4.14283 6.43268,6.22177 l 1.05454,0.0301 c 4.0675,-1.0696 6.11632,-7.03527 8.10487,-10.3194 -2.63634,-4.56464 -4.53451,-11.49446 -9.82226,-13.40769 -1.85297,2.62128 -3.67582,5.24256 -5.49866,7.86383 -3.64569,-3.32932 -7.0654,-7.20098 -9.53603,-11.50952 -0.79844,-2.57608 -0.18078,-5.67944 -0.18078,-8.37604 4.20308,-2.42543 8.46643,-4.54957 12.98587,-6.32722 1.65714,2.57608 3.23894,10.03317 7.38177,8.76772 3.26906,-3.04309 5.93554,-7.65293 7.59267,-11.78069 0.88882,-6.62852 -2.75687,-10.60563 -4.54958,-16.46585 -0.66285,-5.98073 -0.0753,-12.08198 -0.5122,-18.09285 -0.27117,-6.56826 -1.89817,-13.06119 -1.88311,-19.61439 -0.0301,-1.82284 1.19013,-3.60049 1.98856,-5.19736 9.02383,-15.44145 14.73339,-31.98262 23.1245,-47.65003 -0.91895,-3.40465 -5.00152,-6.41762 -7.12566,-9.27993 2.24466,-3.96205 7.03527,-8.45137 7.00514,-13.13652 -1.12986,-4.89607 -2.93764,-9.83733 -4.86594,-14.4773 -0.64778,-1.79271 -3.29919,-3.254 -4.82074,-1.627 -3.5553,3.49504 -6.34229,7.75839 -9.67161,11.49446 -1.20519,1.68726 -3.41972,3.60049 -2.56102,5.87528 1.38596,4.09763 4.77555,10.09343 7.5776,13.37756 4.20309,2.36518 8.31578,4.29347 11.76563,7.80358 -8.76773,15.26066 -14.71833,33.38364 -24.87202,47.63496 -3.8114,5.00152 -0.91896,13.19678 -3.78127,18.81596 -5.87528,11.44926 -12.71471,22.35619 -20.30738,32.73586 -1.3709,-0.25611 -2.7418,-0.52727 -4.12776,-0.79844 l 0.72311,-1.71739 3.47997,-0.94908 c 1.23532,-4.14283 2.4857,-8.24046 4.1127,-12.2477 4.3236,-11.04252 7.51735,-22.46165 11.67524,-33.56442 4.05243,-11.10277 4.6249,-23.06424 4.95632,-34.75454 0.46701,-8.54176 0.90389,-17.06844 1.29558,-25.6102 0.40675,-8.33084 2.65141,-16.23987 3.61555,-24.46527 -4.60983,6.47788 -5.36307,14.92924 -6.13138,22.6123 -10.59057,0.73818 -21.99464,2.51582 -31.5156,7.41189 -5.39321,2.56102 -8.78279,7.45709 -14.29652,9.86746 -11.117835,5.1371 -18.951541,13.91989 -25.655386,23.92293 -0.90389,1.91324 -2.410372,2.63635 -4.474252,2.1844 -8.34591,12.47367 -16.089228,25.88136 -20.985295,40.11762 -3.284131,11.90121 -6.508002,23.41073 -6.31216,35.8844 -0.78337,12.03679 0.346491,23.24502 3.193742,34.92026 -8.255521,-6.28203 -12.53393,-12.50381 -16.270006,-22.13023 2.214529,-5.27268 0.888825,-9.67161 -1.717389,-14.43209 l -0.934019,3.28413 c -0.512204,-5.96567 0.225972,-12.2477 0.617657,-18.22844 0.888825,-12.38328 5.106975,-24.35981 10.168754,-35.59817 5.03165,-0.8135 8.165133,-4.03737 11.735495,-7.33656 1.084667,-1.17506 2.847251,-2.56102 3.012964,-4.23322 0.557399,-5.1371 -0.8135,-10.71109 -2.048815,-15.66741 2.952705,-5.96567 5.799956,-12.02173 9.114216,-17.79155 l 2.696603,0.55739 c 3.78127,-1.82284 6.929818,-5.03165 10.454986,-7.33656 6.266965,-4.47426 12.684578,-6.41762 17.881941,-12.21757 8.059684,-8.90331 16.239874,-17.70117 24.389944,-26.51409 2.33505,0.28623 4.74542,0.64779 7.09553,0.6026 2.51583,-1.00935 4.3236,-3.93192 6.01086,-5.95061 3.35946,-4.74542 7.26125,-8.36097 8.91838,-13.69392 6.73397,-3.35946 12.95574,-7.5776 19.85543,-10.54537 0.0603,2.84725 0.13559,5.6945 0.24104,8.54175 3.93192,-4.80568 6.23683,-11.29862 10.98225,-15.07989 3.63062,-2.78699 8.49656,-4.20308 12.549,-1.3709 5.64931,4.09764 6.14645,12.69965 11.14797,17.92714 -0.64779,-9.8072 -4.05244,-18.96661 -13.34744,-23.54631 4.9262,-4.47426 9.82227,-8.76773 13.52821,-14.37184 11.90121,-17.30948 21.7988,-39.1836 35.4174,-56.0562 z"
     fill="#3f2e26"
     id="path1864"
     style="stroke-width:1.50648" />
  <path
     d="m 321.91538,165.91989 c 2.92258,0.19584 5.57398,0.99427 8.28565,1.98855 -1.25038,2.24466 -2.72673,4.35374 -4.30854,6.37242 l -2.15427,-2.59115 c -2.10907,1.61194 -4.24827,3.16361 -6.4628,4.60984 1.34077,-3.5553 2.83218,-7.03527 4.63996,-10.37966 z"
     fill="#e1bd40"
     id="path1866"
     style="stroke-width:1.50648" />
  <path
     d="m 310.0895,168.05909 c 2.24466,0.73818 4.45918,1.58181 6.67371,2.42544 -0.79843,2.36517 -1.55167,4.74542 -2.25972,7.14072 -1.40103,0.10546 -2.80206,0.19584 -4.20309,0.3013 0.31637,-2.06388 0.58753,-4.14283 0.82857,-6.20671 l -1.05454,-0.93402 -1.79271,-1.34077 z"
     fill="#ae9235"
     id="path1868"
     style="stroke-width:1.50648" />
  <path
     d="m 308.28172,169.44505 1.79271,1.34077 c -0.0603,1.71739 -0.5122,3.19375 -1.35583,4.414 -1.52155,-1.12987 -2.39531,-4.65503 -0.43688,-5.75477 z"
     fill="#dedbd2"
     id="path1870"
     style="fill:#ffffff;stroke-width:1.50648" />
  <path
     d="m 254.63589,171.41855 c 7.32151,-1.17506 14.38691,-2.16934 21.7536,-1.06961 -0.52727,2.66648 -1.08466,5.33295 -1.46128,8.02955 -6.49294,-0.64778 -16.52611,-2.54595 -22.08503,1.52155 -5.45347,5.9506 1.86804,17.02325 -3.35946,23.75722 -4.8358,6.58333 -11.14796,12.03679 -15.96871,18.68038 -12.23263,17.26428 -22.08502,36.09531 -26.40863,56.96009 -0.66285,3.37451 -3.90178,6.22177 -6.08618,8.70746 0.57246,-5.07684 -0.84363,-10.3194 0.13558,-15.30586 4.71529,-17.62584 12.65445,-34.09168 22.95879,-49.12638 5.09191,-8.4363 12.15731,-14.83884 18.37908,-22.35619 3.61555,-3.73607 0.48207,-8.78279 3.10335,-13.46795 l -0.42181,-1.627 c -0.51221,-1.41609 -1.03948,-2.83219 -1.58181,-4.23321 2.04882,-5.2275 5.28775,-9.31006 11.04251,-10.47005 z"
     fill="#e1bd40"
     id="path1872"
     style="stroke-width:1.50648" />
  <path
     d="m 323.73822,171.68971 2.15427,2.59115 c -3.87166,5.22749 -8.04461,9.38538 -8.31578,16.3604 -0.88882,-1.06961 -1.79271,-2.13921 -2.68154,-3.19375 0.48208,-3.81139 0.94909,-7.56254 2.38025,-11.14796 2.21453,-1.44623 4.35373,-2.9979 6.4628,-4.60984 z"
     fill="#ede9de"
     id="path1874"
     style="stroke-width:1.50648" />
  <path
     d="m 274.92821,178.37849 c -0.69299,6.77917 0.61765,12.60926 3.13348,18.86116 2.04881,6.44774 6.2067,11.35887 10.86173,16.10429 l -0.0151,2.38024 c -7.27631,-3.84153 -14.35677,-7.92409 -20.84971,-12.98587 -1.94336,-1.56674 -3.69088,-2.47063 -6.10125,-3.10336 0.97921,3.91686 4.53451,5.4384 7.53241,7.68306 5.51372,3.46491 10.86173,7.17086 16.42065,10.51525 -0.73818,-0.19584 -1.47635,-0.39169 -2.21453,-0.58753 -4.12776,-2.68154 -8.10487,-0.64779 -12.11211,1.05454 -16.58637,8.96357 -26.80032,24.88708 -32.52495,42.42253 -2.16934,10.65083 -3.43478,21.54269 -4.44412,32.3743 -2.24466,13.45289 -8.57189,26.45383 -16.48092,37.49634 -5.19736,7.20098 -12.47367,12.17237 -20.51828,15.72767 -4.6249,1.77765 -9.46071,2.75686 -13.99522,4.85087 4.881,-14.26638 8.55682,-28.95458 13.24198,-43.29629 1.73245,-4.80568 1.89816,-9.74694 2.86231,-14.73339 0.39169,-1.71739 0.88883,-3.41972 1.29558,-5.13711 2.1844,-2.48569 5.42333,-5.33295 6.08618,-8.70746 4.32361,-20.86478 14.176,-39.69581 26.40863,-56.96009 4.82075,-6.64359 11.13291,-12.09705 15.96871,-18.68038 5.2275,-6.73397 -2.09401,-17.80662 3.35946,-23.75722 5.55892,-4.0675 15.59209,-2.16933 22.08503,-1.52155 z"
     fill="#f7f4ee"
     id="path1876"
     style="stroke-width:1.50648" />
  <path
     d="m 309.99911,179.07147 c 3.08829,0.25611 2.81712,2.7418 2.68154,5.15217 -0.34649,4.21815 0.13558,8.34591 0.30129,12.549 -0.57246,2.93764 -3.57036,5.46853 -5.63424,7.44202 -1.41609,-7.17085 -2.22959,-13.82951 -8.30072,-18.68038 4.08257,-0.63272 6.14645,-1.38596 8.85812,-4.50438 z"
     fill="#f7f4ee"
     id="path1878"
     style="stroke-width:1.50648" />
  <path
     d="m 283.1536,181.90366 c 1.56674,2.30492 3.13348,4.6249 4.70022,6.94488 3.38959,-1.8831 6.28203,-3.43478 9.86746,-0.75324 7.21605,6.13138 5.93554,14.7334 7.77345,23.19983 l -3.91686,-1.64207 c -0.58752,1.50648 -1.15999,3.01296 -1.74752,4.51945 l 3.78127,-0.54234 0.45195,2.60622 c -1.74752,-0.31636 -3.47997,-0.63273 -5.22749,-0.93402 -0.0904,-3.94699 -0.52727,-7.77345 -1.86804,-11.52459 -3.57036,-2.1844 -6.04099,3.13348 -8.81292,4.68516 0.33142,-2.57608 0.96415,-5.10697 1.89817,-7.60773 -1.89817,-2.4857 -2.1844,-2.12414 -5.12204,-2.00363 -0.40675,-2.41037 -0.8135,-4.80567 -1.23532,-7.20098 -1.41609,0.0603 -2.84725,0.12052 -4.27841,0.16571 -0.57246,-2.48569 -1.12986,-4.95632 -1.70232,-7.44202 1.80778,-0.82856 3.61555,-1.64206 5.4384,-2.47063 z"
     fill="#efafa3"
     id="path1880"
     style="stroke-width:1.50648" />
  <path
     d="m 261.9574,199.63495 c 2.41037,0.63273 4.15789,1.53662 6.10125,3.10336 6.49294,5.06178 13.5734,9.14434 20.84971,12.98587 6.47787,5.95061 14.89911,8.28565 22.8232,3.51011 3.10336,-1.89817 6.56512,-9.06125 8.76773,-5.79996 -2.84725,3.16361 -6.01087,7.29137 -9.94278,9.12928 -3.97712,1.44622 -8.76773,1.95843 -12.94068,1.19012 -4.1127,-1.12986 -7.87891,-4.00724 -11.70537,-5.92047 -5.55892,-3.34439 -10.90693,-7.05034 -16.42065,-10.51525 -2.9979,-2.24466 -6.5532,-3.7662 -7.53241,-7.68306 z"
     fill="#3f3e3d"
     id="path1882"
     sodipodi:nodetypes="cccccccccc"
     style="fill:#1a1a1a;stroke-width:1.50648" />
  <path
     d="m 285.20241,201.86455 c 1.53662,-0.12052 1.9283,0.79843 1.20519,2.7418 -1.52155,0.12051 -1.91323,-0.79844 -1.20519,-2.7418 z"
     fill="#dbdada"
     id="path1884"
     style="stroke-width:1.50648" />
  <path
     d="m 313.82557,199.10769 c 0.8135,3.28413 1.1148,6.16151 0.8587,9.52096 -1.80778,-0.36155 -3.63062,-0.73817 -5.4384,-1.11479 0.5574,-1.35584 1.14492,-2.71167 1.74752,-4.05244 0.91895,-1.46129 1.85297,-2.92258 2.83218,-4.35373 z"
     fill="#cac9c8"
     id="path1886"
     style="stroke-width:1.50648" />
  <path
     d="m 294.24131,205.85673 c 3.28413,2.54595 2.22959,5.28775 1.95842,8.79785 -2.12414,-1.25038 -4.23321,-2.53089 -6.32722,-3.85659 1.43116,-1.65713 2.89244,-3.31426 4.3688,-4.94126 z"
     fill="#bebebe"
     id="path1888"
     style="stroke-width:1.50648" />
  <path
     d="m 313.13259,210.19539 c -0.94908,4.51945 -2.65141,5.96567 -7.30644,6.10126 1.95843,-2.54596 3.11842,-9.44565 7.30644,-6.10126 z"
     fill="#aaa9a9"
     id="path1890"
     style="stroke-width:1.50648" />
  <path
     d="m 283.69593,217.24573 c -10.16875,0.91895 -17.73129,7.15579 -24.72137,14.02535 -8.08981,7.99942 -12.51886,18.54479 -16.96299,28.84913 5.30282,7.59267 4.48932,16.66169 4.0675,25.47461 -1.73245,15.07989 -3.49503,30.14471 -6.01086,45.1342 -1.95843,11.82589 -3.16361,23.80242 -5.3932,35.58311 -2.09401,-5.15217 -1.06961,-10.00304 -0.45195,-15.32092 2.03375,-13.07627 3.72101,-26.18266 6.2971,-39.16854 1.26544,-7.72825 1.61193,-15.53183 3.01296,-23.22995 0.5122,-7.78851 -0.0904,-16.25494 -1.74752,-23.89281 -0.79843,3.88673 -1.44622,7.78852 -1.59687,11.76563 -0.31636,10.18382 -3.44984,19.88556 -4.26334,30.03925 -3.28413,8.48149 -8.01449,16.67676 -13.24198,24.08865 -5.12204,7.23111 -12.02173,12.06692 -19.25284,16.94792 1.56674,7.86384 4.12776,15.92352 4.5797,23.87774 0.6026,6.88463 -3.23893,12.56406 -3.63062,19.58427 -0.99428,5.57398 0.46701,10.60563 1.14493,16.0591 l -2.30492,1.61193 -1.1148,-2.60621 c -1.59687,-5.9958 -1.12986,-11.88614 -0.55739,-17.97233 -0.16572,-1.89817 0.27116,-4.83581 -1.1148,-6.31216 -1.76259,-1.15999 -4.44412,-0.93402 -6.47787,-1.19012 -1.70233,0.0151 -3.40465,0.0753 -5.09191,0.19584 -2.39531,0.18078 -4.79062,0.42182 -7.17086,0.78337 -1.34077,0.3013 -2.6966,0.61766 -4.03737,0.96415 -0.96415,7.23111 0.0301,14.16093 0.15065,21.72347 0.0151,1.89817 0.0452,3.8114 0.10545,5.72463 -0.0301,3.2992 0.40675,3.52517 3.43478,4.20309 7.47215,0.60259 15.12508,-0.15065 22.6123,-0.46701 0.0904,-0.79844 0.16571,-1.59687 0.24103,-2.39531 2.56102,0.16571 3.08829,1.55168 3.84153,3.69088 5.34801,17.86688 12.57913,35.05584 17.35468,53.16375 1.0244,4.56464 0.48207,9.34019 1.40102,13.8747 2.2296,2.83219 6.56827,4.15789 9.97292,4.89607 6.2519,0.87376 13.36249,1.12986 18.95154,-2.27479 -2.4405,-6.85449 -7.05034,-14.47729 -13.3173,-18.36401 -3.02803,0.67791 -5.9958,1.82284 -8.9485,2.78699 2.4405,-2.6966 4.82074,-6.46281 8.96356,-6.20671 2.68154,0.70805 5.01659,2.95271 7.27631,4.51945 4.50438,-3.88673 8.54176,-8.93344 13.69392,-11.91627 3.17868,-1.88311 6.50801,0.30129 9.77707,0.90388 1.97349,0.8135 4.08257,-1.29557 5.81502,-2.07894 -5.72463,-7.33657 -12.97081,-13.15159 -18.30375,-20.86478 l -1.22025,-1.56674 c -2.81713,-3.40465 -5.90541,-6.47787 -8.33085,-10.19888 -0.39169,-0.51221 -0.79844,-1.03947 -1.19012,-1.55168 -5.07685,-8.70746 -10.80148,-15.12508 -13.51315,-24.67617 -1.67219,-5.09191 -2.01868,-10.63577 -3.87165,-15.62222 l -2.45557,-1.82285 c 0.96415,-3.79633 1.64207,-7.71318 2.21453,-11.59991 l 2.15427,1.43116 c 0.52727,4.38386 1.71739,8.67734 2.4405,13.03107 13.21185,0.0151 26.58941,8.6924 36.45686,16.8274 12.75991,10.13863 21.58789,26.4237 19.56921,43.01007 -0.63273,5.28775 -3.54024,9.06902 -6.49294,13.2721 2.1844,1.32571 4.3688,2.68154 6.53813,4.0675 9.86746,-0.0904 14.28145,11.96147 13.27211,20.15673 -2.33505,1.95843 -4.26335,4.27841 -6.43268,6.40255 -3.34439,2.07895 -7.47215,1.71739 -11.23836,1.94337 -3.01296,3.81139 -8.58694,3.99217 -13.0612,3.99217 -6.14644,-0.64778 -11.82588,-0.64778 -17.32454,-3.79633 -7.98435,4.92619 -19.65959,4.50438 -28.20134,1.14492 -4.35374,-1.55167 -5.78489,-4.85087 -7.90903,-8.58694 -6.97502,1.47635 -13.6186,0.8135 -20.66894,0.87376 0.75324,3.64568 2.53089,7.51734 -1.23531,10.09343 -6.40255,2.9979 -12.65445,2.36517 -19.3583,0.97921 4.42906,-4.98646 12.57913,-0.49714 17.61078,-4.12776 1.25038,-4.29348 -2.06388,-9.95785 -3.52517,-13.98016 -3.69088,0.22598 -7.17085,0.33143 -10.69602,-0.91895 -0.21091,-1.3709 -0.42182,-2.7418 -0.66285,-4.1127 4.0675,1.17506 8.19526,1.70233 12.36821,2.35012 2.04882,1.95842 3.60049,4.63996 5.12204,7.0202 6.97501,0.34649 14.02535,0.34649 20.9853,0.13559 1.92829,-2.00362 0.61765,-3.67582 0.28623,-6.02593 -1.91323,-7.75838 -4.27841,-15.39625 -6.35736,-23.1245 -0.55739,-2.25972 -1.11479,-4.50438 -1.8379,-6.71891 -0.99428,-2.81712 -2.07895,-5.60411 -3.16362,-8.39111 -0.42181,-1.0696 -0.85869,-2.15427 -1.29557,-3.22387 -1.77765,-4.23321 -3.01297,-8.61707 -4.24828,-13.016 -9.05396,-0.0753 -18.12298,-0.22597 -27.17694,0.0301 -0.10545,1.26544 -0.19584,2.53089 -0.2561,3.79633 -0.0452,1.68726 -0.0452,3.38959 -0.0151,5.09191 0.2109,4.30854 0.46701,8.61708 0.52727,12.92562 0.0753,2.19946 0.31636,4.38386 0.60259,6.55319 0.40675,2.87738 0.75324,5.75477 1.11479,8.63215 -0.69298,1.14492 -1.41609,2.28985 -2.15426,3.40465 -2.77193,-8.64721 -2.9979,-18.31883 -3.41972,-27.38785 -0.34649,-13.55834 -0.39168,-27.11667 -0.5122,-40.67501 -0.0904,-3.63062 0.33142,-7.6228 -0.79844,-11.07265 -0.54233,-2.01868 -1.40103,-3.72101 -0.88882,-5.87528 1.74752,-9.11421 5.4384,-17.897 8.135,-26.78525 5.81502,-18.4544 12.06692,-36.78829 17.32454,-55.40841 0.6026,0.93402 1.22025,1.86804 1.83791,2.787 -0.96415,4.98645 -1.12986,9.92771 -2.86231,14.73339 -4.68516,14.34171 -8.36098,29.02991 -13.24198,43.29629 4.53451,-2.09401 9.37032,-3.07322 13.99522,-4.85087 8.04461,-3.5553 15.32092,-8.52669 20.51828,-15.72767 7.90903,-11.04251 14.23626,-24.04345 16.48092,-37.49634 1.00934,-10.83161 2.27478,-21.72347 4.44412,-32.3743 5.72463,-17.53545 15.93858,-33.45896 32.52495,-42.42253 4.00724,-1.70233 7.98435,-3.73608 12.11211,-1.05454 z"
     fill="#191412"
     id="path1892"
     style="stroke-width:1.50648" />
  <path
     d="m 145.5214,260.87345 c -1.65713,5.33295 -5.55892,8.9485 -8.91838,13.69392 -1.68726,2.01869 -3.49503,4.94126 -6.01086,5.95061 -2.35011,0.0452 -4.76048,-0.31637 -7.09553,-0.6026 -8.15007,8.81292 -16.33026,17.61078 -24.389944,26.51409 -5.197363,5.79995 -11.614976,7.74331 -17.881941,12.21757 -3.525168,2.30491 -6.673716,5.51372 -10.454986,7.33656 l -2.696603,-0.55739 c 2.440501,-3.61556 5.46853,-6.65866 8.737596,-9.52097 6.221771,-3.35946 14.191061,-6.13138 18.198303,-12.15731 5.152165,-6.79424 10.846675,-13.18172 17.249215,-18.83103 2.25973,-1.95842 4.03738,-4.26334 5.70957,-6.71891 1.73246,-1.50648 3.49504,-2.96777 5.36308,-4.3236 2.60621,0.88882 4.79061,2.07895 7.63786,1.44622 3.37452,-2.83218 5.7397,-7.18592 7.89397,-10.96719 2.21453,-1.17505 4.42905,-2.31998 6.65865,-3.47997 z"
     fill="#755048"
     id="path1894"
     style="stroke-width:1.50648" />
  <path
     d="m 138.86275,264.35342 c -2.15427,3.78127 -4.51945,8.13501 -7.89397,10.96719 -2.84725,0.63273 -5.03165,-0.5574 -7.63786,-1.44622 5.03165,-3.38958 10.16875,-6.67372 15.53183,-9.52097 z"
     fill="#cc958a"
     id="path1896"
     style="stroke-width:1.50648" />
  <path
     d="m 241.7856,264.69991 c 1.65713,7.63787 2.25972,16.1043 1.74752,23.89281 -1.40103,7.69812 -1.74752,15.5017 -3.01296,23.22995 -1.52155,-1.79271 -3.02803,-3.57036 -4.59477,-5.31788 0.8135,-10.15369 3.94698,-19.85543 4.26334,-30.03925 0.15065,-3.97711 0.79844,-7.8789 1.59687,-11.76563 z"
     fill="#4f3830"
     id="path1898"
     style="stroke-width:1.50648" />
  <path
     d="m 78.076197,270.10818 c -9.837328,13.51315 -19.026868,26.19773 -24.329685,42.34722 -1.144926,4.18802 -1.852973,8.48149 -3.028029,12.65444 l 0.06026,-1.77764 c -1.551676,6.04099 -5.302816,10.40979 -5.152168,16.81234 2.862316,2.62127 4.127761,5.6493 8.647207,4.91113 -0.918954,3.66075 -2.907511,6.508 -4.670095,9.762 -3.826464,6.85449 -6.643585,14.01028 -9.731874,21.21127 -0.723111,-1.05454 -1.416093,-2.13921 -2.09401,-3.22387 -5.890344,-25.42942 -4.082566,-53.13363 6.040993,-77.26747 7.216049,-8.64721 14.944302,-17.1287 24.902149,-22.65749 2.922575,-1.71739 6.071122,-2.19946 9.355253,-2.77193 z"
     fill="#3f2e26"
     id="path1900"
     style="stroke-width:1.50648" />
  <path
     d="m 176.69051,277.00787 c 1.52155,-1.627 4.17296,-0.16571 4.82074,1.627 1.9283,4.63997 3.73608,9.58123 4.86594,14.4773 0.0301,4.68515 -4.76048,9.17447 -7.00514,13.13652 2.12414,2.86231 6.20671,5.87528 7.12566,9.27993 -8.39111,15.66741 -14.10067,32.20858 -23.1245,47.65003 -0.79843,1.59687 -2.01869,3.37452 -1.98856,5.19736 -0.0151,6.5532 1.61194,13.04613 1.88311,19.61439 0.43688,6.01087 -0.15065,12.11212 0.5122,18.09285 1.79271,5.86022 5.4384,9.83733 4.54958,16.46585 -1.65713,4.12776 -4.32361,8.7376 -7.59267,11.78069 -4.14283,1.26545 -5.72463,-6.19164 -7.38177,-8.76772 -4.51944,1.77765 -8.78279,3.90179 -12.98587,6.32722 0,2.6966 -0.61766,5.79996 0.18078,8.37604 2.47063,4.30854 5.89034,8.1802 9.53603,11.50952 1.82284,-2.62127 3.64569,-5.24255 5.49866,-7.86383 5.28775,1.91323 7.18592,8.84305 9.82226,13.40769 -1.98855,3.28413 -4.03737,9.2498 -8.10487,10.3194 1.627,-3.88672 3.254,-7.75838 4.53451,-11.78069 -2.33505,-1.68726 -4.6249,-3.41971 -6.95995,-5.07684 -3.07322,2.33504 -3.61556,7.15579 -5.06178,10.60563 l -0.42181,0.5574 -1.76259,-2.12414 c -0.34649,-2.01869 -0.0904,-4.44412 -0.97921,-6.28203 -2.77193,-3.73608 -6.508,-6.82436 -9.82226,-10.0633 -2.16934,1.97349 -4.85088,7.69812 -8.34591,5.76982 -1.70233,-1.64206 -2.45557,-4.2784 -3.58543,-6.31215 l 3.26907,1.37089 c 2.50076,-2.16933 6.91475,-4.79061 7.75838,-8.07474 -1.05454,-3.75114 -1.82285,-10.93706 -6.16151,-12.08199 1.46128,-3.254 3.16361,-6.38748 5.07684,-9.40044 7.59267,-10.37967 14.4321,-21.2866 20.30738,-32.73586 2.86231,-5.61918 -0.0301,-13.81444 3.78127,-18.81596 10.15369,-14.25132 16.10429,-32.3743 24.87202,-47.63496 -3.44985,-3.51011 -7.56254,-5.4384 -11.76563,-7.80358 -2.80205,-3.28413 -6.19164,-9.27993 -7.5776,-13.37756 -0.8587,-2.27479 1.35583,-4.18802 2.56102,-5.87528 3.32932,-3.73607 6.11631,-7.99942 9.67161,-11.49446 z"
     fill="#755048"
     id="path1902"
     style="stroke-width:1.50648" />
  <path
     d="m 117.96784,278.19799 c -1.67219,2.45557 -3.44984,4.76049 -5.70957,6.71891 -6.40254,5.64931 -12.09705,12.03679 -17.249215,18.83103 -4.007242,6.02593 -11.976532,8.79785 -18.198303,12.15731 10.153689,-15.03469 26.770188,-26.90577 41.157088,-37.70725 z"
     fill="#3f2e26"
     id="path1904"
     style="stroke-width:1.50648" />
  <path
     d="m 176.70558,283.01874 c 1.11479,-0.0904 2.00362,0.15064 2.66647,0.72311 1.77765,3.43478 2.77193,7.35163 3.94698,11.02745 -2.60621,2.50076 -5.1823,6.17657 -8.61707,7.48721 -3.54024,-2.62128 -4.6249,-6.44774 -5.06178,-10.66589 2.41037,-2.80206 4.53451,-5.87528 7.0654,-8.57188 z"
     fill="#efafa3"
     id="path1906"
     style="stroke-width:1.50648" />
  <path
     d="m 43.818795,295.5376 c -10.123559,24.13384 -11.931337,51.83805 -6.040993,77.26747 0.964149,4.56464 0.572464,7.65292 -1.069602,11.96146 -10.108494,-19.34323 -9.987976,-43.94408 -6.975012,-65.03483 3.510103,-8.48149 8.360976,-17.02324 14.085607,-24.1941 z"
     fill="#e1bd40"
     id="path1908"
     style="stroke-width:1.50648" />
  <path
     d="m 154.43977,303.25079 c -0.24104,2.00362 -0.52727,4.00724 -0.75324,6.01086 -5.76983,0.97922 -11.26848,2.45557 -16.52611,5.07685 -12.08198,5.79995 -25.65539,11.31368 -36.23089,19.55413 -9.762004,7.53241 -16.495979,18.10792 -22.446583,28.71355 -9.053957,16.30014 -15.140144,33.94104 -17.234154,52.5009 -0.376621,9.5059 0.07532,19.50894 1.295574,28.95459 -2.817121,-6.08619 -4.579705,-12.35316 -6.28203,-18.81596 -2.184399,7.48721 1.988556,16.94792 7.140725,22.40138 1.431158,6.5532 2.982834,12.97081 5.634243,19.16246 -5.227493,-2.53089 -10.244078,-5.42334 -14.643006,-9.2498 -2.847251,-11.67524 -3.977112,-22.88347 -3.193742,-34.92026 -0.195842,-12.47367 3.028029,-23.98319 6.31216,-35.8844 4.896067,-14.23626 12.639385,-27.64395 20.985295,-40.11762 2.06388,0.45195 3.570362,-0.27116 4.474252,-2.1844 6.703845,-10.00304 14.537551,-18.78583 25.655386,-23.92293 5.51373,-2.41037 8.90331,-7.30644 14.29652,-9.86746 9.52096,-4.89607 20.92503,-6.67371 31.5156,-7.41189 z"
     fill="#e1bd40"
     id="path1910"
     style="stroke-width:1.50648" />
  <path
     d="m 235.92539,306.50479 c 1.56674,1.74752 3.07322,3.52517 4.59477,5.31788 -2.57609,12.98588 -4.26335,26.09227 -6.2971,39.16854 -0.61766,5.31788 -1.64206,10.16875 0.45195,15.32092 l -0.21091,1.53661 -2.15427,-1.43116 c -0.27117,-1.41609 -0.54233,-2.84725 -0.79844,-4.26334 -8.3911,15.7578 -12.05185,32.57014 -15.00456,50.0152 1.03947,3.73608 4.83581,7.1106 7.9241,9.32513 3.61555,1.44622 6.2067,-3.94699 8.05968,-6.22178 5.45346,2.09401 10.75628,4.47426 15.80299,7.44203 0.57247,3.35945 1.25038,6.68878 2.15427,9.97291 -2.33504,2.38024 -4.59477,5.01658 -7.29137,7.0202 -1.89817,0.43688 -4.14283,-0.43688 -5.9958,0.24104 -2.77193,3.72101 -4.33867,8.61708 -6.02593,12.91055 2.53089,3.34439 5.10698,6.89969 8.40617,9.52097 l 2.71167,-0.12052 c 2.65141,-3.37452 4.86594,-6.77917 8.46643,-9.26486 -1.29557,-2.47064 -2.59115,-4.95633 -3.84153,-7.45709 2.72673,-3.47997 5.42334,-6.99008 8.15007,-10.50018 1.91323,0.15065 3.84153,0.3013 5.76982,0.43688 l -0.12051,-2.01869 c 5.33294,7.71319 12.57912,13.52821 18.30375,20.86478 -1.73245,0.78337 -3.84153,2.89244 -5.81502,2.07894 -3.26906,-0.60259 -6.59839,-2.78699 -9.77707,-0.90388 -5.15216,2.98283 -9.18954,8.02954 -13.69392,11.91627 -2.25972,-1.56674 -4.59477,-3.8114 -7.27631,-4.51945 -4.14282,-0.2561 -6.52306,3.51011 -8.96356,6.20671 2.9527,-0.96415 5.92047,-2.10908 8.9485,-2.78699 6.26696,3.88672 10.8768,11.50952 13.3173,18.36401 -5.58905,3.40465 -12.69964,3.14855 -18.95154,2.27479 -3.40465,-0.73818 -7.74332,-2.06388 -9.97292,-4.89607 -0.91895,-4.53451 -0.37662,-9.31006 -1.40102,-13.8747 -4.77555,-18.10791 -12.00667,-35.29687 -17.35468,-53.16375 -0.75324,-2.1392 -1.28051,-3.52517 -3.84153,-3.69088 l -0.0452,-0.12052 -0.93402,-2.53089 2.30492,-1.61193 c -0.67792,-5.45347 -2.13921,-10.48512 -1.14493,-16.0591 0.39169,-7.02021 4.23322,-12.69964 3.63062,-19.58427 -0.45194,-7.95422 -3.01296,-16.0139 -4.5797,-23.87774 7.23111,-4.881 14.1308,-9.71681 19.25284,-16.94792 5.22749,-7.41189 9.95785,-15.60716 13.24198,-24.08865 z"
     fill="#3f2e26"
     id="path1912"
     style="stroke-width:1.50648" />
  <path
     d="m 153.68653,309.26165 c -0.66285,7.39683 -0.3013,14.83885 -1.14493,22.25074 -1.14492,8.9937 -1.05453,18.01753 -2.80205,26.96603 -11.7355,6.74904 -22.14529,14.83885 -27.99044,27.41797 -9.23473,8.42124 -11.96147,21.78374 -12.71471,33.73014 -0.46701,8.73759 2.7418,17.18896 10.56044,21.67827 -2.10907,5.19737 -5.04671,9.88253 -7.74332,14.77859 -2.56101,5.30282 -5.63424,10.31941 -9.27992,14.95937 -1.91324,2.98283 -6.236841,2.25972 -9.279934,2.07895 -8.180198,-1.1148 -16.721951,-2.81713 -24.254361,-6.31216 -2.651409,-6.19165 -4.203085,-12.60926 -5.634243,-19.16246 l -0.858695,-3.58542 c -1.22025,-9.44565 -1.672195,-19.44869 -1.295574,-28.95459 2.09401,-18.55986 8.180197,-36.20076 17.234154,-52.5009 5.950604,-10.60563 12.684579,-21.18114 22.446583,-28.71355 10.5755,-8.24045 24.14891,-13.75418 36.23089,-19.55413 5.25763,-2.62128 10.75628,-4.09763 16.52611,-5.07685 z"
     fill="#f7f4ee"
     id="path1914"
     style="stroke-width:1.50648" />
  <path
     d="m 29.733188,319.7317 c -3.012964,21.09075 -3.133482,45.6916 6.975012,65.03483 -0.723111,3.11842 -1.25038,6.28203 -1.898167,9.40045 -4.639965,-5.21243 -7.351633,-13.09133 -9.626421,-19.64452 -3.073223,-17.9874 -2.048815,-37.66206 4.549576,-54.79076 z"
     fill="#f7f4ee"
     id="path1916"
     style="stroke-width:1.50648" />
  <path
     d="m 50.778742,323.3322 -0.06026,1.77764 c -0.06026,6.65865 1.973492,13.51315 3.555298,19.94583 -4.519446,0.73817 -5.784891,-2.28986 -8.647207,-4.91113 -0.150648,-6.40255 3.600492,-10.77135 5.152168,-16.81234 z"
     fill="#efafa3"
     id="path1918"
     style="stroke-width:1.50648" />
  <path
     d="m 58.95894,343.21776 c 1.235315,4.95632 2.606214,10.53031 2.048815,15.66741 -0.165713,1.6722 -1.928297,3.05816 -3.012964,4.23322 -3.570362,3.29919 -6.703845,6.52306 -11.735495,7.33656 0.798436,-2.33504 1.506482,-4.73035 2.410372,-7.03527 2.4405,-0.2109 6.116317,-0.88882 7.366697,-3.254 0.572463,-3.29919 0.256102,-6.31216 -1.25038,-9.29499 1.340769,-2.59115 2.832186,-5.07685 4.172955,-7.65293 z"
     fill="#755048"
     id="path1920"
     style="stroke-width:1.50648" />
  <path
     d="m 200.91474,347.7824 c 1.47636,10.43992 5.07685,19.71985 3.28413,30.4912 -9.32512,-0.0452 -18.24349,-0.70805 -27.43303,1.41609 -0.87376,-9.41551 0.94908,-16.97805 4.50438,-25.59513 5.19736,-1.47635 10.45498,-2.80206 15.57702,-4.54958 1.35584,-0.57246 2.71167,-1.14492 4.0675,-1.76258 z"
     fill="#ffffff"
     id="path1922"
     style="stroke-width:1.50648" />
  <path
     d="m 54.785985,350.87069 c 1.506482,2.98283 1.822843,5.9958 1.25038,9.29499 -1.25038,2.36518 -4.926197,3.0431 -7.366697,3.254 2.455565,-4.0223 4.308538,-8.22539 6.116317,-12.54899 z"
     fill="#eeaea2"
     id="path1924"
     style="stroke-width:1.50648" />
  <path
     d="m 231.51139,362.15424 c 0.25611,1.41609 0.52727,2.84725 0.79844,4.26334 -0.57246,3.88673 -1.25038,7.80358 -2.21453,11.59991 -2.50076,7.45709 -6.08619,14.04042 -7.41189,21.88919 3.38958,1.59687 7.12566,2.86231 10.21395,4.97139 0.61765,2.03375 1.0244,4.18802 1.46128,6.26696 5.03165,3.2992 10.0633,6.52307 15.57703,8.9937 0.39168,0.51221 0.79843,1.03947 1.19012,1.55168 -0.58753,1.85297 -1.15999,3.70594 -1.74752,5.55892 3.10335,2.81712 6.04099,3.78127 10.07837,4.63996 l 1.22025,1.56674 0.12051,2.01869 c -1.92829,-0.13558 -3.85659,-0.28623 -5.76982,-0.43688 -2.72673,3.5101 -5.42334,7.02021 -8.15007,10.50018 1.25038,2.50076 2.54596,4.98645 3.84153,7.45709 -3.60049,2.48569 -5.81502,5.89034 -8.46643,9.26486 l -2.71167,0.12052 c -3.29919,-2.62128 -5.87528,-6.17658 -8.40617,-9.52097 1.68726,-4.29347 3.254,-9.18954 6.02593,-12.91055 1.85297,-0.67792 4.09763,0.19584 5.9958,-0.24104 2.6966,-2.00362 4.95633,-4.63996 7.29137,-7.0202 -0.90389,-3.28413 -1.5818,-6.61346 -2.15427,-9.97291 -5.04671,-2.96777 -10.34953,-5.34802 -15.80299,-7.44203 -1.85298,2.27479 -4.44413,7.668 -8.05968,6.22178 -3.08829,-2.21453 -6.88463,-5.58905 -7.9241,-9.32513 2.95271,-17.44506 6.61346,-34.2574 15.00456,-50.0152 z"
     fill="#755048"
     id="path1926"
     style="stroke-width:1.50648" />
  <path
     d="m 147.99203,362.9828 c -1.17506,6.61346 -3.8566,12.95575 -6.37242,19.14739 -0.63272,0.58753 -1.49142,0.94908 -2.59115,1.08467 -1.56674,0.22597 -3.13348,0.43688 -4.70022,0.64778 -2.96777,0.33143 -5.95061,0.49714 -8.93344,0.63273 4.98645,-9.27993 13.19678,-16.85754 22.59723,-21.51257 z"
     fill="#ffffff"
     id="path1928"
     style="stroke-width:1.50648" />
  <path
     d="m 230.0953,378.01749 2.45557,1.82285 c 1.85297,4.98645 2.19946,10.53031 3.87165,15.62222 2.71167,9.55109 8.4363,15.96871 13.51315,24.67617 -5.51373,-2.47063 -10.54538,-5.6945 -15.57703,-8.9937 -0.43688,-2.07894 -0.84363,-4.23321 -1.46128,-6.26696 -3.08829,-2.10908 -6.82437,-3.37452 -10.21395,-4.97139 1.3257,-7.84877 4.91113,-14.4321 7.41189,-21.88919 z"
     fill="#3f2e26"
     id="path1930"
     style="stroke-width:1.50648" />
  <path
     d="m 188.86289,380.78942 c -1.58181,1.47635 -3.11842,2.9979 -4.65503,4.51945 2.21453,2.28985 4.5797,4.33867 7.11059,6.26696 2.31998,-1.73245 4.63997,-3.44984 6.95995,-5.1823 -1.43116,-1.92829 -2.89245,-3.85659 -4.3236,-5.79995 2.03375,0.2561 4.71528,0.0301 6.47787,1.19012 1.38596,1.47635 0.94908,4.41399 1.1148,6.31216 -2.38025,2.59115 -4.98646,6.40255 -8.78279,6.65865 -4.1579,-1.74752 -8.31579,-4.17296 -11.56979,-7.30644 -0.79843,-1.70232 0.31636,-4.05244 0.49714,-5.87528 2.38024,-0.36155 4.77555,-0.60259 7.17086,-0.78337 z"
     fill="#755048"
     id="path1932"
     style="stroke-width:1.50648" />
  <path
     d="m 188.86289,380.78942 c 1.68726,-0.12052 3.38958,-0.18078 5.09191,-0.19584 1.43115,1.94336 2.89244,3.87166 4.3236,5.79995 -2.31998,1.73246 -4.63997,3.44985 -6.95995,5.1823 -2.53089,-1.92829 -4.89606,-3.97711 -7.11059,-6.26696 1.53661,-1.52155 3.07322,-3.0431 4.65503,-4.51945 z"
     fill="#efafa3"
     id="path1934"
     style="stroke-width:1.50648" />
  <path
     d="m 177.65466,382.53694 c 1.34077,-0.34649 2.6966,-0.66285 4.03737,-0.96415 -0.18078,1.82284 -1.29557,4.17296 -0.49714,5.87528 3.254,3.13348 7.41189,5.55892 11.56979,7.30644 3.79633,-0.2561 6.40254,-4.0675 8.78279,-6.65865 -0.57247,6.08619 -1.03948,11.97653 0.55739,17.97233 -8.11993,-1.80778 -15.98377,-2.93764 -24.29955,-1.80778 -0.12052,-7.56254 -1.1148,-14.49236 -0.15065,-21.72347 z"
     fill="#3f2e26"
     id="path1936"
     style="stroke-width:1.50648" />
  <path
     d="m 134.32824,383.86264 c 1.56674,-0.2109 3.13348,-0.42181 4.70022,-0.64778 0.99428,6.73397 -3.41971,13.22691 -5.00152,19.96088 -3.49504,0.27117 -6.99008,0.54234 -10.48511,0.97922 -0.18078,-4.85087 -0.94909,-10.6659 0.79843,-15.30586 1.46129,-3.94698 6.47787,-4.03737 9.98798,-4.98646 z"
     fill="#3f2e26"
     id="path1938"
     style="stroke-width:1.50648" />
  <path
     d="m 238.04953,384.02836 c 1.73245,0.16571 3.43477,0.42181 5.12203,0.84363 1.64207,6.37242 4.50439,11.78069 8.01449,17.27935 -2.16934,1.12986 -4.3236,2.27478 -6.47787,3.43478 -3.6005,-6.83943 -6.46281,-13.69393 -6.65865,-21.55776 z"
     fill="#3f2e26"
     id="path1940"
     style="stroke-width:1.50648" />
  <path
     d="m 243.17156,384.87199 c 2.45557,0.63272 4.82075,1.43115 7.12566,2.47063 1.4161,4.86593 3.2992,9.08408 5.96567,13.39262 2.71167,-0.16571 5.54386,-0.39168 8.25553,-0.0904 2.72673,3.75114 1.73245,10.56044 1.05453,14.91418 -2.90751,2.54595 -6.43268,4.33866 -9.38538,6.86955 -1.64207,-2.21452 -3.35946,-4.38386 -5.09191,-6.53813 4.27841,-0.0753 8.33085,0.0904 12.30796,-1.79271 -0.75324,-2.35011 -1.40103,-4.79061 -2.39531,-7.03527 -3.73607,-1.31064 -9.18954,-0.64779 -12.97081,0.46701 -0.15065,1.44622 -0.10545,2.90751 0.15065,4.38386 -1.23532,-2.06388 -2.36518,-4.20309 -3.47997,-6.32722 2.15427,-1.16 4.30853,-2.30492 6.47787,-3.43478 -3.5101,-5.49866 -6.37242,-10.90693 -8.01449,-17.27935 z"
     fill="#755048"
     id="path1942"
     style="stroke-width:1.50648" />
  <path
     d="m 121.74911,385.89639 c -1.05454,5.10698 -1.74752,10.25915 -2.25972,15.44145 -1.12986,7.29137 -3.46491,15.51676 -2.56102,22.85333 0.37662,4.21815 3.23894,7.69812 5.01658,11.55472 -0.72311,1.8831 -1.52154,3.72101 -2.35011,5.55891 -7.81864,-4.48931 -11.02745,-12.94068 -10.56044,-21.67827 0.75324,-11.9464 3.47998,-25.3089 12.71471,-33.73014 z"
     fill="#e1bd40"
     id="path1944"
     style="stroke-width:1.50648" />
  <path
     d="m 157.49793,387.79456 c 0.36156,5.79996 0.73818,11.59991 1.43116,17.3848 0.10545,2.10908 0.69298,3.8566 -0.58753,5.7397 -2.63634,4.14283 -5.39321,8.02955 -7.03527,12.71471 -4.24828,1.86804 -8.58695,3.49504 -12.94068,5.07684 -1.3709,-1.86803 -2.72673,-3.73607 -4.09763,-5.60411 6.41761,-8.21033 12.94068,-16.79727 17.86687,-26.00188 1.68726,-3.16361 3.46491,-6.26696 5.36308,-9.31006 z"
     fill="#3f2e26"
     id="path1946"
     style="stroke-width:1.50648" />
  <path
     d="m 250.29722,387.34262 c 10.6207,4.51944 19.52401,11.44926 28.02057,19.13232 -0.28623,1.3709 -0.5574,2.72673 -0.84363,4.09763 -1.03947,4.86594 -1.86804,8.34591 -4.15789,12.7599 -0.0301,-1.34077 -0.0904,-2.68153 -0.18078,-4.03737 -3.91685,3.58543 -7.18592,7.69813 -10.50018,11.81082 -2.1844,-2.86231 -4.30854,-5.76983 -6.44774,-8.67734 2.9527,-2.53089 6.47787,-4.3236 9.38538,-6.86955 0.67792,-4.35374 1.6722,-11.16304 -1.05453,-14.91418 -2.71167,-0.30129 -5.54386,-0.0753 -8.25553,0.0904 -2.66647,-4.30854 -4.54957,-8.52669 -5.96567,-13.39262 z"
     fill="#3f2e26"
     id="path1948"
     style="stroke-width:1.50648" />
  <path
     d="m 59.938153,396.51709 c -2.09401,9.34019 -2.817121,18.95155 -5.317881,28.15615 -0.662852,-5.27268 -0.316362,-10.39472 0.662852,-15.60715 0.934019,-4.60984 1.235315,-8.96357 4.655029,-12.549 z"
     fill="#b29633"
     id="path1950"
     style="stroke-width:1.50648" />
  <path
     d="m 119.48939,401.33784 c 1.34077,7.05033 3.01296,12.32302 8.84305,16.90272 -2.00362,5.87528 -4.18802,11.69031 -6.38749,17.50533 -1.77764,-3.8566 -4.63996,-7.33657 -5.01658,-11.55472 -0.90389,-7.33657 1.43116,-15.56196 2.56102,-22.85333 z"
     fill="#3f2e26"
     id="path1952"
     style="stroke-width:1.50648" />
  <path
     d="m 123.54183,404.15496 c 3.49503,-0.43688 6.99007,-0.70805 10.48511,-0.97922 -0.52727,1.83791 -1.00934,3.69088 -1.52155,5.52879 -2.6966,0.51221 -5.3932,1.05454 -8.07474,1.64207 -0.37662,-2.04882 -0.70805,-4.1127 -0.88882,-6.19164 z"
     fill="#e1bd40"
     id="path1954"
     style="stroke-width:1.50648" />
  <path
     d="m 177.80531,404.26041 c 8.31578,-1.12986 16.17962,0 24.29955,1.80778 l 1.1148,2.60621 0.93402,2.53089 -0.70805,0.91896 -1.09973,0.66285 c -7.98435,-2.41037 -16.16455,-2.83219 -24.43514,-2.80206 -0.0603,-1.91323 -0.0904,-3.82646 -0.10545,-5.72463 z"
     fill="#e1bd40"
     id="path1956"
     style="stroke-width:1.50648" />
  <path
     d="m 261.00831,407.06247 c 0.99428,2.24466 1.64207,4.68516 2.39531,7.03527 -3.97711,1.8831 -8.02955,1.71739 -12.30796,1.79271 -1.02441,-1.28051 -2.00362,-2.60621 -2.90751,-3.97711 -0.2561,-1.47635 -0.3013,-2.93764 -0.15065,-4.38386 3.78127,-1.1148 9.23474,-1.77765 12.97081,-0.46701 z"
     fill="#efafa3"
     id="path1958"
     style="stroke-width:1.50648" />
  <path
     d="m 132.50539,408.70453 -1.0696,3.52517 -0.72311,1.71739 c -2.75686,-0.57246 -4.35373,-1.55168 -6.28203,-3.60049 2.68154,-0.58753 5.37814,-1.12986 8.07474,-1.64207 z"
     fill="#c2bba9"
     id="path1960"
     style="stroke-width:1.50648" />
  <path
     d="m 278.33286,407.27338 c 1.12986,1.08466 2.27478,2.15426 3.43477,3.22387 1.05454,1.61193 2.07895,3.254 3.0431,4.94126 -4.89607,7.98435 -10.74122,14.98949 -18.33389,20.56348 -1.31064,-1.61194 -2.57608,-3.23894 -3.84153,-4.89607 3.31426,-4.11269 6.58333,-8.22539 10.50018,-11.81082 0.0904,1.35584 0.15065,2.6966 0.18078,4.03737 2.28985,-4.41399 3.11842,-7.89396 4.15789,-12.7599 z"
     fill="#e1bd40"
     id="path1962"
     style="stroke-width:1.50648" />
  <path
     d="m 177.91076,409.98504 c 8.27059,-0.0301 16.45079,0.39169 24.43514,2.80206 l 1.09973,-0.66285 0.70805,-0.91896 0.0452,0.12052 c -0.0753,0.79844 -0.15064,1.59687 -0.24103,2.39531 -7.48722,0.31636 -15.14015,1.0696 -22.6123,0.46701 -3.02803,-0.67792 -3.46491,-0.90389 -3.43478,-4.20309 z"
     fill="#f7f4ee"
     id="path1964"
     style="stroke-width:1.50648" />
  <path
     d="m 161.47504,412.21464 c 2.92258,0.2561 4.56464,3.90178 6.40255,5.87528 -2.25972,3.87165 -4.53451,7.72825 -6.8093,11.59991 -3.32932,-1.86804 -7.35163,-7.57761 -4.00724,-11.04252 1.35583,-2.21452 2.78699,-4.41399 4.41399,-6.43267 z"
     fill="#efafa3"
     id="path1966"
     style="stroke-width:1.50648" />
  <path
     d="m 178.22712,417.1559 c 9.05396,-0.2561 18.12298,-0.10546 27.17694,-0.0301 1.23531,4.39893 2.47063,8.78279 4.24828,13.016 -4.59477,0.15065 -7.1106,-0.34649 -10.96719,-2.78699 1.09973,-2.10907 2.19946,-4.20308 3.2992,-6.29709 -1.80778,-2.09401 -3.11842,-2.75687 -5.84515,-3.23894 -3.66076,-0.46701 -7.29138,-0.63272 -10.922,0.19584 -2.4857,0.82857 -4.881,1.85297 -7.24618,2.93764 0.0603,-1.26544 0.15065,-2.53089 0.2561,-3.79633 z"
     fill="#3f2e26"
     id="path1968"
     style="stroke-width:1.50648" />
  <path
     d="m 284.81073,415.43851 c 6.17657,11.53965 9.15941,25.02266 1.41609,36.68284 -8.08981,-0.45195 -14.53755,-10.71109 -19.74998,-16.11936 7.59267,-5.57399 13.43782,-12.57913 18.33389,-20.56348 z"
     fill="#f7f4ee"
     id="path1970"
     style="stroke-width:1.50648" />
  <path
     d="m 185.2172,418.01459 c -1.61194,2.16934 -3.52517,3.91686 -2.27479,6.82437 3.26907,2.42543 7.51735,3.41971 10.54538,0.0301 2.59115,-1.91324 2.22959,-4.1579 2.65141,-7.05034 2.72673,0.48207 4.03737,1.14493 5.84515,3.23894 -1.09974,2.09401 -2.19947,4.18802 -3.2992,6.29709 3.85659,2.4405 6.37242,2.93764 10.96719,2.78699 0.43688,1.0696 0.87376,2.15427 1.29557,3.22387 l -0.5122,2.65141 c -5.06178,-1.08466 -9.29499,-4.35373 -14.11574,-6.67371 -2.00362,1.08466 -4.0223,2.41037 -6.2067,3.08829 -4.30854,-1.25038 -8.37604,-4.00725 -12.15731,-6.38749 -0.0301,-1.70232 -0.0301,-3.40465 0.0151,-5.09191 2.36518,-1.08467 4.76048,-2.10907 7.24618,-2.93764 z"
     fill="#755048"
     id="path1972"
     style="stroke-width:1.50648" />
  <path
     d="m 185.2172,418.01459 c 3.63062,-0.82856 7.26124,-0.66285 10.922,-0.19584 -0.42182,2.89244 -0.0603,5.1371 -2.65141,7.05034 -3.02803,3.38958 -7.27631,2.3953 -10.54538,-0.0301 -1.25038,-2.90751 0.66285,-4.65503 2.27479,-6.82437 z"
     fill="#efafa3"
     id="path1974"
     style="stroke-width:1.50648" />
  <path
     d="m 36.406904,420.99743 c 2.606214,4.76048 3.931918,9.15941 1.717389,14.43209 -1.416093,-3.58542 -2.350112,-7.30643 -2.651408,-11.14796 z"
     fill="#66463e"
     id="path1976"
     style="stroke-width:1.50648" />
  <path
     d="m 251.12579,421.69041 c 2.42544,3.72101 5.51372,6.79423 8.33085,10.19888 -4.03738,-0.85869 -6.97502,-1.82284 -10.07837,-4.63996 0.58753,-1.85298 1.15999,-3.70595 1.74752,-5.55892 z"
     fill="#be897f"
     id="path1978"
     style="stroke-width:1.50648" />
  <path
     d="m 56.262337,425.24571 c 1.702325,6.4628 3.464909,12.72977 6.28203,18.81596 l 0.858695,3.58542 c -5.152169,-5.45346 -9.325124,-14.91417 -7.140725,-22.40138 z"
     fill="#a08731"
     id="path1980"
     style="stroke-width:1.50648" />
  <path
     d="m 129.7636,424.14597 c 4.33866,1.14493 5.10697,8.33085 6.16151,12.08199 -0.84363,3.28413 -5.25762,5.90541 -7.75838,8.07474 l -3.26907,-1.37089 -0.90389,-1.50649 c 0.8135,-6.26696 3.5553,-11.46433 5.76983,-17.27935 z"
     fill="#efafa3"
     id="path1982"
     style="stroke-width:1.50648" />
  <path
     d="m 177.95596,426.04414 c 3.78127,2.38024 7.84877,5.13711 12.15731,6.38749 2.1844,-0.67792 4.20308,-2.00363 6.2067,-3.08829 4.82075,2.31998 9.05396,5.58905 14.11574,6.67371 l 0.5122,-2.65141 c 1.08467,2.787 2.16934,5.57399 3.16362,8.39111 -7.48722,1.19012 -15.39625,1.79271 -22.94373,0.97921 -4.30853,-0.85869 -8.4363,-2.59115 -12.68457,-3.7662 -0.0603,-4.30854 -0.31637,-8.61708 -0.52727,-12.92562 z"
     fill="#3f2e26"
     id="path1984"
     style="stroke-width:1.50648" />
  <path
     d="m 178.48323,438.96976 c 4.24827,1.17505 8.37604,2.90751 12.68457,3.7662 7.54748,0.8135 15.45651,0.21091 22.94373,-0.97921 0.72311,2.21453 1.28051,4.45919 1.8379,6.71891 -12.47367,1.47635 -25.21851,2.66647 -36.86361,-2.95271 -0.28623,-2.16933 -0.52727,-4.35373 -0.60259,-6.55319 z"
     fill="#e0bd40"
     id="path1986"
     style="stroke-width:1.50648" />
  <path
     d="m 123.99377,441.42532 0.90389,1.50649 c 1.12986,2.03375 1.8831,4.67009 3.58543,6.31215 3.49503,1.9283 6.17657,-3.79633 8.34591,-5.76982 3.31426,3.23894 7.05033,6.32722 9.82226,10.0633 0.88882,1.83791 0.63272,4.26334 0.97921,6.28203 -3.57036,-1.1148 -6.88462,-2.22959 -10.66589,-1.38596 -4.17296,0.82856 -7.89397,4.48931 -11.14797,7.08046 -3.13348,-2.57608 -6.31216,-5.10697 -9.58122,-7.50228 1.67219,-6.29709 3.96205,-11.28355 7.75838,-16.58637 z"
     fill="#3f2e26"
     id="path1988"
     style="stroke-width:1.50648" />
  <path
     d="m 239.26978,442.10324 c 2.1844,1.71739 3.94698,3.66075 5.61917,5.86022 -0.64778,3.60049 -1.28051,7.17085 -2.01868,10.75628 -4.76049,-0.31636 -5.9958,-3.96205 -8.61708,-7.21605 0.8135,-1.8831 1.61194,-3.78127 2.4857,-5.63424 0.8135,-1.28051 1.65713,-2.53089 2.53089,-3.76621 z"
     fill="#efafa3"
     id="path1990"
     style="stroke-width:1.50648" />
  <path
     d="m 179.08582,445.52295 c 11.6451,5.61918 24.38994,4.42906 36.86361,2.95271 2.07895,7.72825 4.44413,15.36612 6.35736,23.1245 0.33142,2.35011 1.64206,4.02231 -0.28623,6.02593 -6.95995,0.2109 -14.01029,0.2109 -20.9853,-0.13559 -1.52155,-2.38024 -3.07322,-5.06178 -5.12204,-7.0202 -4.17295,-0.64779 -8.30071,-1.17506 -12.36821,-2.35012 -0.99428,-4.68515 -2.38025,-9.26486 -3.3444,-13.96508 -0.36155,-2.87738 -0.70804,-5.75477 -1.11479,-8.63215 z"
     fill="#f7f4ee"
     id="path1992"
     style="stroke-width:1.50648" />
  <path
     d="m 154.87665,450.78058 c 2.33505,1.65713 4.6249,3.38958 6.95995,5.07684 -1.28051,4.02231 -2.90751,7.89397 -4.53451,11.78069 l -1.05454,-0.0301 c -2.1392,-2.07894 -4.23321,-4.20308 -6.43268,-6.22177 1.44622,-3.44984 1.98856,-8.27059 5.06178,-10.60563 z"
     fill="#efafa3"
     id="path1994"
     style="stroke-width:1.50648" />
  <path
     d="m 284.23827,456.58053 c 4.36879,0.91896 8.18019,4.91113 10.72615,8.39111 3.19374,4.45918 5.9958,10.45498 4.24828,16.0139 -2.4405,2.62128 -6.07113,1.86804 -9.27993,1.80778 -1.08467,-4.50438 -1.97349,-8.78279 -4.35374,-12.85029 -2.38024,-3.97711 -5.70956,-7.50228 -8.61707,-11.1329 2.27478,-0.79844 4.8358,-2.30492 7.27631,-2.2296 z"
     fill="#3f2e26"
     id="path1996"
     style="stroke-width:1.50648" />
  <path
     d="m 270.52928,459.2922 c 7.08046,4.3236 12.89548,11.59991 14.83885,19.71985 0.22597,2.84725 1.23531,7.08047 -2.60622,7.86384 -7.17085,1.03947 -15.71261,0.57246 -22.47671,-2.19947 -3.47997,-4.5797 -5.60411,-10.34953 -8.91837,-15.17027 4.27841,-3.76621 8.34591,-8.15007 13.16665,-11.20823 2.16933,-1.31064 4.08257,-0.0753 5.9958,0.99428 z"
     fill="#3f2e26"
     id="path1998"
     style="stroke-width:1.50648" />
  <path
     d="m 115.93409,462.30516 c 3.19374,0.64779 5.4384,3.32933 7.74332,5.4384 -5.49866,8.36098 -12.94068,17.06845 -13.54327,27.44811 -0.81351,0.48207 -1.62701,0.94908 -2.45557,1.41609 -1.20519,-4.97139 -8.707467,0.24104 -9.807199,-4.76048 -0.482074,-5.81502 4.127759,-12.15731 6.929819,-17.03831 2.83218,-4.18802 6.23683,-10.59057 11.1329,-12.50381 z"
     fill="#3f2e26"
     id="path2000"
     style="stroke-width:1.50648" />
  <path
     d="m 475.08613,484.04509 c 4.54461,2.00321 3.3935,9.17891 4.32036,13.26008 0.67273,-1.10625 1.31555,-2.2424 1.95837,-3.3636 0.61292,-1.47999 1.2408,-2.94503 1.88362,-4.41006 1.37534,-1.09131 2.90018,-1.94342 4.6044,-2.55634 -0.37373,4.35026 -4.5446,8.47628 -3.84198,12.692 1.76402,2.19756 2.94502,3.45331 5.48641,4.41006 0.56808,-4.41006 1.07636,-8.83507 1.73413,-13.23018 2.22745,0.37373 4.26057,-0.53818 4.18582,2.69088 0.29899,3.6028 0.50828,7.1757 1.33049,10.70375 1.16605,-4.57451 1.49494,-9.25366 2.4218,-13.87301 4.15592,-2.67594 4.33532,6.05449 5.14258,8.31184 0.0299,1.181 0.73252,2.03312 2.09291,2.5713 0.29899,-5.69571 0.1196,-11.37647 0.70262,-17.07218 3.85694,4.05128 2.67594,10.30011 2.67594,15.42775 -0.37374,2.88522 -0.26909,8.31184 -4.35027,8.25204 -1.59958,-1.73412 -2.93007,-3.61774 -4.29046,-5.53126 -0.47838,1.64443 -0.97171,3.28886 -1.49494,4.91834 -1.88362,3.87188 -5.03793,1.79392 -6.56277,-1.07636 -1.77897,1.2109 -2.87028,2.5713 -5.27712,2.03312 -3.49815,-1.1511 -6.09934,-5.50137 -8.07266,-8.41649 -0.16444,3.25896 -0.55313,6.48802 -1.03151,9.71708 -1.16605,-0.85211 -1.98826,-1.77897 -2.46664,-2.81048 -0.47838,-7.53448 -0.44848,-15.09885 -1.1511,-22.64828 z"
     fill="#515d66"
     id="path2006"
     style="fill:#808080;stroke-width:1.49494" />
  <path
     d="m 463.64987,486.99011 c 2.28725,0.80727 4.48481,1.45009 6.24883,3.22907 1.00161,2.48159 2.13776,5.20237 2.3919,7.89326 0.19434,3.07957 -1.62948,6.08439 -3.07957,8.70053 -3.37856,3.13936 -7.69892,3.79714 -11.98939,2.31715 -5.05288,-3.33371 -6.27873,-10.83829 -2.78058,-15.69683 2.19756,-3.4234 5.53126,-5.05289 9.20881,-6.44318 z"
     fill="#575c6a"
     id="path2010"
     style="fill:#808080;stroke-width:1.49494" />
  <path
     d="m 460.95898,492.35694 c 3.94663,-2.66099 7.07105,0.29898 8.04276,4.15592 1.62948,5.60601 -4.15592,12.12393 -9.88153,9.58254 -4.6343,-3.79714 -3.12442,-10.98778 1.83877,-13.73846 z"
     fill="#e526d6"
     id="path2012"
     style="fill:#ffffff;stroke-width:1.49494" />
  <path
     d="m 464.84582,495.34681 c -0.94181,1.40524 -1.88362,2.79553 -2.84038,4.18582 1.53978,0.40363 3.07957,0.80726 4.61935,1.2109 -2.58624,1.82382 -4.18582,2.03311 -7.34014,1.83877 -0.56807,-2.13776 -0.62787,-4.08118 -0.13454,-5.8452 1.62948,-2.60119 3.15432,-1.42019 5.69571,-1.39029 z"
     fill="#905093"
     id="path2014"
     style="fill:#808080;stroke-width:1.49494" />
  <path
     style="fill:#ffffff;stroke-width:0.140054"
     d="m 293.29689,212.80444 c -1.53134,-0.92946 -2.89589,-1.76812 -3.03233,-1.86369 -0.2249,-0.15753 -0.11722,-0.32328 1.15309,-1.77484 0.77064,-0.88059 1.73185,-1.9665 2.13603,-2.41312 l 0.73486,-0.81206 0.72906,0.77089 c 0.85433,0.90333 1.22857,1.6735 1.39127,2.86325 0.11186,0.8178 -0.0259,3.45264 -0.23314,4.45984 l -0.0946,0.45966 z"
     id="path2024" />
  <path
     style="fill:#ffffff;stroke-width:0.140054"
     d="m 285.29064,204.19782 c -0.38654,-0.38655 -0.43919,-0.91587 -0.17785,-1.78814 0.1549,-0.517 0.19382,-0.5482 0.58604,-0.46976 0.65659,0.13132 0.92868,0.46296 0.92868,1.1319 0,0.32321 -0.0691,0.78613 -0.15375,1.02871 -0.1928,0.55308 -0.68671,0.59369 -1.18312,0.0973 z"
     id="path2026" />
  <path
     style="fill:#ffffff;stroke-width:0.140054"
     d="m 306.11835,216.06102 c 0.0256,-0.0577 0.60825,-1.20491 1.29458,-2.54919 0.99109,-1.94118 1.41039,-2.61124 2.03764,-3.25625 0.79701,-0.81957 0.97549,-0.89359 1.96648,-0.81554 0.58044,0.0458 1.46558,0.60311 1.51578,0.95452 0.0249,0.17414 -0.0941,0.74042 -0.26455,1.25837 -0.87723,2.66674 -2.05202,3.80218 -4.46275,4.31321 -0.99607,0.21116 -2.16244,0.26417 -2.08718,0.0949 z"
     id="path2028" />
  <path
     style="fill:#ffffff;stroke-width:0.140054"
     d="m 313.09768,208.23969 c -0.50069,-0.10745 -1.54963,-0.32847 -2.33097,-0.49125 l -1.42063,-0.29594 0.88288,-2.02208 c 0.93875,-2.15 3.41137,-6.21076 3.58673,-5.89041 0.12582,0.22987 0.49922,2.16274 0.67734,3.50613 0.0799,0.60256 0.14525,2.06786 0.14525,3.25625 0,2.48487 0.14748,2.29942 -1.5406,1.9373 z"
     id="path2030" />
  <path
     style="fill:#ffffff;stroke-width:0.140054"
     d="m 319.29703,158.14877 c -1.61102,-1.5526 -1.73526,-2.09714 -0.98039,-4.297 0.51842,-1.51086 0.43018,-1.45104 2.38012,-1.61347 l 1.20495,-0.10033 0.21597,0.41763 c 0.3817,0.73814 0.5185,1.64498 0.35781,2.37197 -0.1616,0.73108 -1.81287,4.21297 -2.0049,4.22753 -0.066,0.005 -0.59408,-0.44783 -1.17356,-1.00629 z"
     id="path2032" />
  <path
     style="fill:#ffffff;stroke-width:0.140054"
     d="m 313.12929,166.48939 c -1.07185,-2.49159 -1.27059,-4.03627 -0.68121,-5.29446 0.6839,-1.45998 2.34262,-2.83958 3.17125,-2.63761 0.54768,0.13349 1.19409,0.67979 2.01017,1.69882 l 0.75182,0.93879 -0.0678,1.21305 -0.0677,1.21307 -0.50829,0.0951 c -1.276,0.23885 -2.63487,1.26485 -3.95689,2.98757 l -0.3583,0.46689 z"
     id="path2034" />
  <path
     style="fill:#ffffff;stroke-width:0.140054"
     d="m 325.43905,147.19756 c -0.28723,-1.1407 -0.12751,-3.12766 0.27122,-3.37408 0.22464,-0.13884 1.06809,0.46707 1.22687,0.88136 0.29297,0.76438 0.31777,1.01046 0.16063,1.59403 -0.1666,0.61868 -0.93456,1.52092 -1.29458,1.52092 -0.1286,0 -0.26702,-0.23652 -0.36414,-0.62223 z"
     id="path2036" />
  <path
     style="fill:#ffffff;stroke-width:0.140054"
     d="m 320.78855,142.78406 c -1.28,-0.3879 -2.05256,-1.82808 -1.51723,-2.82835 0.32911,-0.61493 1.88717,-0.88455 2.83152,-0.48998 0.24906,0.10406 0.65669,0.42138 0.90584,0.70514 1.26847,1.44471 -0.23529,3.2147 -2.22013,2.61319 z"
     id="path2038" />
  <path
     style="fill:#ffffff;stroke-width:0.140054"
     d="m 309.064,145.38983 c -0.87889,-0.89622 -1.39858,-1.55839 -1.6443,-2.09513 -0.43313,-0.9461 -0.668,-2.19749 -0.41244,-2.19749 0.0936,0 0.85624,-0.25826 1.69475,-0.57391 2.90245,-1.09259 4.11619,-1.15558 4.87564,-0.25302 0.1982,0.23554 0.36035,0.47532 0.36035,0.53283 0,0.1359 -1.67724,2.94138 -2.75079,4.60117 l -0.83819,1.29591 z"
     id="path2040" />
  <path
     style="fill:#ffffff;stroke-width:0.140054"
     d="m 302.93079,149.19498 c -0.99977,-0.75169 -3.41833,-3.11481 -3.41833,-3.33997 0,-0.14662 1.66549,-1.28161 2.80109,-1.90888 0.68611,-0.37899 2.51923,-1.16827 2.71334,-1.16827 0.10067,0 0.33514,0.86225 0.52047,1.91409 0.23965,1.36021 -0.18254,2.81864 -1.39143,4.8065 l -0.25776,0.42386 z"
     id="path2042" />
  <path
     style="fill:#ffffff;stroke-width:0.140054"
     d="m 291.21718,158.81402 c -0.51671,-0.34663 -0.97559,-0.63025 -1.01975,-0.63025 -0.0442,0 -0.21557,-0.12605 -0.38094,-0.2801 -0.16537,-0.15406 -0.38332,-0.28011 -0.48433,-0.28011 -0.10101,0 -0.18368,-0.0481 -0.18368,-0.107 0,-0.0589 -0.24485,-0.25832 -0.54413,-0.44327 -0.50977,-0.31507 -0.52967,-0.35192 -0.31512,-0.58384 0.12596,-0.13615 0.35446,-0.48813 0.50779,-0.78218 0.15332,-0.29406 0.31503,-0.56616 0.35937,-0.60468 0.0443,-0.0385 0.27987,-0.36294 0.52341,-0.72095 0.24353,-0.358 0.67717,-0.8622 0.96363,-1.12043 0.28647,-0.25823 0.78628,-0.72161 1.11068,-1.02972 0.57147,-0.54279 0.61593,-0.55876 1.42887,-0.51348 0.78759,0.0438 0.84238,0.0696 0.89343,0.42016 0.0782,0.53649 -0.25759,3.36497 -0.52197,4.39754 -0.23532,0.91915 -1.12213,2.90854 -1.29651,2.90854 -0.0557,0 -0.52404,-0.2836 -1.04075,-0.63023 z"
     id="path2044" />
  <path
     style="fill:#ffffff;stroke-width:0.140054"
     d="m 281.6382,168.11206 c -0.24065,-0.0679 -0.51649,-0.21851 -0.61297,-0.33476 -0.2689,-0.324 -0.0983,-1.47647 0.35607,-2.40528 0.39027,-0.79779 1.95143,-2.56647 2.26535,-2.56647 0.0871,0 0.35102,0.16217 0.58656,0.36036 0.56946,0.47917 0.77904,1.26373 0.58243,2.18044 -0.41072,1.91518 -1.82581,3.14689 -3.17744,2.76571 z"
     id="path2046" />
</svg>
