<?xml version="1.0" encoding="UTF-8" standalone="no"?>
<svg
   xmlns:dc="http://purl.org/dc/elements/1.1/"
   xmlns:cc="http://creativecommons.org/ns#"
   xmlns:rdf="http://www.w3.org/1999/02/22-rdf-syntax-ns#"
   xmlns:svg="http://www.w3.org/2000/svg"
   xmlns="http://www.w3.org/2000/svg"
   xmlns:sodipodi="http://sodipodi.sourceforge.net/DTD/sodipodi-0.dtd"
   xmlns:inkscape="http://www.inkscape.org/namespaces/inkscape"
   version="1.1"
   viewBox="0 0 1024 1024"
   width="1024.0px"
   height="1024.0px"
   id="svg258"
   sodipodi:docname="cendyne-says.svg"
   inkscape:version="1.0.2 (e86c8708, 2021-01-15)">
  <metadata
     id="metadata264">
    <rdf:RDF>
      <cc:Work
         rdf:about="">
        <dc:format>image/svg+xml</dc:format>
        <dc:type
           rdf:resource="http://purl.org/dc/dcmitype/StillImage" />
      </cc:Work>
    </rdf:RDF>
  </metadata>
  <defs
     id="defs262" />
  <sodipodi:namedview
     pagecolor="#ffffff"
     bordercolor="#666666"
     borderopacity="1"
     objecttolerance="10"
     gridtolerance="10"
     guidetolerance="10"
     inkscape:pageopacity="0"
     inkscape:pageshadow="2"
     inkscape:window-width="2144"
     inkscape:window-height="1231"
     id="namedview260"
     showgrid="false"
     inkscape:zoom="2.9167032"
     inkscape:cx="346.76346"
     inkscape:cy="249.20355"
     inkscape:window-x="363"
     inkscape:window-y="97"
     inkscape:window-maximized="0"
     inkscape:current-layer="svg258" />
  <path
     id="path198"
     d="M 784.03125 98.050781 C 779.76903 97.935828 775.21602 99.769922 771.40039 101.41992 C 762.33039 105.63992 753.97031 111.07984 745.82031 116.83984 C 734.00031 125.49984 722.64094 134.9107 712.21094 145.2207 C 710.51094 146.7207 708.60023 149.04047 706.24023 149.23047 C 701.57023 149.92047 696.7393 149.6507 692.0293 149.9707 C 691.3393 150.5907 690.66 151.23086 690 151.88086 C 695.08 152.01086 700.10016 151.31906 705.16016 151.28906 C 702.85016 155.39906 699.47945 157.78039 696.43945 161.40039 C 686.47945 172.95039 677.19961 185.56984 670.09961 199.08984 C 662.23961 215.39984 656.91039 233.14992 659.65039 251.41992 C 661.36039 264.59992 667.09063 276.96961 677.39062 285.59961 C 687.80062 294.11961 701.5493 298.89937 715.0293 298.10938 C 721.6093 297.92938 727.89086 296.00937 734.38086 294.35938 C 739.04086 293.14937 743.37977 291.1393 747.25977 288.2793 C 756.46977 281.5493 762.75063 271.99914 768.14062 262.11914 C 778.39062 242.51914 783.89977 221.09945 787.75977 199.43945 C 787.19977 199.55945 786.64961 199.68031 786.09961 199.82031 C 781.94961 220.66031 776.31914 242.34914 766.11914 261.11914 C 761.22914 269.58914 755.53078 278.67031 747.80078 284.82031 C 743.13078 288.20031 737.81938 292.00047 732.10938 293.23047 C 723.28937 295.42047 714.43078 297.50984 705.30078 295.83984 C 694.74078 293.99984 683.85055 289.46945 676.06055 281.93945 C 668.50055 274.11945 663.65977 263.51078 662.00977 252.80078 C 659.97977 242.36078 661.27977 231.14086 663.75977 220.88086 C 666.37977 210.85086 671.10055 201.99961 675.81055 192.84961 C 684.00055 178.93961 694.22938 166.07063 705.35938 154.39062 C 710.42937 148.42063 716.60906 143.69055 722.03906 138.06055 C 734.99906 126.57055 748.75 115.41922 763.75 106.69922 C 768.75 103.63922 773.83 101.02922 779.5 99.449219 C 781.46 98.929219 783.75023 98.579141 785.74023 99.119141 C 788.23023 100.37914 789.62063 103.12922 790.39062 105.69922 C 792.72062 114.51922 792.55047 122.98 792.48047 132 C 792.72047 149.28 791.39 166.62922 788.75 183.69922 C 789.56 182.83922 790.39055 182.00023 791.31055 181.24023 C 793.03055 181.90023 794.4 183.02023 795.75 184.24023 C 806.42 194.54023 815.43938 206.36961 822.60938 219.34961 C 835.94938 243.69961 842.23945 270.7407 844.68945 298.2207 C 845.43945 309.0507 845.17047 320.13 845.23047 331 C 845.30047 341.95 844.15937 353.00914 842.85938 363.86914 C 839.67937 391.64914 833.69086 418.45063 826.38086 445.39062 C 824.55086 451.81062 823.69953 458.37023 823.01953 464.99023 C 820.98953 482.17023 818.91961 499.38086 817.59961 516.63086 C 816.39961 532.72086 815.04914 548.85 814.86914 565 C 814.24914 579.98 814.67906 595 814.53906 610 C 814.82906 623.32 815.08953 636.60016 815.76953 649.91016 C 810.81953 649.76016 806.00906 648.29078 801.03906 648.05078 C 795.18906 647.74078 789.24969 647.72094 783.42969 648.46094 C 770.55969 650.38094 758.17984 653.14055 746.83984 659.81055 C 741.01984 663.37055 735.45961 666.62023 731.09961 671.99023 C 735.37961 669.32023 739.29094 666.1707 743.71094 663.7207 C 756.13094 656.4507 769.83078 652.7193 784.05078 651.0293 C 807.22078 647.5993 831.52023 656.41023 847.24023 673.74023 C 853.63023 682.09023 859.41086 690.18938 861.88086 700.60938 C 865.32086 712.05937 864.67039 724.20922 863.40039 735.94922 C 864.60039 732.88922 865.54984 729.71094 866.83984 726.71094 C 870.34984 730.02094 873.34914 733.99953 876.36914 737.76953 C 885.42914 748.22953 893.10945 759.97008 900.18945 771.83008 C 904.12945 778.22008 907.01023 785.07984 910.24023 791.83984 C 917.06023 806.26984 921.70914 821.50031 925.11914 837.07031 C 928.04914 849.26031 929.76977 861.76 930.75977 874.25 C 931.50977 883.17 932.45922 892.03 932.19922 901 C 931.98922 908.02 932.63086 915.81961 930.63086 922.59961 C 926.18086 923.29961 921.5 922.89922 917 922.94922 C 863.67 922.92922 810.33 922.94945 757 922.93945 C 751.65 922.91945 746.23016 923.12953 740.91016 922.76953 C 743.74016 919.46953 747.44 916.6193 750.75 913.7793 C 766.16 900.7793 782.78 889.32953 800.25 879.26953 C 802.25 878.18953 804.47047 876.88906 806.73047 876.53906 C 808.88047 877.82906 810.71984 879.74039 812.58984 881.40039 C 818.23984 886.51039 823.71992 891.22 830.91992 894 C 825.30992 888.88 819 884.80047 814 878.98047 C 803.59 868.64047 795.28969 856.44953 788.42969 843.51953 C 782.49969 832.22953 777.87937 820.31938 775.10938 807.85938 C 773.70937 802.27938 773.36031 797.1993 771.32031 792.0293 C 768.71031 796.7993 767.25969 801.96047 764.67969 806.73047 C 761.73969 812.03047 758.64078 817.09039 754.05078 821.15039 C 751.57078 825.49039 748.18094 828.97906 744.71094 832.53906 C 746.56094 832.12906 748.22063 832.08039 749.64062 830.65039 C 754.33063 826.37039 758.11922 820.99922 761.94922 815.94922 C 765.49922 811.30922 767.64937 805.9993 770.60938 801.0293 C 772.39937 809.4393 774.15094 817.75055 777.21094 825.81055 C 778.13094 828.42055 779.41047 831.13063 779.73047 833.89062 C 778.36047 837.57062 775.16984 840.71938 772.83984 843.85938 C 760.91984 859.26937 749.34039 874.86945 736.65039 889.68945 C 734.49039 892.50945 731.36961 896.05008 733.09961 899.83008 C 735.59961 906.33008 740.91023 908.79906 744.99023 913.78906 C 742.17023 916.89906 739.07023 920.18039 735.49023 922.40039 C 732.29023 923.36039 728.56047 922.94977 725.23047 923.00977 C 721.23047 923.03977 717.2207 923.06055 713.2207 923.06055 C 653.1607 923.26055 593.05047 923.06016 532.98047 923.16016 C 530.14047 922.92016 526.82922 923.67906 524.94922 921.03906 C 515.61922 910.42906 507.52961 898.58063 500.84961 886.14062 C 495.26961 875.08062 490.85914 863.56 487.11914 851.75 C 483.50914 840.9 481.5593 830.06938 479.5293 818.85938 C 479.1493 816.47937 478.76945 814.10922 478.68945 811.69922 C 484.68945 815.77922 489.46023 820.7593 496.49023 823.5293 C 504.27023 826.5393 511.70039 829.28016 520.15039 829.41016 C 525.72039 829.46016 531.05016 829.75094 536.41016 828.46094 C 527.26016 828.62094 518.58945 828.91078 509.68945 826.30078 C 501.54945 823.72078 493.87992 821.35008 487.16992 815.83008 C 476.81992 808.45008 469.40094 797.73031 465.21094 785.82031 C 459.83094 769.73031 459.42945 751.51945 463.93945 735.18945 C 465.88945 724.49945 470.21086 714.76992 475.13086 705.16992 C 478.86086 697.32992 484.03953 690.61922 489.51953 683.94922 L 488.63086 682.40039 C 486.69086 683.95039 485.27008 685.83938 483.83008 687.85938 C 479.53008 694.01938 475.59055 700.44008 472.06055 707.08008 C 468.47055 713.91008 466.14086 721.08063 463.13086 728.14062 C 462.78086 729.00063 462.39047 729.84945 461.98047 730.68945 C 458.71047 724.41945 456.90906 717.51063 453.78906 711.14062 C 451.65906 706.08063 448.27078 701.31906 446.80078 696.03906 C 449.16078 691.56906 454.50094 689.80078 455.96094 685.05078 C 457.51094 680.59078 459.20023 676.38922 462.24023 672.69922 C 468.89023 663.80922 476.67086 655.17086 485.88086 648.88086 C 494.88086 642.66086 505.83055 637.82953 516.81055 637.01953 C 514.72055 642.61953 510.86937 647.21 509.10938 653 C 512.85938 648.04 515.62039 642.21086 518.90039 636.88086 C 525.23039 625.93086 531.69 615.07 538.25 604.25 C 550.76 584.39 564.32078 565.16078 578.30078 546.30078 C 593.87078 524.59078 612.75016 504.52039 630.66016 484.65039 C 635.77016 480.04039 639.80086 474.33977 645.13086 470.00977 C 642.91086 476.05977 638.60008 481.65984 635.08008 487.08984 C 617.31008 512.54984 598.42937 537.27914 580.85938 562.86914 C 570.11938 579.77914 558.72953 597.06055 550.01953 615.06055 C 546.42953 622.12055 543.38031 629.4393 541.07031 637.0293 C 539.69031 642.0093 537.33922 645.97906 538.69922 651.28906 C 543.42922 637.18906 548.25055 623.64008 555.56055 610.58008 C 563.23055 596.14008 571.89016 582.39016 580.66016 568.66016 C 598.63016 541.59016 618.66 515.89 637.25 489.25 C 644.26 479.19 650.12031 468.50992 655.32031 457.41992 C 658.12031 450.91992 661.03031 443.09945 660.32031 435.93945 C 660.02031 432.61945 658.11063 430.4893 656.14062 428.0293 C 662.07063 426.1793 668.13961 424.80078 674.09961 423.05078 C 687.15961 419.42078 700.40984 418.01055 713.83984 416.56055 C 723.07984 415.29055 732.32953 414.03992 741.51953 412.41992 C 747.75953 411.35992 753.99047 409.03016 759.98047 406.91016 C 772.89047 401.69016 785.00961 393.04039 791.09961 380.15039 C 796.47961 370.15039 800.12039 359.45953 800.40039 348.01953 C 799.22039 352.61953 798.57906 357.4793 797.03906 362.0293 C 794.95906 368.6293 791.65953 374.27047 788.26953 380.23047 C 785.81953 384.64047 782.57953 388.45977 779.01953 392.00977 C 769.13953 401.32977 757.12945 405.80914 744.18945 409.11914 C 726.92945 412.58914 709.72008 414.11094 692.33008 416.46094 C 674.11008 419.00094 656.18977 426.22094 638.00977 429.21094 C 624.43977 430.73094 610.75086 427.44086 598.63086 421.38086 C 583.29086 413.94086 569.90906 404.01945 557.03906 392.93945 C 552.80906 389.10945 548.49086 385.4407 544.63086 381.2207 C 541.99086 378.7307 539.34906 376.22063 536.78906 373.64062 C 533.45906 370.19062 530.81914 365.96016 527.86914 362.16016 C 521.63914 353.90016 515.78961 344.66016 514.59961 334.16016 C 513.45961 326.12016 516.87008 318.16008 522.58008 312.58008 C 532.61008 302.35008 546.98008 296.24078 560.08008 291.05078 C 580.84008 283.11078 602.33914 277.31953 624.36914 274.26953 C 630.58914 273.37953 636.86961 273.27078 643.09961 272.55078 C 642.37961 272.29078 641.65945 272.11906 640.93945 272.03906 C 632.95945 271.99906 625.03031 273.98945 617.07031 273.93945 C 617.25031 267.58945 619.30977 261.33023 620.00977 254.99023 C 621.67977 244.20023 620.89008 233.87 621.08008 223 C 621.19008 213.03 620.10977 202.92039 619.25977 192.90039 C 618.90977 188.31039 617.90094 183.67031 617.96094 179.07031 C 617.90094 177.16031 619.30914 176.58984 620.61914 175.58984 C 625.35914 172.59984 630.33031 169.95039 635.32031 167.40039 C 637.20031 166.50039 638.58 165.06984 640 163.58984 C 631.9 166.90984 624.54039 171.27039 617.15039 175.90039 C 615.26039 163.83039 613.43008 152.13016 609.58008 140.41016 C 608.18008 136.43016 606.30031 131.67063 602.32031 129.64062 C 599.39031 128.12063 596.2393 130.1593 594.0293 132.0293 C 591.1793 134.8793 589.15961 138.64008 587.09961 142.08008 C 578.46961 158.25008 572.82922 176.68969 568.44922 194.42969 C 563.28922 216.35969 560.07031 238.42 561.07031 261 C 560.89031 269.84 562.87953 278.21922 565.01953 286.69922 C 550.87953 292.19922 536.91047 297.16047 524.73047 306.73047 C 517.36047 312.54047 512.06914 320.62039 511.36914 330.15039 C 511.63914 337.92039 513.91078 345.49094 517.80078 352.21094 C 523.57078 362.77094 532.02992 372.02008 540.16992 380.83008 C 555.12992 396.04008 571.28969 409.57008 589.92969 420.08008 C 602.93969 427.53008 616.81 432.63094 632 432.46094 C 639.03 432.61094 645.40945 430.58922 652.18945 429.19922 C 654.08945 428.56922 655.23961 430.53094 656.34961 431.71094 C 658.84961 435.12094 657.94055 440.18953 657.06055 444.01953 C 655.56055 449.71953 653.47008 455.43984 650.58008 460.58984 C 647.95008 463.86984 644.24914 466.27086 641.36914 469.38086 C 629.10914 481.78086 617.55016 494.92992 605.91016 507.91992 C 596.02016 519.10992 586.43031 530.55031 577.57031 542.57031 C 562.04031 564.06031 546.09031 585.84078 532.82031 608.80078 C 529.17031 615.46078 525.34953 622.04023 521.76953 628.74023 C 520.83953 630.44023 519.87992 632.23 518.66992 633.75 C 514.12992 634.59 509.6307 634.77008 505.2207 636.33008 C 481.4907 643.76008 462.4107 663.39922 453.2207 686.19922 C 451.4207 689.33922 448.14008 691.79953 445.33008 694.01953 C 439.14008 682.90953 432.83969 672.01055 425.17969 661.81055 C 423.07969 658.93055 420.7707 656.1093 418.9707 653.0293 C 428.8907 634.5793 431.48922 612.67 430.94922 592 C 430.74922 581.76 431.17094 572.1 428.96094 562 C 425.75094 547.16 422.31945 532.94063 414.68945 519.64062 C 414.87945 524.99062 417.61023 528.89055 419.24023 533.81055 C 422.40023 542.72055 424.1893 551.81078 426.0293 561.05078 C 428.3393 573.47078 428.06086 585.44906 427.88086 598.03906 C 427.32086 608.79906 426.58039 619.36937 423.90039 629.85938 C 422.28039 635.95937 421.06047 642.68031 418.23047 648.32031 C 417.50047 649.87031 416.66063 651.43078 416.14062 653.05078 C 417.15062 656.14078 419.63922 658.8493 421.44922 661.5293 C 431.03922 674.7193 439.29063 688.91984 446.39062 703.58984 C 451.76062 713.87984 455.72984 724.60906 459.58984 735.53906 C 460.93984 739.30906 460.03055 742.63094 459.56055 746.46094 C 458.83055 751.36094 459.16984 756.06023 459.08984 760.99023 C 458.44984 776.98023 464.11031 792.66945 473.57031 805.43945 C 475.64031 808.13945 476.24086 811.23906 476.63086 814.53906 C 477.93086 825.52906 479.78031 836.60953 482.82031 847.26953 C 483.38031 849.37953 484.01078 851.64008 484.05078 853.83008 C 483.08078 855.72008 481.17055 857.23984 479.56055 858.58984 C 470.76055 865.70984 461.21938 872.01914 451.10938 877.11914 C 447.61938 878.89914 443.97 880.15055 440 880.06055 C 433.6 880.18055 427.70937 877.22039 423.35938 872.65039 C 416.99937 865.86039 411.70086 858.09047 405.38086 851.23047 C 405.34086 852.53047 405.35078 853.83063 405.30078 855.14062 C 398.54078 853.23063 392.14016 849.9493 385.66016 847.2793 C 373.84016 841.6993 362.13016 835.78008 350.91016 829.08008 C 341.71016 823.07008 332.89953 816.41922 324.01953 809.94922 C 315.82953 802.88922 306.14008 800.23969 296.08008 796.92969 C 281.39008 792.01969 266.49961 788.56039 251.59961 784.40039 C 238.51961 780.90039 225.84031 776.26953 213.57031 770.51953 C 205.94031 767.35953 198.97086 763.07078 191.63086 759.30078 C 183.30086 754.31078 175.65937 748.05062 168.60938 741.39062 C 158.98937 731.96063 152.01047 720.84023 146.23047 708.74023 C 140.99047 699.16023 138.52078 689.00969 135.30078 678.67969 C 133.12078 671.48969 130.91031 664.45922 130.07031 656.94922 C 129.26031 649.73922 128.25039 642.2207 128.90039 634.9707 C 129.23039 631.0007 131.96078 625.89937 136.30078 625.35938 C 141.68078 624.48938 147.60906 625.31086 153.03906 625.63086 C 166.97906 626.24086 180.96937 627.04078 194.85938 628.30078 C 199.11938 628.48078 200.07906 633.35047 201.53906 636.48047 C 206.78906 651.28047 212.53914 665.07039 222.86914 677.15039 C 227.08914 681.90039 232.49906 684.16953 238.03906 687.01953 C 241.26906 688.66953 244.53906 689.89961 248.03906 690.84961 C 241.55906 686.97961 234.80039 683.92937 228.90039 679.10938 C 222.52039 674.28937 218.79 667.98977 214.75 661.25977 C 208.85 651.58977 206.26953 639.58922 201.51953 629.44922 C 199.74953 625.99922 196.5993 625.34078 193.0293 625.05078 C 180.6893 624.19078 168.33094 623.24086 155.96094 622.88086 C 149.31094 622.64086 142.00945 621.40984 135.43945 622.58984 C 130.60945 623.54984 127.85078 628.06094 126.55078 632.46094 C 124.81078 639.20094 126.73039 647.24969 126.90039 654.17969 C 123.46039 648.46969 121.44945 641.80047 119.43945 635.48047 C 115.74945 622.06047 112.05969 607.89023 111.17969 593.99023 C 110.76969 582.56023 110.72039 570.99992 113.90039 559.91992 C 114.60039 557.59992 115.52078 554.89992 117.30078 553.16992 C 119.71078 552.57992 122.46016 552.85938 124.91016 553.10938 C 152.51016 556.52938 180.20055 565.08906 206.31055 574.53906 C 208.52055 575.44906 210.65031 575.96031 211.32031 578.57031 C 212.68031 583.95031 212.51906 589.60023 214.03906 594.99023 C 216.17906 604.20023 220.68031 611.96094 224.57031 620.46094 C 226.78031 625.12094 230.85016 628.71055 234.16016 632.81055 C 239.25016 638.89055 244.19945 644.38977 251.93945 647.00977 C 247.79945 643.06977 242.97992 640.18938 239.16992 635.85938 C 233.67992 629.68938 228.29008 623.86969 224.58008 616.42969 C 220.97008 608.96969 218.11984 600.72086 216.33984 592.63086 C 215.16984 587.75086 215.15055 582.36094 213.31055 577.71094 C 212.43055 575.40094 210.05 574.94078 208 574.05078 C 202.16 571.98078 196.75008 569.01086 190.83008 567.13086 C 170.95008 560.44086 150.32055 554.6007 129.56055 551.4707 C 125.59055 550.9207 120.77938 549.68055 116.85938 550.81055 C 113.92937 551.65055 112.98047 554.44953 111.98047 557.01953 C 109.59047 564.03953 108.44008 571.56094 108.08008 578.96094 C 107.68008 588.21094 107.89047 597.42055 109.48047 606.56055 C 110.25047 611.65055 111.67 616.80016 112 621.91016 C 105.55 620.27016 99.500469 617.0293 93.230469 614.7793 C 76.880469 607.9893 60.299219 601.75 43.949219 595 C 39.899219 593.1 34.549766 590.87906 32.009766 587.03906 C 29.559766 582.11906 30.230078 575.29922 30.580078 569.94922 C 31.710078 550.12922 35.319063 530.07055 41.039062 511.06055 C 43.629063 502.96055 47.240156 493.52062 54.160156 488.14062 C 57.910156 484.83062 63.810313 485.76937 68.320312 486.60938 C 79.660312 489.24937 90.830625 494.06961 101.64062 498.34961 C 108.97062 501.24961 116.13008 504.52047 123.33008 507.73047 C 139.37008 514.55047 154.74016 522.97961 170.41016 530.59961 C 191.30016 541.52961 211.67922 553.24984 232.19922 564.83984 C 234.37922 566.05984 236.65977 567.06945 239.00977 567.93945 C 235.04977 564.59945 230.57039 562.45008 226.15039 559.83008 C 206.10039 548.07008 186.13937 536.24984 165.60938 525.33984 C 154.52938 519.21984 143.22992 513.40953 131.66992 508.26953 C 115.21992 500.45953 98.530313 492.76023 81.320312 486.74023 C 77.790313 485.48023 73.950313 484.79086 70.820312 482.88086 C 71.570312 478.70086 73.279609 474.60031 74.599609 470.57031 C 76.749609 464.13031 78.86 457.68031 81.25 451.32031 C 84.42 442.35031 88.819219 433.76094 93.449219 425.46094 C 95.469219 422.13094 97.570937 418.09922 100.71094 415.69922 C 102.48094 414.32922 104.62086 414.89906 106.63086 415.28906 C 113.21086 416.93906 119.69992 420.34078 125.91992 423.05078 C 133.49992 426.26078 140.35094 430.66961 147.71094 434.34961 C 170.85094 447.10961 192.94914 462.08086 214.11914 477.88086 C 233.65914 492.42086 253.02023 507.5893 271.24023 523.7793 C 275.65023 527.5793 279.35023 532.11039 283.74023 535.90039 C 284.63023 529.85039 285.51086 523.9193 285.38086 517.7793 C 285.28086 511.6593 286.69023 505.83906 287.49023 499.53906 C 291.22023 472.88906 295.02 446.24078 298.5 419.55078 C 300.39 405.35078 301.32008 390.93961 303.83008 376.84961 C 304.75008 372.53961 305.71945 367.31047 309.68945 364.73047 C 314.87945 361.35047 321.98 360.77094 328 360.71094 C 339.66 360.44094 351.54961 362.31984 362.84961 365.08984 C 374.37961 367.91984 385.62961 372.41063 394.59961 380.39062 C 401.14961 386.18062 405.21023 393.85906 407.99023 402.03906 C 410.54023 409.58906 410.0607 418.09953 409.9707 426.01953 C 408.9607 447.99953 405.74953 470.02047 404.26953 491.98047 C 404.04953 497.33047 403.69992 503.75031 406.41992 508.57031 C 407.29992 510.40031 408.8693 511.29078 410.5293 512.30078 C 409.4093 509.56078 407.77922 506.82039 407.19922 503.90039 C 406.53922 499.27039 406.72023 494.63047 406.99023 489.98047 C 408.57023 472.65047 410.56094 455.34977 411.96094 438.00977 C 412.79094 423.92977 414.55008 409.70992 408.58008 396.41992 C 404.71008 386.44992 397.34047 378.26953 388.23047 372.76953 C 377.90047 366.28953 365.19906 362.82922 353.28906 360.69922 C 342.22906 358.77922 331.55078 357.11031 320.30078 358.57031 C 315.35078 359.20031 309.80922 360.63922 305.94922 363.94922 C 303.33922 366.17922 302.24914 370.0893 301.36914 373.2793 C 299.82914 379.4193 299.06023 385.76906 298.24023 392.03906 C 295.03023 424.08906 290.52023 456.10906 286.24023 488.03906 C 285.08023 497.33906 283.91039 506.6307 283.15039 515.9707 C 282.93039 521.2007 282.67945 526.30977 281.93945 531.50977 C 279.89945 529.68977 278.18086 527.62008 276.38086 525.58008 C 265.76086 514.10008 254.01914 504.94063 241.86914 495.14062 C 210.10914 469.95062 176.27977 445.47977 140.25977 426.75977 C 130.55977 421.76977 121.07047 416.98937 110.73047 413.35938 C 107.58047 412.33938 103.65969 411.11914 100.42969 412.36914 C 97.269687 414.29914 94.949922 417.87039 92.919922 420.90039 C 87.039922 430.51039 81.939453 440.53992 78.189453 451.16992 C 74.619453 460.76992 71.640781 470.5993 68.300781 480.2793 C 68.050781 481.1493 67.630781 481.85992 67.050781 482.41992 C 63.010781 482.51992 57.620703 481.92945 53.970703 483.93945 C 48.660703 487.55945 44.549609 493.20937 42.099609 499.10938 C 37.089609 510.99937 34.230937 523.11094 31.710938 535.71094 C 29.010938 549.58094 27.059297 563.85 27.279297 578 C 27.439297 581.57 27.780547 586.03922 30.060547 588.94922 C 32.530547 592.61922 37.559453 594.68906 41.439453 596.53906 C 63.409453 605.96906 85.660859 614.68938 108.13086 622.85938 C 109.75086 623.47937 111.52094 624.0493 112.96094 625.0293 C 114.20094 627.3693 114.56937 630.21047 115.35938 632.73047 C 118.43937 644.60047 123.43984 655.38969 128.58984 666.42969 C 132.26984 678.10969 135.3307 690.03055 139.4707 701.56055 C 142.5407 708.28055 145.84063 715.00961 149.64062 721.34961 C 154.16063 729.42961 160.3707 736.5993 166.7207 743.2793 C 175.3007 752.1193 185.32039 760.10961 196.40039 765.59961 C 206.04039 771.01961 216.04914 775.67039 226.36914 779.65039 C 245.39914 787.40039 266.66953 791.32023 286.51953 797.49023 C 294.84953 800.16023 303.69977 802.54094 311.50977 806.46094 C 314.68977 808.00094 317.98055 808.95969 320.81055 811.17969 C 328.83055 817.19969 337.04 822.98023 345.25 828.74023 C 352.92 834.23023 362.15039 838.26961 370.65039 842.34961 C 381.01039 847.31961 391.52969 851.88906 402.42969 855.53906 C 404.95969 856.47906 407.81953 857.20094 409.51953 859.46094 C 413.44953 864.51094 417.2393 869.74047 421.5293 874.48047 C 426.9993 879.88047 434.89922 883.57977 442.69922 882.50977 C 447.98922 881.89977 452.28992 879.34039 456.91992 876.90039 C 463.17992 873.32039 469.55031 869.61906 475.32031 865.28906 C 478.90031 862.67906 482.06922 859.5007 485.69922 856.9707 C 490.29922 870.6507 495.56953 884.4407 503.26953 896.7207 C 509.58953 906.9507 516.78062 917.32094 525.14062 925.96094 C 587.50063 925.71094 650.56 925.97008 713 925.83008 C 719 925.59008 725 925.76937 731 925.85938 C 795.33 925.84938 859.67 925.86961 924 925.84961 C 926.88 925.81961 929.75086 926.10063 932.63086 926.14062 C 934.76086 911.28062 935.62063 896.01078 934.14062 881.05078 C 933.00063 867.70078 931.60023 854.24063 928.74023 841.14062 C 925.04023 824.96063 920.68914 809.30914 913.86914 794.11914 C 909.63914 784.84914 905.34094 775.7093 899.96094 767.0293 C 891.74094 754.0493 883.09906 741.62922 872.78906 730.19922 C 870.90906 728.04922 868.73031 726.09906 867.07031 723.78906 C 866.82031 720.53906 867.54992 717.26023 867.41992 713.99023 C 867.16992 706.35023 865.28008 698.69039 862.33008 691.65039 C 860.10008 686.11039 856.39953 680.91023 853.01953 675.99023 C 844.25953 664.30023 832.03008 656.26094 818.33008 651.46094 C 817.71008 649.44094 817.88055 647.10953 817.81055 645.01953 C 817.76055 634.66953 817.33094 624.35 817.21094 614 C 816.98094 569.77 819.42969 525.4693 824.42969 481.5293 C 826.08969 469.1993 826.40008 455.98039 830.08008 444.15039 C 840.83008 403.89039 848.44992 363.83977 848.66992 322.00977 C 848.21992 313.66977 848.11992 305.3107 847.66992 296.9707 C 846.46992 284.7207 844.64922 272.43906 841.44922 260.53906 C 835.59922 236.83906 824.75063 213.71914 809.14062 194.86914 C 803.72063 188.15914 797.24914 182.62086 791.11914 176.63086 C 792.41914 162.41086 793.34992 148.33906 793.66992 134.03906 C 793.15992 123.80906 793.8393 113.24016 790.5293 103.41016 C 789.6093 100.87016 787.74086 98.439609 784.88086 98.099609 C 784.59961 98.073984 784.3154 98.058445 784.03125 98.050781 z M 781.33984 836.71094 C 783.58984 840.54094 785.28953 844.65 787.51953 848.5 C 792.42953 857.49 798.43047 865.75078 804.73047 873.80078 C 802.68047 875.10078 800.37094 876.12047 798.21094 877.23047 C 783.89094 884.71047 770.60953 893.9993 757.76953 903.7793 C 754.20953 906.4093 750.94906 909.5007 747.28906 911.9707 C 744.76906 909.7407 742.48984 907.25039 740.08984 904.90039 C 737.99984 902.72039 735.53047 900.31031 735.48047 897.07031 C 736.94047 893.52031 739.98992 890.36969 742.41992 887.42969 C 756.02992 871.10969 768.41984 853.59094 781.33984 836.71094 z " />
  <path
     d="M 785.74 99.12 C 788.23 100.38 789.62 103.13 790.39 105.70 C 792.72 114.52 792.55 122.98 792.48 132.00 C 792.72 149.28 791.39 166.63 788.75 183.70 C 787.84 189.07 787.08 194.47 786.10 199.82 C 781.95 220.66 776.32 242.35 766.12 261.12 C 761.23 269.59 755.53 278.67 747.80 284.82 C 743.13 288.20 737.82 292.00 732.11 293.23 C 723.29 295.42 714.43 297.51 705.30 295.84 C 694.74 294.00 683.85 289.47 676.06 281.94 C 668.50 274.12 663.66 263.51 662.01 252.80 C 659.98 242.36 661.28 231.14 663.76 220.88 C 666.38 210.85 671.10 202.00 675.81 192.85 C 684.00 178.94 694.23 166.07 705.36 154.39 C 710.43 148.42 716.61 143.69 722.04 138.06 C 735.00 126.57 748.75 115.42 763.75 106.70 C 768.75 103.64 773.83 101.03 779.50 99.45 C 781.46 98.93 783.75 98.58 785.74 99.12 Z"
     fill="#dfb32e"
     id="path200" />
  <path
     d="M 602.73 132.24 C 606.95 135.95 608.35 143.03 609.96 148.23 C 616.89 176.50 619.79 205.92 619.51 235.00 C 619.86 246.18 618.42 257.21 616.30 268.16 C 615.86 270.26 615.36 272.50 614.44 274.44 C 609.03 275.89 603.40 276.50 597.95 277.85 C 598.61 275.74 599.22 273.61 599.69 271.45 C 603.38 264.55 603.44 257.03 602.30 249.45 C 601.71 246.61 600.51 243.65 598.54 241.47 C 595.85 239.28 592.06 239.24 589.21 241.23 C 579.69 248.06 574.23 259.52 573.46 271.06 C 573.20 273.38 574.34 274.83 575.66 276.56 C 577.08 278.56 578.68 280.40 580.28 282.26 C 575.90 283.38 571.63 285.31 567.16 285.97 C 564.80 281.23 564.10 275.41 563.47 270.19 C 562.08 259.40 562.29 248.51 563.35 237.69 C 564.61 222.95 566.92 208.20 570.74 193.90 C 574.66 177.22 580.13 161.01 587.58 145.56 C 589.90 141.46 592.19 136.90 595.54 133.53 C 597.40 131.83 600.54 130.06 602.73 132.24 Z"
     fill="#dfb32e"
     id="path202" />
  <path
     d="M 692.03 149.97 C 691.34 150.59 690.66 151.23 690.00 151.88 C 695.08 152.01 700.10 151.32 705.16 151.29 C 702.85 155.40 699.48 157.78 696.44 161.40 C 686.48 172.95 677.20 185.57 670.10 199.09 C 662.24 215.40 656.91 233.15 659.65 251.42 C 661.36 264.60 667.09 276.97 677.39 285.60 C 687.80 294.12 701.55 298.90 715.03 298.11 C 721.61 297.93 727.89 296.01 734.38 294.36 C 739.04 293.15 743.38 291.14 747.26 288.28 C 756.47 281.55 762.75 272.00 768.14 262.12 C 778.39 242.52 783.90 221.10 787.76 199.44 C 787.20 199.56 786.65 199.68 786.10 199.82 C 787.08 194.47 787.84 189.07 788.75 183.70 C 789.56 182.84 790.39 182.00 791.31 181.24 C 793.03 181.90 794.40 183.02 795.75 184.24 C 806.42 194.54 815.44 206.37 822.61 219.35 C 835.95 243.70 842.24 270.74 844.69 298.22 C 845.44 309.05 845.17 320.13 845.23 331.00 C 845.30 341.95 844.16 353.01 842.86 363.87 C 839.68 391.65 833.69 418.45 826.38 445.39 C 824.55 451.81 823.70 458.37 823.02 464.99 C 820.99 482.17 818.92 499.38 817.60 516.63 C 816.40 532.72 815.05 548.85 814.87 565.00 C 814.25 579.98 814.68 595.00 814.54 610.00 C 814.83 623.32 815.09 636.60 815.77 649.91 C 810.82 649.76 806.01 648.29 801.04 648.05 C 795.19 647.74 789.25 647.72 783.43 648.46 C 770.56 650.38 758.18 653.14 746.84 659.81 C 741.02 663.37 735.46 666.62 731.10 671.99 C 735.38 669.32 739.29 666.17 743.71 663.72 C 756.13 656.45 769.83 652.72 784.05 651.03 C 807.22 647.60 831.52 656.41 847.24 673.74 C 853.63 682.09 859.41 690.19 861.88 700.61 C 858.15 705.75 855.62 711.49 853.45 717.43 C 850.55 725.57 847.47 733.63 844.87 741.87 C 839.86 758.69 833.41 776.21 830.07 794.08 C 828.58 801.91 826.75 808.90 829.11 816.84 C 831.31 825.59 837.60 831.33 844.78 836.23 C 851.35 840.50 858.29 844.23 865.33 847.67 C 881.21 855.82 897.64 862.89 914.02 869.97 C 919.57 872.40 924.72 873.72 930.76 874.25 C 931.51 883.17 932.46 892.03 932.20 901.00 C 931.99 908.02 932.63 915.82 930.63 922.60 C 926.18 923.30 921.50 922.90 917.00 922.95 C 863.67 922.93 810.33 922.95 757.00 922.94 C 751.65 922.92 746.23 923.13 740.91 922.77 C 743.74 919.47 747.44 916.62 750.75 913.78 C 766.16 900.78 782.78 889.33 800.25 879.27 C 802.25 878.19 804.47 876.89 806.73 876.54 C 808.88 877.83 810.72 879.74 812.59 881.40 C 818.24 886.51 823.72 891.22 830.92 894.00 C 825.31 888.88 819.00 884.80 814.00 878.98 C 803.59 868.64 795.29 856.45 788.43 843.52 C 782.50 832.23 777.88 820.32 775.11 807.86 C 773.71 802.28 773.36 797.20 771.32 792.03 C 768.71 796.80 767.26 801.96 764.68 806.73 C 761.74 812.03 758.64 817.09 754.05 821.15 C 755.88 812.20 758.64 803.61 759.57 794.48 C 760.35 786.03 761.33 777.44 760.99 768.96 C 760.11 752.74 757.60 737.10 750.73 722.25 C 747.70 715.98 744.90 709.84 740.88 704.13 C 737.47 699.22 734.43 693.96 730.64 689.38 C 726.83 684.67 722.32 679.91 719.41 674.59 C 716.39 669.27 715.79 662.83 715.43 656.82 C 715.47 651.46 717.43 646.03 718.67 640.84 C 718.95 641.49 719.23 642.14 719.52 642.78 C 725.58 623.47 732.73 604.42 740.95 585.93 C 746.24 573.55 752.71 561.69 758.62 549.59 C 767.86 532.54 777.46 515.47 788.58 499.55 C 790.24 497.13 791.73 494.60 792.99 491.94 C 787.84 497.21 783.98 503.84 779.94 509.97 C 771.55 522.84 763.90 536.16 756.70 549.73 C 752.46 557.78 748.76 566.23 743.84 573.89 C 751.28 555.40 760.12 537.40 768.29 519.22 C 775.68 502.71 783.47 486.41 790.94 469.94 C 799.21 451.89 807.84 433.79 815.56 415.51 C 819.57 406.39 822.96 396.97 826.87 387.82 C 831.56 377.57 833.90 366.09 834.86 354.91 C 835.19 348.37 835.37 341.74 833.77 335.35 C 831.87 327.67 829.27 320.08 824.05 313.98 C 817.09 305.20 806.74 300.11 795.89 298.06 C 780.00 294.94 763.95 297.32 748.90 302.88 C 733.62 308.71 721.01 318.09 708.92 328.89 C 704.16 332.62 700.38 337.10 696.51 341.71 C 691.79 343.44 688.84 347.09 684.64 349.63 C 679.55 352.74 674.03 354.83 668.26 356.26 C 650.63 360.54 633.21 361.10 615.45 364.58 C 610.62 365.56 605.29 366.00 600.77 368.00 L 600.78 369.44 C 597.25 370.41 593.49 371.25 590.11 372.63 C 591.65 374.18 593.31 375.60 594.84 377.17 C 592.68 376.29 590.43 374.44 588.13 374.20 C 580.39 374.94 572.81 377.36 565.04 377.92 C 559.30 378.22 553.38 377.58 547.83 376.07 C 544.22 375.11 540.88 373.35 537.30 372.37 L 536.79 373.64 C 533.46 370.19 530.82 365.96 527.87 362.16 C 521.64 353.90 515.79 344.66 514.60 334.16 C 513.46 326.12 516.87 318.16 522.58 312.58 C 532.61 302.35 546.98 296.24 560.08 291.05 C 580.84 283.11 602.34 277.32 624.37 274.27 C 630.59 273.38 636.87 273.27 643.10 272.55 C 642.38 272.29 641.66 272.12 640.94 272.04 C 632.96 272.00 625.03 273.99 617.07 273.94 C 617.25 267.59 619.31 261.33 620.01 254.99 C 621.68 244.20 620.89 233.87 621.08 223.00 C 621.19 213.03 620.11 202.92 619.26 192.90 C 618.91 188.31 617.90 183.67 617.96 179.07 C 617.90 177.16 619.31 176.59 620.62 175.59 C 625.36 172.60 630.33 169.95 635.32 167.40 C 637.20 166.50 638.58 165.07 640.00 163.59 C 656.25 156.17 674.22 151.34 692.03 149.97 Z"
     fill="#3f2e27"
     id="path204" />
  <path
     d="M 717.74 218.43 C 725.32 220.28 731.06 225.17 735.83 231.14 C 738.47 234.66 740.13 239.14 741.65 243.24 C 744.09 250.67 745.13 258.44 740.95 265.49 C 740.24 255.05 738.67 243.85 733.31 234.66 C 727.49 225.22 715.93 219.14 704.80 221.82 C 706.00 223.73 707.42 225.46 708.56 227.41 C 707.90 227.39 707.25 227.37 706.60 227.35 C 705.22 225.49 702.93 222.44 700.28 223.25 C 694.57 225.64 689.47 229.80 685.47 234.49 C 681.92 238.65 679.02 244.12 679.29 249.73 C 679.86 255.78 681.41 261.71 686.22 265.80 C 689.59 268.96 694.24 269.79 698.65 268.69 C 703.02 266.92 706.30 262.26 708.19 258.10 C 710.26 253.84 710.39 249.60 710.86 244.98 L 711.93 244.67 C 710.98 250.43 710.81 255.71 707.87 260.88 C 705.97 264.21 703.18 268.00 699.53 269.50 C 693.80 271.81 687.06 269.39 683.28 264.70 C 679.15 259.91 678.00 254.21 677.51 248.07 C 676.76 250.64 676.26 253.27 675.59 255.86 C 675.24 256.70 674.87 257.52 674.49 258.34 C 673.49 255.83 673.55 253.68 674.12 251.07 C 676.76 238.19 685.53 226.30 697.55 220.74 C 704.02 217.92 710.77 216.32 717.74 218.43 Z"
     fill="#130f0d"
     id="path206" />
  <path
     d="M 733.31 234.66 C 738.67 243.85 740.24 255.05 740.95 265.49 C 739.67 268.86 738.20 271.99 735.37 274.36 C 726.37 282.18 713.57 284.40 702.10 281.96 C 693.54 280.08 685.25 276.31 679.69 269.31 C 676.33 265.44 675.73 260.81 675.59 255.86 C 676.26 253.27 676.76 250.64 677.51 248.07 C 678.00 254.21 679.15 259.91 683.28 264.70 C 687.06 269.39 693.80 271.81 699.53 269.50 C 703.18 268.00 705.97 264.21 707.87 260.88 C 710.81 255.71 710.98 250.43 711.93 244.67 L 710.86 244.98 C 708.47 245.64 705.93 246.59 703.52 245.52 C 701.44 244.38 699.74 242.41 698.79 240.25 C 697.34 236.82 698.47 232.66 700.93 230.00 C 702.54 228.74 704.72 228.10 706.60 227.35 C 707.25 227.37 707.90 227.39 708.56 227.41 C 707.42 225.46 706.00 223.73 704.80 221.82 C 715.93 219.14 727.49 225.22 733.31 234.66 Z"
     fill="#fefefc"
     id="path208" />
  <path
     d="M 700.28 223.25 C 702.93 222.44 705.22 225.49 706.60 227.35 C 704.72 228.10 702.54 228.74 700.93 230.00 C 698.47 232.66 697.34 236.82 698.79 240.25 C 699.74 242.41 701.44 244.38 703.52 245.52 C 705.93 246.59 708.47 245.64 710.86 244.98 C 710.39 249.60 710.26 253.84 708.19 258.10 C 706.30 262.26 703.02 266.92 698.65 268.69 C 694.24 269.79 689.59 268.96 686.22 265.80 C 681.41 261.71 679.86 255.78 679.29 249.73 C 679.02 244.12 681.92 238.65 685.47 234.49 C 689.47 229.80 694.57 225.64 700.28 223.25 Z"
     fill="#4eaac8"
     id="path210" />
  <path
     d="M 598.54 241.47 C 600.51 243.65 601.71 246.61 602.30 249.45 C 603.44 257.03 603.38 264.55 599.69 271.45 C 598.41 268.65 598.72 265.95 599.05 263.00 C 599.58 258.33 599.04 253.89 598.41 249.26 C 598.06 247.13 597.09 244.86 595.27 243.60 C 593.64 242.90 591.97 243.49 590.31 243.78 C 591.41 244.25 592.48 244.77 593.54 245.32 C 594.38 246.54 594.78 248.15 595.20 249.57 C 594.50 249.23 593.82 248.87 593.14 248.50 C 592.59 247.75 592.01 247.02 591.41 246.31 C 589.80 245.38 587.98 246.76 586.74 247.73 C 582.29 251.60 579.57 257.67 578.23 263.32 C 577.10 267.07 578.40 271.41 580.29 274.70 C 582.61 277.80 586.35 277.57 588.93 274.95 C 592.06 271.02 592.97 265.67 593.85 260.87 C 594.51 260.66 595.16 260.45 595.82 260.26 C 595.02 265.55 593.69 271.05 590.65 275.54 C 588.38 278.51 584.85 279.38 581.56 277.46 C 578.59 275.32 578.19 271.82 576.64 268.71 C 576.27 271.32 576.03 273.95 575.66 276.56 C 574.34 274.83 573.20 273.38 573.46 271.06 C 574.23 259.52 579.69 248.06 589.21 241.23 C 592.06 239.24 595.85 239.28 598.54 241.47 Z"
     fill="#130f0d"
     id="path212" />
  <path
     d="M 595.27 243.60 C 597.09 244.86 598.06 247.13 598.41 249.26 C 599.04 253.89 599.58 258.33 599.05 263.00 C 598.72 265.95 598.41 268.65 599.69 271.45 C 599.22 273.61 598.61 275.74 597.95 277.85 C 592.06 279.32 586.20 280.93 580.28 282.26 C 578.68 280.40 577.08 278.56 575.66 276.56 C 576.03 273.95 576.27 271.32 576.64 268.71 C 578.19 271.82 578.59 275.32 581.56 277.46 C 584.85 279.38 588.38 278.51 590.65 275.54 C 593.69 271.05 595.02 265.55 595.82 260.26 C 595.16 260.45 594.51 260.66 593.85 260.87 C 589.28 262.72 585.73 256.56 587.72 252.74 C 588.67 250.10 590.80 249.54 593.14 248.50 C 593.82 248.87 594.50 249.23 595.20 249.57 C 594.78 248.15 594.38 246.54 593.54 245.32 C 592.48 244.77 591.41 244.25 590.31 243.78 C 591.97 243.49 593.64 242.90 595.27 243.60 Z"
     fill="#fefefc"
     id="path214" />
  <path
     d="M 591.41 246.31 C 592.01 247.02 592.59 247.75 593.14 248.50 C 590.80 249.54 588.67 250.10 587.72 252.74 C 585.73 256.56 589.28 262.72 593.85 260.87 C 592.97 265.67 592.06 271.02 588.93 274.95 C 586.35 277.57 582.61 277.80 580.29 274.70 C 578.40 271.41 577.10 267.07 578.23 263.32 C 579.57 257.67 582.29 251.60 586.74 247.73 C 587.98 246.76 589.80 245.38 591.41 246.31 Z"
     fill="#4eaac8"
     id="path216" />
  <path
     d="M 795.89 298.06 C 806.74 300.11 817.09 305.20 824.05 313.98 C 829.27 320.08 831.87 327.67 833.77 335.35 C 835.37 341.74 835.19 348.37 834.86 354.91 C 833.90 366.09 831.56 377.57 826.87 387.82 C 822.96 396.97 819.57 406.39 815.56 415.51 C 807.84 433.79 799.21 451.89 790.94 469.94 C 783.47 486.41 775.68 502.71 768.29 519.22 C 760.12 537.40 751.28 555.40 743.84 573.89 C 739.55 582.27 736.43 590.97 732.67 599.56 C 727.12 613.03 722.07 626.65 718.67 640.84 C 717.43 646.03 715.47 651.46 715.43 656.82 C 715.79 662.83 716.39 669.27 719.41 674.59 C 722.32 679.91 726.83 684.67 730.64 689.38 C 734.43 693.96 737.47 699.22 740.88 704.13 C 744.90 709.84 747.70 715.98 750.73 722.25 C 757.60 737.10 760.11 752.74 760.99 768.96 C 761.33 777.44 760.35 786.03 759.57 794.48 C 758.64 803.61 755.88 812.20 754.05 821.15 C 751.57 825.49 748.18 828.98 744.71 832.54 C 740.04 835.24 735.71 838.44 730.88 840.91 C 734.28 834.93 736.70 828.65 739.34 822.32 C 743.90 811.78 746.19 799.95 747.59 788.60 C 748.57 780.88 748.11 772.82 748.22 765.00 C 748.08 752.27 744.96 739.45 740.42 727.59 C 734.39 712.09 725.09 699.34 716.86 685.09 C 714.12 680.92 711.12 677.24 709.57 672.39 C 706.42 664.07 706.59 655.55 707.79 646.85 C 709.84 631.71 714.34 617.58 719.18 603.15 C 725.30 585.81 732.70 568.89 740.07 552.05 C 750.82 526.82 762.02 501.70 773.93 476.99 C 778.31 466.68 783.84 456.80 788.62 446.67 C 794.02 434.01 801.02 422.08 806.44 409.40 C 809.70 402.77 812.26 395.87 815.01 389.02 C 819.07 378.59 823.81 369.33 825.12 358.01 C 826.58 348.70 825.89 339.26 822.64 330.39 C 820.61 325.06 818.60 319.62 814.34 315.65 C 806.95 308.66 796.90 305.96 787.03 304.92 C 768.33 303.36 749.54 309.85 732.97 317.97 C 722.27 323.61 711.44 330.28 702.67 338.67 C 700.39 340.87 697.76 342.55 694.98 344.03 C 695.49 343.25 696.00 342.48 696.51 341.71 C 700.38 337.10 704.16 332.62 708.92 328.89 C 721.01 318.09 733.62 308.71 748.90 302.88 C 763.95 297.32 780.00 294.94 795.89 298.06 Z"
     fill="#dfb32e"
     id="path218" />
  <path
     d="M 787.03 304.92 C 796.90 305.96 806.95 308.66 814.34 315.65 C 818.60 319.62 820.61 325.06 822.64 330.39 C 825.89 339.26 826.58 348.70 825.12 358.01 C 823.81 369.33 819.07 378.59 815.01 389.02 C 812.26 395.87 809.70 402.77 806.44 409.40 C 801.02 422.08 794.02 434.01 788.62 446.67 C 783.84 456.80 778.31 466.68 773.93 476.99 C 762.02 501.70 750.82 526.82 740.07 552.05 C 732.70 568.89 725.30 585.81 719.18 603.15 C 714.34 617.58 709.84 631.71 707.79 646.85 C 706.59 655.55 706.42 664.07 709.57 672.39 C 711.12 677.24 714.12 680.92 716.86 685.09 C 725.09 699.34 734.39 712.09 740.42 727.59 C 744.96 739.45 748.08 752.27 748.22 765.00 C 748.11 772.82 748.57 780.88 747.59 788.60 C 746.19 799.95 743.90 811.78 739.34 822.32 C 736.70 828.65 734.28 834.93 730.88 840.91 C 722.98 845.37 713.75 847.87 704.97 849.95 C 680.34 855.31 656.79 853.15 632.07 850.18 C 623.66 849.27 615.74 846.41 607.76 843.73 C 617.46 847.80 627.52 850.84 638.02 851.88 C 659.09 854.22 682.02 856.00 702.93 852.00 C 711.45 850.30 719.83 848.10 727.84 844.68 C 724.33 851.27 720.98 857.98 717.69 864.68 C 712.69 876.31 709.21 888.22 709.22 900.99 C 709.41 908.56 711.05 915.84 713.22 923.06 C 653.16 923.26 593.05 923.06 532.98 923.16 C 530.14 922.92 526.83 923.68 524.95 921.04 C 515.62 910.43 507.53 898.58 500.85 886.14 C 495.27 875.08 490.86 863.56 487.12 851.75 C 483.51 840.90 481.56 830.07 479.53 818.86 C 479.15 816.48 478.77 814.11 478.69 811.70 C 484.69 815.78 489.46 820.76 496.49 823.53 C 504.27 826.54 511.70 829.28 520.15 829.41 C 525.72 829.46 531.05 829.75 536.41 828.46 C 527.26 828.62 518.59 828.91 509.69 826.30 C 501.55 823.72 493.88 821.35 487.17 815.83 C 476.82 808.45 469.40 797.73 465.21 785.82 C 459.83 769.73 459.43 751.52 463.94 735.19 C 469.17 729.06 472.32 721.75 477.03 715.01 C 484.49 704.40 491.73 694.13 501.16 685.16 C 507.82 678.50 515.70 672.72 523.55 667.54 C 526.96 665.15 530.40 663.01 534.47 661.90 C 533.48 667.21 532.59 672.51 532.35 677.92 C 534.07 668.91 536.23 660.12 538.70 651.29 C 543.43 637.19 548.25 623.64 555.56 610.58 C 563.23 596.14 571.89 582.39 580.66 568.66 C 598.63 541.59 618.66 515.89 637.25 489.25 C 644.26 479.19 650.12 468.51 655.32 457.42 C 658.12 450.92 661.03 443.10 660.32 435.94 C 660.02 432.62 658.11 430.49 656.14 428.03 C 662.07 426.18 668.14 424.80 674.10 423.05 C 687.16 419.42 700.41 418.01 713.84 416.56 C 723.08 415.29 732.33 414.04 741.52 412.42 C 747.76 411.36 753.99 409.03 759.98 406.91 C 772.89 401.69 785.01 393.04 791.10 380.15 C 796.48 370.15 800.12 359.46 800.40 348.02 C 799.22 352.62 798.58 357.48 797.04 362.03 C 794.96 368.63 791.66 374.27 788.27 380.23 C 785.82 384.64 782.58 388.46 779.02 392.01 C 769.14 401.33 757.13 405.81 744.19 409.12 C 726.93 412.59 709.72 414.11 692.33 416.46 C 674.11 419.00 656.19 426.22 638.01 429.21 C 624.44 430.73 610.75 427.44 598.63 421.38 C 583.29 413.94 569.91 404.02 557.04 392.94 C 552.81 389.11 548.49 385.44 544.63 381.22 C 553.48 381.85 561.83 382.54 570.59 380.53 C 576.76 379.29 582.47 376.90 588.13 374.20 C 590.43 374.44 592.68 376.29 594.84 377.17 C 602.66 383.89 612.11 388.47 622.16 390.70 C 631.26 392.34 640.45 390.11 648.16 385.16 C 657.77 378.86 664.71 370.22 670.32 360.30 C 671.68 357.40 674.47 357.25 677.12 356.06 C 684.12 353.59 689.76 349.19 694.98 344.03 C 697.76 342.55 700.39 340.87 702.67 338.67 C 711.44 330.28 722.27 323.61 732.97 317.97 C 749.54 309.85 768.33 303.36 787.03 304.92 Z"
     fill="#fefefc"
     id="path220" />
  <path
     d="M 696.51 341.71 C 696.00 342.48 695.49 343.25 694.98 344.03 C 689.76 349.19 684.12 353.59 677.12 356.06 C 674.47 357.25 671.68 357.40 670.32 360.30 C 664.71 370.22 657.77 378.86 648.16 385.16 C 640.45 390.11 631.26 392.34 622.16 390.70 C 612.11 388.47 602.66 383.89 594.84 377.17 C 600.01 378.91 604.11 382.62 609.19 384.82 C 616.82 388.05 624.65 390.72 633.05 389.29 C 643.71 387.41 652.17 381.10 659.24 373.21 C 662.97 368.73 666.34 363.85 669.02 358.67 C 663.88 359.40 658.85 360.79 653.71 361.52 C 636.14 363.87 618.07 365.46 600.78 369.44 L 600.77 368.00 C 605.29 366.00 610.62 365.56 615.45 364.58 C 633.21 361.10 650.63 360.54 668.26 356.26 C 674.03 354.83 679.55 352.74 684.64 349.63 C 688.84 347.09 691.79 343.44 696.51 341.71 Z"
     fill="#130f0d"
     id="path222" />
  <path
     d="M 669.02 358.67 C 666.34 363.85 662.97 368.73 659.24 373.21 C 652.17 381.10 643.71 387.41 633.05 389.29 C 624.65 390.72 616.82 388.05 609.19 384.82 C 604.11 382.62 600.01 378.91 594.84 377.17 C 593.31 375.60 591.65 374.18 590.11 372.63 C 593.49 371.25 597.25 370.41 600.78 369.44 C 618.07 365.46 636.14 363.87 653.71 361.52 C 658.85 360.79 663.88 359.40 669.02 358.67 Z"
     fill="#f2ada2"
     id="path224" />
  <path
     d="M 328.00 360.71 C 339.66 360.44 351.55 362.32 362.85 365.09 C 374.38 367.92 385.63 372.41 394.60 380.39 C 401.15 386.18 405.21 393.86 407.99 402.04 C 410.54 409.59 410.06 418.10 409.97 426.02 C 408.96 448.00 405.75 470.02 404.27 491.98 C 404.05 497.33 403.70 503.75 406.42 508.57 C 407.30 510.40 408.87 511.29 410.53 512.30 C 412.06 514.65 413.50 517.10 414.69 519.64 C 414.88 524.99 417.61 528.89 419.24 533.81 C 422.40 542.72 424.19 551.81 426.03 561.05 C 428.34 573.47 428.06 585.45 427.88 598.04 C 427.32 608.80 426.58 619.37 423.90 629.86 C 422.28 635.96 421.06 642.68 418.23 648.32 C 417.50 649.87 416.66 651.43 416.14 653.05 C 417.15 656.14 419.64 658.85 421.45 661.53 C 431.04 674.72 439.29 688.92 446.39 703.59 C 451.76 713.88 455.73 724.61 459.59 735.54 C 460.94 739.31 460.03 742.63 459.56 746.46 C 458.83 751.36 459.17 756.06 459.09 760.99 C 458.45 776.98 464.11 792.67 473.57 805.44 C 475.64 808.14 476.24 811.24 476.63 814.54 C 477.93 825.53 479.78 836.61 482.82 847.27 C 483.38 849.38 484.01 851.64 484.05 853.83 C 483.08 855.72 481.17 857.24 479.56 858.59 C 470.76 865.71 461.22 872.02 451.11 877.12 C 447.62 878.90 443.97 880.15 440.00 880.06 C 433.60 880.18 427.71 877.22 423.36 872.65 C 417.00 865.86 411.70 858.09 405.38 851.23 C 405.34 852.53 405.35 853.83 405.30 855.14 C 398.54 853.23 392.14 849.95 385.66 847.28 C 373.84 841.70 362.13 835.78 350.91 829.08 C 341.71 823.07 332.90 816.42 324.02 809.95 C 315.83 802.89 306.14 800.24 296.08 796.93 C 281.39 792.02 266.50 788.56 251.60 784.40 C 238.52 780.90 225.84 776.27 213.57 770.52 C 205.94 767.36 198.97 763.07 191.63 759.30 C 183.30 754.31 175.66 748.05 168.61 741.39 C 158.99 731.96 152.01 720.84 146.23 708.74 C 140.99 699.16 138.52 689.01 135.30 678.68 C 133.12 671.49 130.91 664.46 130.07 656.95 C 129.26 649.74 128.25 642.22 128.90 634.97 C 129.23 631.00 131.96 625.90 136.30 625.36 C 141.68 624.49 147.61 625.31 153.04 625.63 C 166.98 626.24 180.97 627.04 194.86 628.30 C 199.12 628.48 200.08 633.35 201.54 636.48 C 206.79 651.28 212.54 665.07 222.87 677.15 C 227.09 681.90 232.50 684.17 238.04 687.02 C 241.27 688.67 244.54 689.90 248.04 690.85 C 241.56 686.98 234.80 683.93 228.90 679.11 C 222.52 674.29 218.79 667.99 214.75 661.26 C 208.85 651.59 206.27 639.59 201.52 629.45 C 199.75 626.00 196.60 625.34 193.03 625.05 C 180.69 624.19 168.33 623.24 155.96 622.88 C 149.31 622.64 142.01 621.41 135.44 622.59 C 130.61 623.55 127.85 628.06 126.55 632.46 C 124.81 639.20 126.73 647.25 126.90 654.18 C 123.46 648.47 121.45 641.80 119.44 635.48 C 115.75 622.06 112.06 607.89 111.18 593.99 C 110.77 582.56 110.72 571.00 113.90 559.92 C 114.60 557.60 115.52 554.90 117.30 553.17 C 119.71 552.58 122.46 552.86 124.91 553.11 C 152.51 556.53 180.20 565.09 206.31 574.54 C 208.52 575.45 210.65 575.96 211.32 578.57 C 212.68 583.95 212.52 589.60 214.04 594.99 C 216.18 604.20 220.68 611.96 224.57 620.46 C 226.78 625.12 230.85 628.71 234.16 632.81 C 239.25 638.89 244.20 644.39 251.94 647.01 C 247.80 643.07 242.98 640.19 239.17 635.86 C 233.68 629.69 228.29 623.87 224.58 616.43 C 220.97 608.97 218.12 600.72 216.34 592.63 C 215.17 587.75 215.15 582.36 213.31 577.71 C 212.43 575.40 210.05 574.94 208.00 574.05 C 202.16 571.98 196.75 569.01 190.83 567.13 C 170.95 560.44 150.32 554.60 129.56 551.47 C 125.59 550.92 120.78 549.68 116.86 550.81 C 113.93 551.65 112.98 554.45 111.98 557.02 C 109.59 564.04 108.44 571.56 108.08 578.96 C 107.68 588.21 107.89 597.42 109.48 606.56 C 110.25 611.65 111.67 616.80 112.00 621.91 C 105.55 620.27 99.50 617.03 93.23 614.78 C 76.88 607.99 60.30 601.75 43.95 595.00 C 39.90 593.10 34.55 590.88 32.01 587.04 C 29.56 582.12 30.23 575.30 30.58 569.95 C 31.71 550.13 35.32 530.07 41.04 511.06 C 43.63 502.96 47.24 493.52 54.16 488.14 C 57.91 484.83 63.81 485.77 68.32 486.61 C 79.66 489.25 90.83 494.07 101.64 498.35 C 108.97 501.25 116.13 504.52 123.33 507.73 C 139.37 514.55 154.74 522.98 170.41 530.60 C 191.30 541.53 211.68 553.25 232.20 564.84 C 234.38 566.06 236.66 567.07 239.01 567.94 C 235.05 564.60 230.57 562.45 226.15 559.83 C 206.10 548.07 186.14 536.25 165.61 525.34 C 154.53 519.22 143.23 513.41 131.67 508.27 C 115.22 500.46 98.53 492.76 81.32 486.74 C 77.79 485.48 73.95 484.79 70.82 482.88 C 71.57 478.70 73.28 474.60 74.60 470.57 C 76.75 464.13 78.86 457.68 81.25 451.32 C 84.42 442.35 88.82 433.76 93.45 425.46 C 95.47 422.13 97.57 418.10 100.71 415.70 C 102.48 414.33 104.62 414.90 106.63 415.29 C 113.21 416.94 119.70 420.34 125.92 423.05 C 133.50 426.26 140.35 430.67 147.71 434.35 C 170.85 447.11 192.95 462.08 214.12 477.88 C 233.66 492.42 253.02 507.59 271.24 523.78 C 275.65 527.58 279.35 532.11 283.74 535.90 C 284.63 529.85 285.51 523.92 285.38 517.78 C 285.28 511.66 286.69 505.84 287.49 499.54 C 291.22 472.89 295.02 446.24 298.50 419.55 C 300.39 405.35 301.32 390.94 303.83 376.85 C 304.75 372.54 305.72 367.31 309.69 364.73 C 314.88 361.35 321.98 360.77 328.00 360.71 Z"
     fill="#3f2e27"
     id="path226" />
  <path
     d="M 537.30 372.37 C 540.88 373.35 544.22 375.11 547.83 376.07 C 553.38 377.58 559.30 378.22 565.04 377.92 C 572.81 377.36 580.39 374.94 588.13 374.20 C 582.47 376.90 576.76 379.29 570.59 380.53 C 561.83 382.54 553.48 381.85 544.63 381.22 C 541.99 378.73 539.35 376.22 536.79 373.64 L 537.30 372.37 Z"
     fill="#dfb32e"
     id="path228" />
  <path
     d="M 645.13 470.01 C 642.91 476.06 638.60 481.66 635.08 487.09 C 617.31 512.55 598.43 537.28 580.86 562.87 C 570.12 579.78 558.73 597.06 550.02 615.06 C 546.43 622.12 543.38 629.44 541.07 637.03 C 539.69 642.01 537.34 645.98 538.70 651.29 C 536.23 660.12 534.07 668.91 532.35 677.92 C 532.59 672.51 533.48 667.21 534.47 661.90 C 535.46 657.63 536.79 653.25 537.17 648.89 C 533.05 649.87 529.75 652.00 526.19 654.16 C 512.53 662.17 500.09 672.13 489.52 683.95 L 488.63 682.40 C 486.69 683.95 485.27 685.84 483.83 687.86 C 479.53 694.02 475.59 700.44 472.06 707.08 C 468.47 713.91 466.14 721.08 463.13 728.14 C 463.87 709.24 467.62 691.41 462.24 672.70 C 468.89 663.81 476.67 655.17 485.88 648.88 C 494.88 642.66 505.83 637.83 516.81 637.02 C 514.72 642.62 510.87 647.21 509.11 653.00 C 512.86 648.04 515.62 642.21 518.90 636.88 C 525.23 625.93 531.69 615.07 538.25 604.25 C 550.76 584.39 564.32 565.16 578.30 546.30 C 593.87 524.59 612.75 504.52 630.66 484.65 C 635.77 480.04 639.80 474.34 645.13 470.01 Z"
     fill="#3f2e27"
     id="path230" />
  <path
     d="M 792.99 491.94 C 791.73 494.60 790.24 497.13 788.58 499.55 C 777.46 515.47 767.86 532.54 758.62 549.59 C 752.71 561.69 746.24 573.55 740.95 585.93 C 732.73 604.42 725.58 623.47 719.52 642.78 C 719.23 642.14 718.95 641.49 718.67 640.84 C 722.07 626.65 727.12 613.03 732.67 599.56 C 736.43 590.97 739.55 582.27 743.84 573.89 C 748.76 566.23 752.46 557.78 756.70 549.73 C 763.90 536.16 771.55 522.84 779.94 509.97 C 783.98 503.84 787.84 497.21 792.99 491.94 Z"
     fill="#130f0d"
     id="path232" />
  <path
     d="M 283.43 553.90 C 284.20 558.42 283.63 562.96 284.43 567.48 C 286.98 582.17 290.24 596.33 295.80 610.21 C 298.73 617.14 302.19 624.25 306.80 630.22 C 312.13 637.17 318.50 643.30 325.71 648.28 C 329.94 651.19 334.64 653.17 338.89 656.04 C 323.22 651.34 309.64 639.66 301.08 625.89 C 295.58 617.20 292.81 608.01 289.64 598.33 C 285.52 584.23 281.89 568.64 283.43 553.90 Z"
     fill="#130f0d"
     id="path234" />
  <path
     d="M 266.86 597.97 C 266.74 603.09 265.86 608.07 265.18 613.13 C 262.85 630.56 259.68 648.52 259.68 666.07 C 258.69 662.21 258.18 658.31 258.45 654.32 C 258.96 645.58 260.17 636.86 261.26 628.17 C 262.61 618.06 264.15 607.82 266.86 597.97 Z"
     fill="#130f0d"
     id="path236" />
  <path
     d="M 537.17 648.89 C 536.79 653.25 535.46 657.63 534.47 661.90 C 530.40 663.01 526.96 665.15 523.55 667.54 C 515.70 672.72 507.82 678.50 501.16 685.16 C 491.73 694.13 484.49 704.40 477.03 715.01 C 472.32 721.75 469.17 729.06 463.94 735.19 C 465.89 724.50 470.21 714.77 475.13 705.17 C 478.86 697.33 484.04 690.62 489.52 683.95 C 500.09 672.13 512.53 662.17 526.19 654.16 C 529.75 652.00 533.05 649.87 537.17 648.89 Z"
     fill="#dfb32e"
     id="path238" />
  <path
     d="M 333.04 671.98 C 338.17 672.16 343.23 672.90 348.04 674.75 C 338.34 673.90 328.74 673.24 319.01 674.06 C 313.61 674.62 308.27 676.27 303.21 678.18 C 297.26 680.40 292.05 683.91 285.99 685.89 C 293.42 680.11 302.69 676.29 311.68 673.70 C 318.64 671.68 325.84 671.70 333.04 671.98 Z"
     fill="#130f0d"
     id="path240" />
  <path
     d="M 462.24 672.70 C 467.62 691.41 463.87 709.24 463.13 728.14 C 462.78 729.00 462.39 729.85 461.98 730.69 C 458.71 724.42 456.91 717.51 453.79 711.14 C 451.66 706.08 448.27 701.32 446.80 696.04 C 449.16 691.57 454.50 689.80 455.96 685.05 C 457.51 680.59 459.20 676.39 462.24 672.70 Z"
     fill="#7e524d"
     id="path242" />
  <path
     d="M 519.02 675.98 C 524.66 678.80 529.96 682.39 535.28 685.76 C 540.60 689.36 547.42 693.78 550.08 699.84 C 552.25 704.95 553.71 710.45 554.83 715.88 C 551.58 709.93 550.59 702.74 546.86 697.13 C 540.02 688.32 527.76 682.76 519.02 675.98 Z"
     fill="#130f0d"
     id="path244" />
  <path
     d="M 709.06 687.21 C 707.20 687.65 705.31 687.96 703.41 688.22 C 686.12 690.56 668.91 693.39 651.79 696.75 C 642.08 698.94 631.47 700.63 622.85 705.84 C 615.88 710.68 614.13 717.83 610.90 725.05 C 611.58 717.63 614.96 709.62 621.12 705.12 C 625.52 702.18 630.76 700.33 635.79 698.81 C 651.63 694.50 667.72 692.00 684.00 690.09 C 692.34 689.15 700.70 687.47 709.06 687.21 Z"
     fill="#130f0d"
     id="path246" />
  <path
     d="M 861.88 700.61 C 865.32 712.06 864.67 724.21 863.40 735.95 C 864.60 732.89 865.55 729.71 866.84 726.71 C 870.35 730.02 873.35 734.00 876.37 737.77 C 872.85 758.37 867.28 778.74 863.34 799.30 C 862.94 801.68 862.41 804.17 862.54 806.59 C 864.19 808.52 866.71 809.85 868.88 811.14 C 886.79 821.14 906.34 829.11 925.12 837.07 C 928.05 849.26 929.77 861.76 930.76 874.25 C 924.72 873.72 919.57 872.40 914.02 869.97 C 897.64 862.89 881.21 855.82 865.33 847.67 C 858.29 844.23 851.35 840.50 844.78 836.23 C 837.60 831.33 831.31 825.59 829.11 816.84 C 826.75 808.90 828.58 801.91 830.07 794.08 C 833.41 776.21 839.86 758.69 844.87 741.87 C 847.47 733.63 850.55 725.57 853.45 717.43 C 855.62 711.49 858.15 705.75 861.88 700.61 Z"
     fill="#7e524d"
     id="path248" />
  <path
     d="M 876.37 737.77 C 885.43 748.23 893.11 759.97 900.19 771.83 C 904.13 778.22 907.01 785.08 910.24 791.84 C 917.06 806.27 921.71 821.50 925.12 837.07 C 906.34 829.11 886.79 821.14 868.88 811.14 C 866.71 809.85 864.19 808.52 862.54 806.59 C 862.41 804.17 862.94 801.68 863.34 799.30 C 867.28 778.74 872.85 758.37 876.37 737.77 Z"
     fill="#f2ada2"
     id="path250" />
  <path
     d="M 770.61 801.03 C 772.40 809.44 774.15 817.75 777.21 825.81 C 778.13 828.42 779.41 831.13 779.73 833.89 C 778.36 837.57 775.17 840.72 772.84 843.86 C 760.92 859.27 749.34 874.87 736.65 889.69 C 734.49 892.51 731.37 896.05 733.10 899.83 C 735.60 906.33 740.91 908.80 744.99 913.79 C 742.17 916.90 739.07 920.18 735.49 922.40 C 732.29 923.36 728.56 922.95 725.23 923.01 C 723.28 917.17 721.27 911.58 720.63 905.40 C 719.28 893.98 722.23 882.81 726.16 872.18 C 729.51 863.30 733.45 854.52 738.38 846.40 C 740.82 842.17 743.60 838.16 746.07 833.95 C 740.09 837.79 734.21 841.51 727.84 844.68 C 719.83 848.10 711.45 850.30 702.93 852.00 C 682.02 856.00 659.09 854.22 638.02 851.88 C 627.52 850.84 617.46 847.80 607.76 843.73 C 615.74 846.41 623.66 849.27 632.07 850.18 C 656.79 853.15 680.34 855.31 704.97 849.95 C 713.75 847.87 722.98 845.37 730.88 840.91 C 735.71 838.44 740.04 835.24 744.71 832.54 C 746.56 832.13 748.22 832.08 749.64 830.65 C 754.33 826.37 758.12 821.00 761.95 815.95 C 765.50 811.31 767.65 806.00 770.61 801.03 Z"
     fill="#3f2e27"
     id="path252" />
  <path
     d="M 746.07 833.95 C 743.60 838.16 740.82 842.17 738.38 846.40 C 733.45 854.52 729.51 863.30 726.16 872.18 C 722.23 882.81 719.28 893.98 720.63 905.40 C 721.27 911.58 723.28 917.17 725.23 923.01 C 721.23 923.04 717.22 923.06 713.22 923.06 C 711.05 915.84 709.41 908.56 709.22 900.99 C 709.21 888.22 712.69 876.31 717.69 864.68 C 720.98 857.98 724.33 851.27 727.84 844.68 C 734.21 841.51 740.09 837.79 746.07 833.95 Z"
     fill="#dfb32e"
     id="path254" />
</svg>
