<?xml version="1.0" encoding="UTF-8" standalone="no"?>
<svg
   xmlns:dc="http://purl.org/dc/elements/1.1/"
   xmlns:cc="http://creativecommons.org/ns#"
   xmlns:rdf="http://www.w3.org/1999/02/22-rdf-syntax-ns#"
   xmlns:svg="http://www.w3.org/2000/svg"
   xmlns="http://www.w3.org/2000/svg"
   xmlns:sodipodi="http://sodipodi.sourceforge.net/DTD/sodipodi-0.dtd"
   xmlns:inkscape="http://www.inkscape.org/namespaces/inkscape"
   version="1.1"
   id="Layer_1"
   x="0px"
   y="0px"
   viewBox="0 0 512 512"
   style="enable-background:new 0 0 512 512;"
   xml:space="preserve"
   sodipodi:docname="chat-bubble.svg"
   inkscape:version="1.0.2 (e86c8708, 2021-01-15)"><metadata
   id="metadata450"><rdf:RDF><cc:Work
       rdf:about=""><dc:format>image/svg+xml</dc:format><dc:type
         rdf:resource="http://purl.org/dc/dcmitype/StillImage" /></cc:Work></rdf:RDF></metadata><defs
   id="defs448" /><sodipodi:namedview
   pagecolor="#ffffff"
   bordercolor="#666666"
   borderopacity="1"
   objecttolerance="10"
   gridtolerance="10"
   guidetolerance="10"
   inkscape:pageopacity="0"
   inkscape:pageshadow="2"
   inkscape:window-width="2217"
   inkscape:window-height="1105"
   id="namedview446"
   showgrid="false"
   inkscape:zoom="1.96875"
   inkscape:cx="256"
   inkscape:cy="256"
   inkscape:window-x="2678"
   inkscape:window-y="152"
   inkscape:window-maximized="0"
   inkscape:current-layer="Layer_1" />
<g
   id="g413"
   transform="matrix(-1,0,0,1,512,-20)">
	<g
   id="g411">
		<path
   d="M 437.333,32 H 74.667 C 33.493,32 0,65.493 0,106.667 V 320 c 0,36.672 26.56,67.264 61.483,73.493 -16.299,26.496 -34.901,51.179 -35.115,51.477 -0.064,0.107 -0.149,0.192 -0.213,0.299 -3.115,3.819 -4.821,8.533 -4.821,13.397 0,11.755 9.579,21.333 21.333,21.333 2.923,0 5.845,-0.683 8.725,-2.005 27.051,-7.68 112.832,-34.901 163.947,-83.328 H 437.334 C 478.507,394.667 512,361.173 512,320 V 106.667 C 512,65.493 478.507,32 437.333,32 Z m 53.334,287.979 c 0,29.397 -23.936,53.333 -53.333,53.333 H 211.008 c -2.837,0 -5.525,1.131 -7.531,3.115 -48.832,48.555 -140.864,76.245 -158.827,81.301 -0.704,0.192 -1.259,0.597 -1.92,0.96 0.469,-0.512 0.875,-1.067 1.237,-1.643 4.117,-5.483 27.861,-37.547 44.8,-67.861 1.856,-3.307 1.813,-7.339 -0.107,-10.603 -1.92,-3.264 -5.419,-5.269 -9.195,-5.269 h -4.8 c -29.397,0 -53.333,-23.936 -53.333,-53.333 V 106.645 c 0,-29.397 23.936,-53.333 53.333,-53.333 h 362.667 c 29.397,0 53.333,23.936 53.333,53.333 v 213.334 z"
   id="path409" />
	</g>
</g>
<g
   id="g415">
</g>
<g
   id="g417">
</g>
<g
   id="g419">
</g>
<g
   id="g421">
</g>
<g
   id="g423">
</g>
<g
   id="g425">
</g>
<g
   id="g427">
</g>
<g
   id="g429">
</g>
<g
   id="g431">
</g>
<g
   id="g433">
</g>
<g
   id="g435">
</g>
<g
   id="g437">
</g>
<g
   id="g439">
</g>
<g
   id="g441">
</g>
<g
   id="g443">
</g>
<path
   style="fill:#ffffff;stroke-width:0.507937"
   d="m 456.88889,434.30181 c -28.37174,-8.84331 -54.80206,-19.37641 -79.2381,-31.57822 -27.85155,-13.90731 -47.31083,-26.70084 -64.37553,-42.32376 -2.91023,-2.66435 -6.13057,-5.3548 -7.15631,-5.97878 l -1.86498,-1.1345 -114.94065,-0.008 C 111.17045,353.27252 72.813714,353.09601 69.503178,352.72686 57.146626,351.34902 46.298497,346.22441 37.584733,337.6487 29.049463,329.24866 23.634865,318.44579 22.119619,306.79365 21.676986,303.38983 21.565521,273.68064 21.68321,190.47619 L 21.84127,78.730159 23.203144,73.800222 C 25.998584,63.680832 30.931935,55.395072 38.383871,48.303589 45.801496,41.244756 54.298985,36.73665 63.935509,34.747878 68.426984,33.820934 74.411291,33.791124 256,33.791124 c 181.58871,0 187.57302,0.02981 192.06449,0.956754 9.6698,1.99564 18.37366,6.623662 25.67318,13.650965 7.41569,7.13914 12.29896,15.346941 15.02376,25.251951 l 1.3973,5.079365 0.1481,112.253971 c 0.13339,101.11033 0.0671,112.74623 -0.66735,117.21272 -2.39577,14.56874 -10.27029,27.04683 -22.32916,35.38312 -9.36223,6.4721 -20.54872,9.68987 -33.6866,9.68987 -4.88339,0 -7.71576,1.27745 -9.98931,4.50533 -1.22862,1.74436 -1.54422,2.77484 -1.70132,5.55521 -0.17942,3.17532 -0.0528,3.679 1.81442,7.21621 6.57917,12.46346 23.17957,37.94834 38.29266,58.78674 3.29241,4.53969 5.82312,8.24499 5.62381,8.23401 -0.19931,-0.011 -5.04811,-1.48047 -10.77509,-3.26553 z"
   id="path452" /></svg>
