<?xml version="1.0" encoding="UTF-8" standalone="no"?>
<svg
   xmlns:dc="http://purl.org/dc/elements/1.1/"
   xmlns:cc="http://creativecommons.org/ns#"
   xmlns:rdf="http://www.w3.org/1999/02/22-rdf-syntax-ns#"
   xmlns:svg="http://www.w3.org/2000/svg"
   xmlns="http://www.w3.org/2000/svg"
   xmlns:sodipodi="http://sodipodi.sourceforge.net/DTD/sodipodi-0.dtd"
   xmlns:inkscape="http://www.inkscape.org/namespaces/inkscape"
   version="1.1"
   viewBox="0 0 512 512"
   width="512.0pt"
   height="512.0pt"
   id="svg226"
   sodipodi:docname="gleamburp.svg"
   inkscape:version="1.0.2 (e86c8708, 2021-01-15)">
  <metadata
     id="metadata232">
    <rdf:RDF>
      <cc:Work
         rdf:about="">
        <dc:format>image/svg+xml</dc:format>
        <dc:type
           rdf:resource="http://purl.org/dc/dcmitype/StillImage" />
        <dc:title></dc:title>
      </cc:Work>
    </rdf:RDF>
  </metadata>
  <defs
     id="defs230" />
  <sodipodi:namedview
     pagecolor="#ffffff"
     bordercolor="#666666"
     borderopacity="1"
     objecttolerance="10"
     gridtolerance="10"
     guidetolerance="10"
     inkscape:pageopacity="0"
     inkscape:pageshadow="2"
     inkscape:window-width="2624"
     inkscape:window-height="1334"
     id="namedview228"
     showgrid="false"
     inkscape:zoom="46.038574"
     inkscape:cx="194.01258"
     inkscape:cy="445.85981"
     inkscape:window-x="0"
     inkscape:window-y="25"
     inkscape:window-maximized="0"
     inkscape:current-layer="svg226" />
  <path
     d="M 353.09 51.99 C 352.85 52.44 352.62 52.89 352.38 53.34 C 347.41 58.61 338.71 58.50 332.85 61.82 C 321.14 67.68 309.34 75.96 301.81 86.84 C 295.84 95.38 292.53 104.89 292.06 115.32 L 290.83 114.09 C 283.92 100.06 271.96 88.33 258.53 80.48 C 256.65 79.63 255.32 77.97 253.25 79.42 C 253.32 81.12 254.49 82.24 255.47 83.52 C 261.37 90.34 267.05 97.42 272.20 104.82 C 273.48 106.68 275.05 108.26 276.64 109.84 C 277.51 111.01 278.38 112.18 279.22 113.37 C 278.10 113.32 276.97 113.25 275.85 113.17 C 263.93 107.94 247.55 112.18 235.00 109.54 C 228.97 108.27 223.58 105.09 220.00 100.01 C 219.22 98.53 216.60 98.83 217.62 100.82 C 220.79 109.84 226.20 118.26 233.10 124.88 C 239.15 130.67 246.43 134.56 254.84 135.43 C 253.61 136.28 252.23 137.13 251.23 138.24 C 250.79 139.95 251.84 140.55 252.75 141.74 C 246.36 143.31 240.25 146.38 234.46 149.46 C 230.52 151.70 225.71 154.31 223.21 158.20 C 221.35 161.19 220.56 164.73 218.79 167.80 C 214.72 174.97 208.30 180.61 200.14 182.50 C 187.73 185.47 174.63 185.99 162.02 188.17 C 155.99 188.94 150.02 190.48 143.98 191.04 C 137.17 190.51 130.47 190.03 123.85 188.22 C 108.46 184.15 92.03 176.75 75.99 175.24 C 64.11 173.81 51.64 176.23 41.27 182.27 C 31.02 187.78 22.57 196.22 15.12 205.06 C 9.12 213.47 4.48 222.71 0.00 231.53 L 0.00 223.22 C 2.80 218.28 5.34 213.33 8.65 208.61 C 11.15 205.16 13.89 201.87 16.53 198.52 C 21.68 192.10 27.86 187.26 34.42 182.39 C 42.58 176.76 52.08 172.40 62.01 171.28 C 65.52 170.88 68.55 169.72 72.00 170.46 C 75.36 171.08 78.74 171.41 82.11 171.91 C 101.26 175.15 119.91 185.51 139.00 186.45 C 140.97 186.62 142.92 187.12 144.90 187.18 C 161.21 183.44 177.61 182.24 194.02 179.66 C 201.27 178.27 208.82 176.82 213.02 170.04 C 216.80 164.92 217.01 159.11 221.80 154.79 C 227.18 148.65 234.23 145.11 241.51 141.62 C 243.51 140.54 246.42 140.32 247.38 138.11 C 235.80 133.71 226.07 123.79 219.60 113.43 C 216.71 109.49 214.88 104.65 213.15 100.09 C 214.22 98.56 215.60 97.18 217.11 96.08 C 221.53 96.11 223.63 99.93 226.90 102.19 C 231.22 104.99 236.94 105.93 242.00 106.11 C 251.13 106.28 260.26 106.48 269.39 107.02 C 264.76 100.25 259.98 93.62 254.55 87.47 C 251.89 84.81 250.56 79.75 252.39 76.41 C 254.76 75.47 257.17 75.12 259.40 76.64 C 271.08 83.90 281.29 93.75 289.46 104.79 C 290.98 98.34 293.74 91.98 297.67 86.64 C 300.80 82.74 303.62 78.71 307.28 75.28 C 310.81 71.59 314.95 69.01 318.95 65.89 C 322.88 62.74 327.54 60.51 331.94 57.99 C 338.60 55.07 345.92 53.19 353.09 51.99 Z"
     fill="#fefefe"
     id="path12" />
  <path
     d="M 353.09 51.99 C 354.14 52.99 355.17 54.01 356.21 55.02 C 354.76 61.21 352.19 67.29 349.11 72.84 C 360.00 65.64 371.97 61.56 385.01 60.73 C 388.53 61.55 393.96 62.67 395.95 66.00 C 394.08 68.39 391.81 70.69 389.12 72.15 C 385.64 74.07 382.43 76.38 379.12 78.57 C 384.05 77.19 389.13 77.72 394.00 76.20 C 399.19 77.73 404.67 77.26 410.00 78.36 C 418.57 79.57 428.44 82.96 436.89 80.88 C 441.79 80.19 445.17 76.68 450.22 76.20 C 451.69 77.77 454.76 79.43 453.01 81.93 C 447.13 91.36 436.24 98.70 427.75 105.77 C 434.66 106.67 441.36 108.66 447.81 111.27 C 455.78 114.69 462.04 119.85 468.68 125.31 C 471.73 127.85 473.71 130.72 475.44 134.26 C 474.15 135.80 472.80 137.22 471.32 138.58 C 475.32 141.99 479.72 144.86 483.60 148.40 C 486.52 151.05 490.06 151.93 493.59 153.46 C 496.22 154.56 498.46 156.77 500.78 158.42 C 499.72 159.49 498.67 160.57 497.58 161.61 C 495.56 164.20 491.52 163.36 488.51 164.01 C 489.07 164.64 489.64 165.24 490.24 165.83 C 497.40 167.35 504.92 166.77 512.00 168.52 L 512.00 172.36 C 504.65 170.98 497.30 171.13 489.88 170.69 C 488.14 166.08 481.59 163.82 477.80 161.05 C 481.51 160.43 485.26 160.11 488.99 159.69 C 491.84 159.37 494.73 159.91 497.48 159.30 C 497.03 157.36 491.70 156.75 490.03 156.07 C 484.61 153.63 479.79 149.52 475.17 145.83 C 468.19 140.06 461.36 134.69 452.87 131.28 C 449.63 129.96 446.25 129.37 442.95 128.29 C 452.89 128.99 461.79 131.94 471.16 134.73 C 472.68 133.46 471.69 132.41 470.57 131.41 C 465.13 126.61 459.87 122.06 453.54 118.46 C 443.37 112.54 431.74 109.56 420.00 109.37 C 418.05 109.36 416.13 109.27 414.23 108.80 C 425.43 103.80 435.21 96.49 443.82 87.81 C 446.41 85.11 448.94 82.40 450.98 79.24 C 446.01 80.07 442.79 83.80 437.99 84.89 C 432.48 86.30 426.51 85.45 421.00 84.51 C 411.26 82.77 401.97 80.75 391.99 81.05 C 380.59 81.18 370.03 84.69 360.00 89.88 C 369.79 81.42 380.17 72.14 391.97 66.65 C 391.76 65.96 391.45 65.33 391.05 64.77 C 375.86 64.26 361.06 69.07 348.53 77.55 C 344.59 80.08 341.12 83.16 337.41 86.00 C 343.85 76.53 348.68 66.14 352.33 55.30 C 352.59 54.66 352.61 54.00 352.38 53.34 C 352.62 52.89 352.85 52.44 353.09 51.99 Z"
     fill="#fefefe"
     id="path14" />
  <path
     d="M 352.38 53.34 C 352.61 54.00 352.59 54.66 352.33 55.30 C 348.68 66.14 343.85 76.53 337.41 86.00 C 341.12 83.16 344.59 80.08 348.53 77.55 C 361.06 69.07 375.86 64.26 391.05 64.77 C 391.45 65.33 391.76 65.96 391.97 66.65 C 380.17 72.14 369.79 81.42 360.00 89.88 C 370.03 84.69 380.59 81.18 391.99 81.05 C 401.97 80.75 411.26 82.77 421.00 84.51 C 426.51 85.45 432.48 86.30 437.99 84.89 C 442.79 83.80 446.01 80.07 450.98 79.24 C 448.94 82.40 446.41 85.11 443.82 87.81 C 435.21 96.49 425.43 103.80 414.23 108.80 C 416.13 109.27 418.05 109.36 420.00 109.37 C 431.74 109.56 443.37 112.54 453.54 118.46 C 459.87 122.06 465.13 126.61 470.57 131.41 C 471.69 132.41 472.68 133.46 471.16 134.73 C 461.79 131.94 452.89 128.99 442.95 128.29 C 446.25 129.37 449.63 129.96 452.87 131.28 C 461.36 134.69 468.19 140.06 475.17 145.83 C 479.79 149.52 484.61 153.63 490.03 156.07 C 491.70 156.75 497.03 157.36 497.48 159.30 C 494.73 159.91 491.84 159.37 488.99 159.69 C 485.26 160.11 481.51 160.43 477.80 161.05 C 481.59 163.82 488.14 166.08 489.88 170.69 C 497.30 171.13 504.65 170.98 512.00 172.36 L 512.00 174.79 C 496.56 171.89 479.66 174.07 464.00 174.30 C 440.41 174.78 416.25 171.67 393.00 167.75 C 382.86 166.16 372.97 163.36 362.86 161.68 C 367.75 161.59 372.44 161.27 377.16 162.86 C 386.39 164.45 395.67 165.75 404.88 167.55 C 420.48 169.84 436.23 171.44 452.00 171.99 C 457.32 172.31 462.69 172.34 468.00 171.90 C 474.70 171.38 481.47 171.69 488.14 170.93 C 483.02 166.30 476.67 162.81 469.98 161.07 C 465.75 159.82 461.74 157.90 457.57 156.47 C 462.44 156.03 466.72 157.37 471.35 158.50 C 476.45 158.99 481.77 158.00 486.87 157.58 C 482.21 154.08 477.43 150.79 472.97 147.05 C 465.02 140.50 457.13 134.55 447.01 131.84 C 441.72 130.23 436.37 130.08 430.95 129.32 C 433.80 127.81 437.17 127.84 440.00 125.88 C 448.89 125.64 456.57 128.61 465.03 129.93 C 453.08 118.49 436.56 111.78 420.00 111.75 C 414.00 111.46 408.13 112.28 402.16 112.70 C 403.71 111.25 405.00 109.82 407.02 109.03 C 411.77 107.19 416.47 105.50 420.85 102.83 C 428.19 98.28 435.10 93.57 440.96 87.14 C 435.25 87.75 429.65 88.27 423.93 87.37 C 414.48 85.88 405.67 83.66 396.00 83.36 C 382.22 82.80 368.24 87.18 356.79 94.76 C 353.78 96.53 351.54 100.11 348.15 100.95 C 348.02 97.52 350.69 96.09 352.70 93.71 C 362.48 83.93 373.47 75.12 384.90 67.37 C 372.42 67.67 359.93 72.74 349.65 79.64 C 345.01 82.62 340.96 86.24 336.71 89.72 C 332.79 92.87 330.13 96.68 325.43 98.83 C 328.13 93.82 332.26 90.02 335.24 85.21 C 340.50 76.95 345.69 67.97 348.38 58.50 C 344.07 58.93 340.01 61.44 336.00 62.99 C 321.85 69.44 307.32 80.00 300.15 94.15 C 296.99 100.06 295.49 106.32 294.31 112.86 C 293.74 115.50 293.48 117.99 293.56 120.69 C 292.97 119.32 292.36 117.96 291.76 116.59 C 291.87 116.17 291.97 115.74 292.06 115.32 C 292.53 104.89 295.84 95.38 301.81 86.84 C 309.34 75.96 321.14 67.68 332.85 61.82 C 338.71 58.50 347.41 58.61 352.38 53.34 Z"
     fill="#0a0604"
     id="path16" />
  <path
     d="M 348.38 58.50 C 345.69 67.97 340.50 76.95 335.24 85.21 C 332.26 90.02 328.13 93.82 325.43 98.83 C 330.13 96.68 332.79 92.87 336.71 89.72 C 340.96 86.24 345.01 82.62 349.65 79.64 C 359.93 72.74 372.42 67.67 384.90 67.37 C 373.47 75.12 362.48 83.93 352.70 93.71 C 350.69 96.09 348.02 97.52 348.15 100.95 C 351.54 100.11 353.78 96.53 356.79 94.76 C 368.24 87.18 382.22 82.80 396.00 83.36 C 405.67 83.66 414.48 85.88 423.93 87.37 C 429.65 88.27 435.25 87.75 440.96 87.14 C 435.10 93.57 428.19 98.28 420.85 102.83 C 416.47 105.50 411.77 107.19 407.02 109.03 C 405.00 109.82 403.71 111.25 402.16 112.70 C 408.13 112.28 414.00 111.46 420.00 111.75 C 436.56 111.78 453.08 118.49 465.03 129.93 C 456.57 128.61 448.89 125.64 440.00 125.88 C 437.17 127.84 433.80 127.81 430.95 129.32 C 436.37 130.08 441.72 130.23 447.01 131.84 C 457.13 134.55 465.02 140.50 472.97 147.05 C 477.43 150.79 482.21 154.08 486.87 157.58 C 481.77 158.00 476.45 158.99 471.35 158.50 C 466.72 157.37 462.44 156.03 457.57 156.47 C 461.74 157.90 465.75 159.82 469.98 161.07 C 476.67 162.81 483.02 166.30 488.14 170.93 C 481.47 171.69 474.70 171.38 468.00 171.90 C 462.69 172.34 457.32 172.31 452.00 171.99 C 436.23 171.44 420.48 169.84 404.88 167.55 C 395.67 165.75 386.39 164.45 377.16 162.86 C 372.44 161.27 367.75 161.59 362.86 161.68 C 360.76 161.64 359.42 161.45 357.53 160.48 C 360.47 160.34 363.41 160.32 366.35 160.16 C 364.79 158.03 362.59 157.22 361.89 154.60 C 366.59 155.45 372.13 156.24 376.76 154.77 C 370.41 153.34 363.82 153.19 357.54 151.55 C 351.38 148.97 345.22 146.58 338.78 144.74 C 341.77 142.33 345.97 142.37 349.70 141.48 C 343.02 141.40 336.60 142.45 330.00 143.23 C 321.99 141.87 314.23 142.58 306.12 142.48 C 307.85 142.85 309.55 143.23 311.29 143.52 C 307.86 143.93 304.44 143.89 301.00 143.98 C 297.96 144.05 295.04 145.09 292.04 144.88 C 288.88 144.54 286.56 146.04 283.36 144.65 C 284.52 143.51 285.69 142.38 286.83 141.23 C 281.58 141.39 277.26 143.91 272.22 144.87 C 273.25 143.87 274.29 142.87 275.31 141.87 C 271.52 140.71 267.75 140.73 263.83 140.44 C 267.17 139.19 270.88 138.59 273.89 136.77 C 270.02 136.68 266.18 136.36 262.47 137.54 C 259.54 138.44 256.97 138.84 253.91 138.85 C 256.94 136.12 260.91 135.26 264.13 132.98 C 265.17 130.76 262.84 131.00 261.50 131.58 C 256.83 133.69 251.59 132.76 246.89 131.23 C 236.38 126.75 227.87 117.39 223.03 107.18 C 226.74 108.93 229.95 110.89 234.04 111.73 C 245.32 114.17 257.73 111.47 269.09 113.61 C 271.58 113.93 273.59 114.80 275.85 113.17 C 276.97 113.25 278.10 113.32 279.22 113.37 C 278.38 112.18 277.51 111.01 276.64 109.84 C 276.43 108.26 276.49 106.82 275.51 105.48 C 270.45 97.87 264.67 90.94 259.03 83.81 C 268.69 88.90 277.09 97.73 283.71 106.32 C 285.94 109.12 287.84 112.00 290.83 114.09 L 292.06 115.32 C 291.97 115.74 291.87 116.17 291.76 116.59 C 292.36 117.96 292.97 119.32 293.56 120.69 C 293.48 117.99 293.74 115.50 294.31 112.86 C 295.49 106.32 296.99 100.06 300.15 94.15 C 307.32 80.00 321.85 69.44 336.00 62.99 C 340.01 61.44 344.07 58.93 348.38 58.50 Z"
     fill="#944901"
     id="path18" />
  <path
     d="M 253.25 79.42 C 255.32 77.97 256.65 79.63 258.53 80.48 C 271.96 88.33 283.92 100.06 290.83 114.09 C 287.84 112.00 285.94 109.12 283.71 106.32 C 277.09 97.73 268.69 88.90 259.03 83.81 C 264.67 90.94 270.45 97.87 275.51 105.48 C 276.49 106.82 276.43 108.26 276.64 109.84 C 275.05 108.26 273.48 106.68 272.20 104.82 C 267.05 97.42 261.37 90.34 255.47 83.52 C 254.49 82.24 253.32 81.12 253.25 79.42 Z"
     fill="#0a0604"
     id="path20" />
  <path
     d="M 220.00 100.01 C 223.58 105.09 228.97 108.27 235.00 109.54 C 247.55 112.18 263.93 107.94 275.85 113.17 C 273.59 114.80 271.58 113.93 269.09 113.61 C 257.73 111.47 245.32 114.17 234.04 111.73 C 229.95 110.89 226.74 108.93 223.03 107.18 C 227.87 117.39 236.38 126.75 246.89 131.23 C 251.59 132.76 256.83 133.69 261.50 131.58 C 262.84 131.00 265.17 130.76 264.13 132.98 C 260.91 135.26 256.94 136.12 253.91 138.85 C 256.97 138.84 259.54 138.44 262.47 137.54 C 266.18 136.36 270.02 136.68 273.89 136.77 C 270.88 138.59 267.17 139.19 263.83 140.44 C 253.10 143.08 242.56 147.41 232.99 152.96 C 228.88 155.39 225.19 157.92 223.61 162.68 C 220.07 172.94 211.72 182.27 200.84 184.69 C 190.31 187.37 179.18 187.96 168.44 189.55 C 151.75 191.88 135.21 195.27 118.99 199.90 C 105.91 203.72 93.46 208.09 80.48 212.51 C 73.91 217.19 68.78 224.32 65.65 231.72 C 62.55 238.96 59.99 246.89 59.61 254.81 C 59.52 257.69 58.87 260.44 58.25 263.24 C 61.16 268.10 65.72 272.34 69.00 277.02 C 69.86 278.20 70.68 279.52 71.77 280.48 C 76.82 280.98 81.93 280.47 86.99 280.95 C 93.71 281.66 100.39 281.53 107.02 283.02 C 116.98 284.50 126.96 286.26 137.01 287.05 C 143.47 287.41 149.55 282.95 154.92 279.86 C 165.89 273.30 177.26 268.07 190.00 266.10 C 199.77 264.51 210.04 265.14 219.81 266.43 C 227.74 267.40 234.12 264.85 241.92 263.56 C 234.38 257.78 226.15 252.85 217.99 248.00 C 209.34 242.87 200.14 238.73 191.64 233.37 C 188.18 231.59 184.78 231.01 182.25 227.72 C 179.77 225.11 180.05 222.19 180.14 218.84 C 181.35 216.58 182.80 214.43 184.36 212.39 C 185.59 211.61 186.81 210.81 187.99 209.94 C 185.78 213.63 182.72 216.52 182.38 220.99 C 182.01 224.00 184.08 226.95 186.61 228.38 C 193.19 232.30 200.14 235.57 206.88 239.21 C 226.57 249.73 246.17 261.03 261.93 277.09 C 275.32 290.02 286.04 306.35 295.86 322.09 C 304.40 336.57 313.07 353.31 315.35 370.11 C 315.39 381.21 317.26 391.88 316.01 403.01 C 315.50 415.01 312.38 427.01 306.54 437.54 C 300.26 448.72 291.50 457.62 281.55 465.57 C 272.37 473.32 262.23 478.98 251.77 484.77 C 245.16 488.33 239.32 492.91 233.05 497.07 C 228.73 501.19 225.53 506.78 222.69 512.00 L 220.12 512.00 C 222.78 507.02 225.09 502.22 229.37 498.37 C 241.24 486.00 258.63 479.49 272.51 469.54 C 278.73 465.19 284.62 460.39 289.95 454.97 C 294.17 450.65 298.87 446.16 302.00 440.98 C 305.67 434.20 309.11 427.53 311.04 420.00 C 314.04 408.01 314.76 395.30 313.85 383.00 C 313.39 377.39 314.25 372.65 312.62 367.41 C 311.19 360.57 308.65 353.92 306.23 347.37 C 286.22 350.31 266.87 355.66 247.53 361.45 C 235.84 363.71 225.25 368.15 214.06 372.05 C 207.85 374.20 201.91 376.99 196.14 380.11 C 188.64 384.15 181.03 388.06 173.82 392.59 C 173.07 393.04 172.32 393.52 171.59 394.00 C 171.21 394.49 170.83 394.97 170.46 395.47 C 167.58 395.54 165.01 398.20 162.61 399.63 C 157.40 402.97 153.20 407.40 148.50 411.32 C 142.31 413.18 135.38 413.07 128.99 412.64 C 121.74 411.72 113.79 409.19 110.29 402.18 C 108.77 404.24 107.71 407.15 105.60 408.63 C 102.13 409.40 103.44 405.04 103.06 403.06 C 101.58 403.21 100.50 404.24 99.42 402.71 C 98.49 398.58 98.20 394.61 95.80 390.95 L 95.54 388.43 C 99.68 390.01 100.41 396.55 101.36 400.28 C 103.25 398.39 102.94 394.15 105.82 393.98 C 105.91 397.73 105.54 401.44 105.33 405.17 C 107.15 403.06 108.04 400.62 109.01 398.06 C 109.18 397.16 109.78 396.88 110.83 397.21 C 112.37 400.79 113.32 404.02 116.83 406.22 C 124.52 411.19 135.54 411.33 144.29 409.82 C 142.39 408.74 140.49 407.74 138.90 406.21 C 142.44 406.01 145.60 406.73 148.92 407.86 C 156.93 400.24 166.07 394.09 175.72 388.75 C 187.00 382.81 196.74 375.95 209.07 372.17 C 224.67 365.66 240.51 360.08 257.16 356.88 C 264.38 355.73 271.31 352.37 278.45 350.51 C 287.30 348.27 296.20 346.73 305.15 345.07 C 303.22 339.90 300.44 335.01 297.82 330.16 C 292.71 321.17 287.33 312.19 281.04 303.98 C 276.14 307.70 270.61 310.10 265.50 313.45 C 258.01 317.85 249.82 321.27 241.87 324.75 C 225.32 331.85 209.07 339.38 193.52 348.51 C 182.09 354.99 170.99 362.06 159.63 368.64 C 155.96 370.10 153.32 372.39 150.25 374.74 C 141.67 377.50 133.09 379.75 124.00 379.60 C 117.03 379.46 109.74 380.14 103.10 378.52 C 101.97 378.25 100.85 377.95 99.73 377.63 C 102.32 375.74 105.86 376.97 108.83 377.14 C 113.87 377.48 119.06 377.62 124.09 376.97 C 130.84 377.25 137.21 375.88 143.76 374.47 C 141.59 371.29 137.88 370.53 135.54 367.48 C 131.94 364.02 129.59 359.85 126.63 355.92 C 124.40 363.01 126.31 369.40 126.57 376.46 C 123.95 375.33 123.95 372.91 122.07 370.92 C 118.59 366.71 115.38 361.46 110.92 358.27 C 109.88 359.29 108.75 359.89 108.48 361.44 C 107.66 365.52 108.57 369.27 110.05 373.05 C 110.13 373.95 110.22 374.85 110.32 375.75 C 109.74 375.59 109.15 375.42 108.56 375.25 C 107.97 373.94 107.27 372.82 106.39 371.70 C 101.82 368.71 99.59 362.47 94.95 359.39 C 92.94 363.17 93.11 368.05 93.97 372.12 C 94.12 373.00 94.48 373.64 95.05 374.03 C 96.34 374.94 97.68 375.75 99.02 376.58 C 98.03 376.68 97.04 376.77 96.04 376.87 C 96.36 377.50 96.67 378.13 96.97 378.76 L 96.24 380.47 C 95.41 379.96 94.58 379.45 93.74 378.94 C 93.78 381.05 95.83 384.91 93.14 385.93 C 92.21 383.67 91.42 381.46 91.20 379.01 C 91.11 376.58 92.03 374.45 91.59 372.01 C 91.05 368.01 90.67 363.12 92.40 359.37 C 93.00 358.06 94.37 357.10 95.86 357.44 C 97.99 358.19 99.25 360.06 100.53 361.80 C 99.47 354.61 101.85 346.82 105.82 340.84 C 107.09 339.06 108.91 338.93 109.73 341.13 C 110.54 342.06 110.82 345.64 112.43 344.65 C 113.87 339.93 115.43 335.33 118.00 331.08 C 120.08 327.29 122.88 324.04 125.16 320.38 C 118.72 316.56 113.73 310.04 110.89 303.17 C 110.15 303.98 109.41 304.83 108.58 305.56 C 107.14 306.27 105.53 305.62 104.52 304.48 C 102.04 301.61 100.79 297.35 99.27 293.90 C 98.58 296.53 99.04 302.67 94.97 302.45 C 90.66 301.00 87.80 295.57 85.43 291.96 C 84.33 294.22 82.91 296.36 80.08 294.82 C 76.21 292.55 73.75 287.44 72.12 283.43 C 72.87 283.42 73.61 283.43 74.35 283.44 C 76.03 286.24 78.49 292.22 81.93 292.91 C 83.87 291.14 84.63 286.11 84.56 283.53 C 79.66 282.05 74.43 283.12 69.48 281.38 C 69.72 280.90 69.97 280.42 70.21 279.94 C 66.73 277.29 63.52 274.55 61.29 270.70 C 59.83 268.04 57.62 265.09 57.41 262.00 C 56.50 254.64 57.96 247.05 60.08 240.02 C 62.16 233.36 64.99 226.73 68.96 220.98 C 71.51 217.24 74.99 215.25 78.19 212.17 C 80.73 209.53 84.77 208.74 88.15 207.45 C 99.02 203.56 110.08 200.30 121.03 196.69 C 107.34 193.44 94.20 189.22 80.13 187.38 C 72.17 186.06 63.09 183.99 55.13 186.16 C 46.15 188.70 38.18 195.18 31.77 201.77 C 18.99 215.73 8.74 231.44 0.00 248.19 L 0.00 242.39 C 3.37 238.56 5.09 234.03 7.77 229.76 C 13.45 220.66 19.78 211.91 26.80 203.79 C 33.32 196.32 40.56 189.86 49.63 185.63 C 56.13 182.67 63.03 182.39 70.02 183.38 C 78.09 184.53 86.13 185.73 94.03 187.79 C 104.82 189.54 115.27 193.57 126.00 195.25 C 128.87 194.76 132.68 194.51 135.04 192.69 C 124.38 191.40 113.88 187.90 103.84 184.18 C 97.83 182.54 91.92 180.60 85.84 179.25 C 78.92 177.14 71.25 177.15 64.08 177.44 C 48.19 178.98 34.56 187.35 23.89 198.90 C 19.08 203.94 14.96 209.43 11.33 215.38 C 6.60 222.34 3.85 229.99 0.00 237.27 L 0.00 231.53 C 4.48 222.71 9.12 213.47 15.12 205.06 C 22.57 196.22 31.02 187.78 41.27 182.27 C 51.64 176.23 64.11 173.81 75.99 175.24 C 92.03 176.75 108.46 184.15 123.85 188.22 C 130.47 190.03 137.17 190.51 143.98 191.04 C 150.02 190.48 155.99 188.94 162.02 188.17 C 174.63 185.99 187.73 185.47 200.14 182.50 C 208.30 180.61 214.72 174.97 218.79 167.80 C 220.56 164.73 221.35 161.19 223.21 158.20 C 225.71 154.31 230.52 151.70 234.46 149.46 C 240.25 146.38 246.36 143.31 252.75 141.74 C 251.84 140.55 250.79 139.95 251.23 138.24 C 252.23 137.13 253.61 136.28 254.84 135.43 C 246.43 134.56 239.15 130.67 233.10 124.88 C 226.20 118.26 220.79 109.84 217.62 100.82 C 216.60 98.83 219.22 98.53 220.00 100.01 Z"
     fill="#0a0604"
     id="path22" />
  <path
     d="M 263.83 140.44 C 267.75 140.73 271.52 140.71 275.31 141.87 C 274.29 142.87 273.25 143.87 272.22 144.87 C 277.26 143.91 281.58 141.39 286.83 141.23 C 285.69 142.38 284.52 143.51 283.36 144.65 C 286.56 146.04 288.88 144.54 292.04 144.88 C 295.04 145.09 297.96 144.05 301.00 143.98 C 304.44 143.89 307.86 143.93 311.29 143.52 C 315.24 143.76 319.00 144.82 322.99 144.67 C 330.57 144.52 337.53 146.28 344.75 148.31 C 350.74 149.78 355.84 153.22 361.89 154.60 C 362.59 157.22 364.79 158.03 366.35 160.16 C 363.41 160.32 360.47 160.34 357.53 160.48 C 359.42 161.45 360.76 161.64 362.86 161.68 C 372.97 163.36 382.86 166.16 393.00 167.75 C 416.25 171.67 440.41 174.78 464.00 174.30 C 479.66 174.07 496.56 171.89 512.00 174.79 L 512.00 180.59 C 508.24 181.14 504.48 181.32 500.69 181.56 C 490.42 182.79 480.24 185.17 470.53 188.73 C 468.43 189.44 466.19 190.75 463.96 190.77 C 461.25 189.74 459.00 188.21 455.99 188.14 C 458.78 191.59 462.52 192.54 466.24 194.58 C 460.97 196.99 454.16 196.68 448.45 197.47 C 446.20 197.83 443.58 197.80 441.70 199.12 L 440.40 200.00 C 441.03 201.17 441.89 201.83 442.98 201.99 C 448.88 203.29 455.10 202.77 461.02 204.27 C 460.41 207.31 458.00 208.28 455.49 209.52 C 444.87 214.13 432.32 213.80 421.70 209.34 C 416.96 207.23 412.27 205.51 408.00 202.50 C 409.85 204.55 411.91 206.29 414.18 207.87 C 413.94 208.48 413.70 209.10 413.47 209.71 C 415.29 211.80 417.24 213.70 419.57 215.23 C 420.42 215.82 421.28 216.40 422.14 216.98 C 420.62 216.99 419.27 217.29 418.08 218.28 C 405.15 215.78 392.79 209.05 382.08 201.56 C 385.79 205.33 389.95 208.45 394.17 211.61 C 396.39 215.62 399.61 218.65 401.17 223.08 C 404.51 230.49 409.42 237.10 415.48 242.52 C 418.74 245.28 422.66 247.77 426.99 248.28 C 429.72 248.70 432.16 247.91 434.79 247.31 C 431.26 252.07 427.17 255.93 422.43 259.45 C 421.13 260.28 421.01 261.73 422.34 262.59 C 428.38 265.89 435.76 267.64 441.28 271.83 C 435.86 271.82 430.28 270.25 425.00 269.05 C 420.72 268.09 417.37 266.18 413.00 266.14 C 413.60 269.48 416.26 271.10 418.19 273.86 C 423.67 281.19 427.56 290.73 426.79 300.01 C 426.51 303.08 425.96 306.22 423.31 308.16 C 421.40 303.23 418.84 298.64 415.29 294.69 C 414.64 293.95 413.72 293.54 412.55 293.47 C 413.17 297.17 415.12 300.36 415.78 304.05 C 417.20 310.33 415.41 317.04 411.43 322.04 C 410.41 318.46 410.12 313.96 407.98 310.88 C 407.31 310.25 406.48 310.45 405.48 311.47 C 404.91 317.57 408.53 323.94 407.02 329.80 C 402.50 329.20 398.53 328.12 393.98 329.39 C 392.66 329.57 392.02 330.35 391.16 331.24 C 395.46 331.21 399.73 331.15 404.01 331.66 C 405.28 331.68 407.14 332.07 408.22 331.27 C 410.03 329.16 409.22 326.84 409.15 324.32 C 410.29 324.82 411.70 326.17 412.62 324.60 C 417.73 318.34 419.26 310.86 418.32 302.91 C 419.62 305.22 420.41 307.98 422.03 310.06 C 424.09 311.86 426.44 309.05 427.27 307.26 C 431.09 299.22 428.90 289.35 425.47 281.55 C 423.74 277.22 420.74 273.87 418.40 269.92 C 426.71 271.28 436.50 275.49 444.89 273.79 C 444.66 272.37 445.05 271.22 443.67 270.31 C 437.91 266.28 430.66 264.16 424.37 261.03 C 429.58 256.87 434.25 252.28 437.95 246.70 C 440.63 246.68 443.31 246.66 445.99 246.54 C 444.43 244.61 442.33 243.95 440.20 242.82 L 439.73 242.02 C 442.89 241.93 446.29 242.13 449.40 241.50 C 453.31 240.56 457.13 238.91 460.67 237.05 C 459.15 236.13 457.62 235.23 456.09 234.34 C 459.65 233.19 463.22 232.08 466.68 230.66 C 464.18 229.40 461.77 227.99 459.33 226.64 C 456.01 224.80 452.32 224.16 448.91 222.48 C 452.58 221.92 456.02 222.09 459.28 220.28 C 462.77 218.30 466.01 215.81 469.02 213.16 C 465.05 213.13 461.06 213.23 457.10 213.56 C 453.70 213.85 450.95 215.29 447.49 214.37 C 452.62 213.20 459.64 211.42 462.75 206.78 C 464.11 205.05 462.85 202.63 460.98 201.96 C 457.49 200.79 453.45 200.84 449.81 200.65 C 449.69 200.27 449.57 199.89 449.45 199.51 C 455.99 198.97 462.05 199.02 468.28 196.59 C 469.86 193.28 467.38 193.44 466.22 190.79 C 476.30 188.76 486.20 186.06 496.39 184.49 C 501.64 183.80 506.69 182.34 512.00 182.04 L 512.00 208.87 C 506.01 211.80 501.20 216.23 495.34 219.31 C 485.57 225.71 476.18 232.29 466.34 238.33 C 465.93 239.45 466.13 240.15 466.93 240.41 C 470.76 239.24 473.77 237.27 477.97 238.06 C 477.69 240.26 477.50 242.23 475.91 243.93 C 470.88 249.97 461.95 250.81 454.87 248.52 C 453.50 248.29 452.50 247.13 451.39 248.34 C 455.52 252.61 461.48 255.33 466.25 258.80 C 458.96 261.26 450.45 260.67 442.99 259.24 C 439.26 258.65 435.93 256.88 432.19 256.36 C 438.02 260.36 444.44 262.10 451.40 262.87 C 451.81 272.67 450.72 282.26 449.94 292.00 C 448.73 303.60 446.80 314.97 443.30 326.12 C 440.24 335.73 435.94 344.53 431.44 353.51 C 427.99 360.18 425.69 367.00 421.12 373.07 C 414.83 381.70 408.17 390.14 401.42 398.42 C 398.25 402.35 394.29 403.98 392.30 408.50 C 389.90 412.52 386.39 415.85 383.71 419.71 C 381.12 422.71 380.02 426.48 377.58 429.56 C 371.21 438.12 367.12 447.74 364.04 457.90 C 363.49 459.89 362.91 461.92 362.72 463.98 C 362.22 474.43 361.69 484.58 363.07 495.00 C 363.87 500.64 364.22 506.52 365.84 512.00 L 233.31 512.00 C 235.06 506.50 238.63 502.48 243.38 499.32 C 247.64 496.43 252.72 494.50 257.41 492.41 C 262.76 490.02 267.69 486.87 272.91 484.32 C 272.61 488.19 272.83 492.33 271.86 496.04 C 270.80 500.60 270.07 505.08 271.12 509.71 C 271.82 507.21 272.74 504.70 273.18 502.14 C 273.75 497.08 273.14 491.85 273.32 486.84 C 273.30 485.31 274.90 483.99 275.87 482.94 C 280.21 478.90 285.24 475.65 289.58 471.59 C 304.18 458.29 316.26 441.02 321.98 422.01 C 327.47 404.57 328.08 385.85 324.23 368.01 C 322.82 360.38 320.02 353.27 317.85 345.87 C 323.19 344.91 328.60 344.73 333.96 343.88 C 338.75 344.38 343.17 343.21 347.81 342.27 C 344.35 340.84 340.03 341.27 336.46 342.13 C 329.78 342.12 323.44 342.70 316.82 343.50 C 310.43 328.75 302.80 314.61 293.61 301.41 C 292.37 299.64 291.00 297.86 290.01 295.93 C 290.27 294.80 291.32 293.88 292.02 293.00 C 296.08 288.43 300.27 283.48 302.96 277.97 C 303.58 276.69 303.12 275.02 303.80 273.77 C 306.54 269.27 310.59 264.16 311.60 258.89 C 312.02 256.67 311.19 254.91 309.72 253.31 C 307.16 250.63 303.71 248.56 300.02 248.00 C 286.36 245.04 271.45 243.57 257.87 247.61 C 254.16 248.55 251.11 251.08 247.44 251.83 C 246.00 251.78 244.57 250.38 243.36 249.66 C 231.51 241.28 218.51 235.25 205.02 230.03 C 200.81 228.26 195.82 226.68 192.35 223.64 C 190.71 222.27 190.85 219.74 192.15 218.18 C 194.80 214.89 197.87 211.75 201.49 209.52 L 200.37 209.25 C 197.77 205.37 190.72 206.82 187.99 209.94 C 186.81 210.81 185.59 211.61 184.36 212.39 L 182.45 212.82 C 181.60 213.91 180.86 215.03 179.95 216.06 C 176.99 216.85 174.03 217.45 171.19 218.65 C 174.17 218.77 177.16 218.81 180.14 218.84 C 180.05 222.19 179.77 225.11 182.25 227.72 C 184.78 231.01 188.18 231.59 191.64 233.37 C 200.14 238.73 209.34 242.87 217.99 248.00 C 226.15 252.85 234.38 257.78 241.92 263.56 C 234.12 264.85 227.74 267.40 219.81 266.43 C 210.04 265.14 199.77 264.51 190.00 266.10 C 177.26 268.07 165.89 273.30 154.92 279.86 C 149.55 282.95 143.47 287.41 137.01 287.05 C 126.96 286.26 116.98 284.50 107.02 283.02 C 100.39 281.53 93.71 281.66 86.99 280.95 C 81.93 280.47 76.82 280.98 71.77 280.48 C 70.68 279.52 69.86 278.20 69.00 277.02 C 65.72 272.34 61.16 268.10 58.25 263.24 C 58.87 260.44 59.52 257.69 59.61 254.81 C 59.99 246.89 62.55 238.96 65.65 231.72 C 68.78 224.32 73.91 217.19 80.48 212.51 C 93.46 208.09 105.91 203.72 118.99 199.90 C 135.21 195.27 151.75 191.88 168.44 189.55 C 179.18 187.96 190.31 187.37 200.84 184.69 C 211.72 182.27 220.07 172.94 223.61 162.68 C 225.19 157.92 228.88 155.39 232.99 152.96 C 242.56 147.41 253.10 143.08 263.83 140.44 Z"
     fill="#c39112"
     id="path24" />
  <path
     d="M 349.70 141.48 C 345.97 142.37 341.77 142.33 338.78 144.74 C 345.22 146.58 351.38 148.97 357.54 151.55 C 363.82 153.19 370.41 153.34 376.76 154.77 C 372.13 156.24 366.59 155.45 361.89 154.60 C 355.84 153.22 350.74 149.78 344.75 148.31 C 337.53 146.28 330.57 144.52 322.99 144.67 C 319.00 144.82 315.24 143.76 311.29 143.52 C 309.55 143.23 307.85 142.85 306.12 142.48 C 314.23 142.58 321.99 141.87 330.00 143.23 C 336.60 142.45 343.02 141.40 349.70 141.48 Z"
     fill="#0a0604"
     id="path26" />
  <path
     d="M 273.48 157.41 C 282.80 160.14 291.90 163.70 301.07 166.93 C 307.17 169.03 313.05 171.68 318.82 174.57 C 314.41 174.05 310.04 172.65 305.85 171.18 C 296.56 167.77 287.30 164.30 277.90 161.20 C 272.20 159.41 265.91 157.24 259.91 158.69 C 255.77 159.98 252.18 162.71 248.16 164.37 C 250.40 161.70 252.50 159.18 255.79 157.75 C 261.59 154.95 267.50 155.74 273.48 157.41 Z"
     fill="#0a0604"
     id="path28" />
  <path
     d="M 64.08 177.44 C 71.25 177.15 78.92 177.14 85.84 179.25 C 91.92 180.60 97.83 182.54 103.84 184.18 C 113.88 187.90 124.38 191.40 135.04 192.69 C 132.68 194.51 128.87 194.76 126.00 195.25 C 115.27 193.57 104.82 189.54 94.03 187.79 C 86.13 185.73 78.09 184.53 70.02 183.38 C 63.03 182.39 56.13 182.67 49.63 185.63 C 40.56 189.86 33.32 196.32 26.80 203.79 C 19.78 211.91 13.45 220.66 7.77 229.76 C 5.09 234.03 3.37 238.56 0.00 242.39 L 0.00 237.27 C 3.85 229.99 6.60 222.34 11.33 215.38 C 14.96 209.43 19.08 203.94 23.89 198.90 C 34.56 187.35 48.19 178.98 64.08 177.44 Z"
     fill="#944901"
     id="path30" />
  <path
     d="M 255.00 177.70 C 259.72 177.74 263.13 180.50 267.74 181.36 C 262.36 181.47 257.23 179.84 251.91 179.69 C 249.55 180.40 248.81 182.98 247.91 184.99 C 246.72 188.47 245.25 191.83 243.99 195.29 C 242.27 200.30 240.84 205.75 240.80 211.08 C 241.75 215.41 247.26 216.61 251.00 217.03 C 272.05 219.06 294.17 211.87 311.97 200.91 C 314.68 198.86 313.95 195.92 310.85 194.67 C 312.68 193.81 313.64 193.99 315.51 194.47 C 315.87 195.62 316.24 196.77 316.61 197.92 C 318.62 196.31 321.48 195.10 322.17 192.49 C 320.71 192.57 319.31 192.82 317.97 193.24 C 311.23 193.61 304.65 192.84 297.90 193.87 C 294.56 194.00 291.23 194.27 287.90 194.45 C 283.72 194.57 279.54 194.63 275.36 194.56 C 274.74 198.16 273.83 201.39 270.72 203.63 C 267.87 205.46 264.81 204.77 261.64 204.57 C 259.40 203.52 257.49 202.76 256.39 200.37 C 258.11 199.65 259.02 199.90 258.12 197.94 C 257.10 196.49 255.66 196.56 254.09 196.12 C 254.25 194.74 254.42 193.35 254.60 191.97 C 252.47 191.31 249.12 191.22 247.69 189.32 C 251.70 189.00 255.16 190.40 258.99 191.19 C 276.42 193.59 292.67 191.89 310.00 190.58 C 314.17 190.00 317.80 191.34 321.87 191.86 C 323.35 192.02 323.73 193.85 322.84 194.85 C 320.08 198.03 316.62 200.89 313.05 203.12 C 298.35 211.67 282.15 218.00 265.10 219.54 C 256.40 220.06 248.22 220.40 240.39 215.93 C 241.66 218.89 244.28 220.90 245.77 223.78 C 242.72 222.08 240.20 219.64 238.77 216.41 C 238.19 212.15 238.54 207.65 239.61 203.48 C 240.51 199.87 242.22 196.63 242.91 192.96 C 243.69 188.67 245.36 184.77 246.59 180.61 C 249.36 179.12 251.66 177.42 255.00 177.70 Z"
     fill="#0a0604"
     id="path32" />
  <path
     d="M 512.00 180.59 L 512.00 182.04 C 506.69 182.34 501.64 183.80 496.39 184.49 C 486.20 186.06 476.30 188.76 466.22 190.79 C 467.38 193.44 469.86 193.28 468.28 196.59 C 467.63 195.89 466.95 195.22 466.24 194.58 C 462.52 192.54 458.78 191.59 455.99 188.14 C 459.00 188.21 461.25 189.74 463.96 190.77 C 466.19 190.75 468.43 189.44 470.53 188.73 C 480.24 185.17 490.42 182.79 500.69 181.56 C 504.48 181.32 508.24 181.14 512.00 180.59 Z"
     fill="#0a0604"
     id="path34" />
  <path
     d="M 80.13 187.38 C 94.20 189.22 107.34 193.44 121.03 196.69 C 110.08 200.30 99.02 203.56 88.15 207.45 C 84.77 208.74 80.73 209.53 78.19 212.17 C 74.99 215.25 71.51 217.24 68.96 220.98 C 64.99 226.73 62.16 233.36 60.08 240.02 C 57.96 247.05 56.50 254.64 57.41 262.00 C 57.62 265.09 59.83 268.04 61.29 270.70 C 63.52 274.55 66.73 277.29 70.21 279.94 C 69.97 280.42 69.72 280.90 69.48 281.38 C 74.43 283.12 79.66 282.05 84.56 283.53 C 84.63 286.11 83.87 291.14 81.93 292.91 C 78.49 292.22 76.03 286.24 74.35 283.44 C 73.61 283.43 72.87 283.42 72.12 283.43 C 73.75 287.44 76.21 292.55 80.08 294.82 C 82.91 296.36 84.33 294.22 85.43 291.96 C 87.80 295.57 90.66 301.00 94.97 302.45 C 99.04 302.67 98.58 296.53 99.27 293.90 C 100.79 297.35 102.04 301.61 104.52 304.48 C 105.53 305.62 107.14 306.27 108.58 305.56 C 109.41 304.83 110.15 303.98 110.89 303.17 C 113.73 310.04 118.72 316.56 125.16 320.38 C 122.88 324.04 120.08 327.29 118.00 331.08 C 115.43 335.33 113.87 339.93 112.43 344.65 C 110.82 345.64 110.54 342.06 109.73 341.13 C 108.91 338.93 107.09 339.06 105.82 340.84 C 101.85 346.82 99.47 354.61 100.53 361.80 C 99.25 360.06 97.99 358.19 95.86 357.44 C 94.37 357.10 93.00 358.06 92.40 359.37 C 90.67 363.12 91.05 368.01 91.59 372.01 C 92.03 374.45 91.11 376.58 91.20 379.01 C 91.42 381.46 92.21 383.67 93.14 385.93 C 93.87 387.69 94.82 389.32 95.80 390.95 C 98.20 394.61 98.49 398.58 99.42 402.71 C 100.50 404.24 101.58 403.21 103.06 403.06 C 103.44 405.04 102.13 409.40 105.60 408.63 C 107.71 407.15 108.77 404.24 110.29 402.18 C 113.79 409.19 121.74 411.72 128.99 412.64 C 135.38 413.07 142.31 413.18 148.50 411.32 C 153.20 407.40 157.40 402.97 162.61 399.63 C 165.01 398.20 167.58 395.54 170.46 395.47 C 170.83 394.97 171.21 394.49 171.59 394.00 C 171.53 394.80 171.47 395.59 171.41 396.39 C 170.88 396.17 170.35 395.95 169.81 395.73 L 170.12 398.01 C 170.31 404.16 168.06 410.55 164.66 415.64 C 157.82 426.07 148.53 435.61 142.58 446.56 C 139.51 452.88 135.06 461.00 136.08 468.18 C 133.03 468.73 130.02 468.57 126.95 468.62 C 125.59 469.24 126.18 471.12 126.86 472.07 C 127.89 473.69 129.08 475.22 130.19 476.78 C 129.80 480.67 131.97 483.11 133.69 486.32 C 135.45 489.49 137.84 492.26 139.58 495.43 C 140.58 497.93 141.13 500.60 142.16 503.11 C 143.21 506.17 144.55 509.12 146.03 512.00 L 141.51 512.00 C 140.62 508.90 138.74 506.25 137.86 503.14 C 136.52 499.54 135.95 495.38 133.50 492.50 C 130.86 489.24 129.14 485.54 127.02 481.96 C 126.34 480.79 126.25 479.26 125.93 477.96 C 125.48 475.14 122.64 472.91 122.14 470.12 C 123.54 468.29 125.28 466.49 127.10 465.08 C 128.51 464.46 130.22 464.55 131.73 464.37 C 134.30 451.14 142.27 438.97 150.76 428.75 C 154.43 423.75 158.51 418.96 161.69 413.64 C 163.93 410.01 164.83 406.13 165.74 402.02 C 159.03 405.47 154.47 410.95 148.41 415.25 C 145.00 416.76 140.67 416.56 137.00 416.88 C 127.12 417.15 117.75 415.96 110.79 408.25 C 109.20 409.78 107.71 411.55 105.89 412.83 C 104.75 413.02 103.76 411.70 102.96 411.04 C 100.16 408.17 97.65 405.00 94.96 402.02 C 94.32 399.90 94.25 397.62 93.68 395.48 C 92.58 391.21 89.23 388.40 88.20 383.99 C 87.29 379.78 87.15 375.29 87.13 370.99 C 87.53 366.28 88.76 361.61 89.68 356.98 C 91.01 355.87 92.27 354.73 93.50 353.51 C 94.58 353.28 95.66 353.05 96.75 352.83 C 98.53 345.83 100.96 339.45 107.12 335.17 C 108.48 335.25 109.73 336.45 110.89 337.11 C 113.18 331.35 116.69 326.45 120.09 321.33 C 115.91 317.80 112.77 313.55 109.76 309.02 C 108.39 309.35 106.82 310.24 105.48 309.48 C 103.31 307.95 101.53 305.80 99.71 303.89 C 98.48 304.68 96.66 307.05 95.16 306.72 C 91.05 305.19 87.66 301.04 84.79 297.85 C 83.63 298.53 82.45 299.47 81.14 299.81 C 74.98 295.43 70.22 289.64 67.33 282.64 C 61.71 277.36 56.89 271.97 53.65 264.87 C 51.95 254.39 54.34 242.92 58.29 233.15 C 61.23 227.34 64.02 220.30 68.81 215.81 C 71.47 213.08 74.75 211.14 77.49 208.47 C 80.49 205.55 84.18 204.70 88.01 203.19 C 93.94 201.01 100.18 199.48 105.95 196.91 C 93.81 193.76 81.44 191.36 69.01 189.73 C 60.22 188.39 51.05 190.56 43.81 195.74 C 33.51 202.51 27.59 211.77 20.38 221.42 C 15.59 228.54 10.87 235.37 7.10 243.10 C 5.39 246.58 2.65 248.59 0.00 251.27 L 0.00 248.19 C 8.74 231.44 18.99 215.73 31.77 201.77 C 38.18 195.18 46.15 188.70 55.13 186.16 C 63.09 183.99 72.17 186.06 80.13 187.38 Z"
     fill="#fefefe"
     id="path36" />
  <path
     d="M 317.97 193.24 C 319.31 192.82 320.71 192.57 322.17 192.49 C 321.48 195.10 318.62 196.31 316.61 197.92 C 316.24 196.77 315.87 195.62 315.51 194.47 C 313.64 193.99 312.68 193.81 310.85 194.67 C 306.54 193.99 302.23 194.23 297.90 193.87 C 304.65 192.84 311.23 193.61 317.97 193.24 Z"
     fill="#f4db8f"
     id="path40" />
  <path
     d="M 287.90 194.45 C 291.23 194.27 294.56 194.00 297.90 193.87 C 302.23 194.23 306.54 193.99 310.85 194.67 C 313.95 195.92 314.68 198.86 311.97 200.91 C 294.17 211.87 272.05 219.06 251.00 217.03 C 247.26 216.61 241.75 215.41 240.80 211.08 C 240.84 205.75 242.27 200.30 243.99 195.29 C 246.08 198.04 246.75 201.28 249.22 203.78 C 254.62 209.98 263.07 213.17 271.01 210.05 C 277.56 207.73 281.33 201.77 281.97 195.03 C 283.94 194.83 285.92 194.62 287.90 194.45 Z"
     fill="#f4db8f"
     id="path42" />
  <path
     d="M 466.24 194.58 C 466.95 195.22 467.63 195.89 468.28 196.59 C 462.05 199.02 455.99 198.97 449.45 199.51 C 449.57 199.89 449.69 200.27 449.81 200.65 C 447.01 200.42 444.46 199.59 441.70 199.12 C 443.58 197.80 446.20 197.83 448.45 197.47 C 454.16 196.68 460.97 196.99 466.24 194.58 Z"
     fill="#944901"
     id="path44" />
  <path
     d="M 254.09 196.12 C 255.66 196.56 257.10 196.49 258.12 197.94 C 259.02 199.90 258.11 199.65 256.39 200.37 C 255.13 200.23 253.86 200.08 252.59 199.93 C 252.25 197.82 251.83 197.08 254.09 196.12 Z"
     fill="#fefefe"
     id="path46" />
  <path
     d="M 441.70 199.12 C 444.46 199.59 447.01 200.42 449.81 200.65 C 453.45 200.84 457.49 200.79 460.98 201.96 C 462.85 202.63 464.11 205.05 462.75 206.78 C 459.64 211.42 452.62 213.20 447.49 214.37 C 444.31 214.58 441.16 215.26 438.00 215.24 C 429.54 215.01 421.21 212.65 414.18 207.87 C 411.91 206.29 409.85 204.55 408.00 202.50 C 412.27 205.51 416.96 207.23 421.70 209.34 C 432.32 213.80 444.87 214.13 455.49 209.52 C 458.00 208.28 460.41 207.31 461.02 204.27 C 455.10 202.77 448.88 203.29 442.98 201.99 C 441.89 201.83 441.03 201.17 440.40 200.00 L 441.70 199.12 Z"
     fill="#0a0604"
     id="path48" />
  <path
     d="M 252.59 199.93 C 253.86 200.08 255.13 200.23 256.39 200.37 C 257.49 202.76 259.40 203.52 261.64 204.57 C 267.45 207.26 272.06 204.60 276.79 201.29 C 276.67 201.96 276.55 202.63 276.43 203.31 C 274.10 205.05 272.01 207.26 269.02 207.73 C 264.81 208.86 259.81 207.99 255.99 205.98 C 253.58 204.56 253.30 202.42 252.59 199.93 Z"
     fill="#f4db8f"
     id="path50" />
  <path
     d="M 382.08 201.56 C 392.79 209.05 405.15 215.78 418.08 218.28 C 419.96 218.75 421.85 218.98 423.78 218.67 C 423.42 217.98 422.88 217.42 422.14 216.98 C 421.28 216.40 420.42 215.82 419.57 215.23 C 419.48 214.51 419.39 213.79 419.30 213.07 C 422.32 214.33 427.25 216.80 426.84 220.70 C 425.26 220.97 423.59 221.40 422.00 221.30 C 411.82 220.30 403.08 216.34 394.17 211.61 C 389.95 208.45 385.79 205.33 382.08 201.56 Z"
     fill="#0a0604"
     id="path52" />
  <path
     d="M 200.37 209.25 C 196.39 211.42 191.64 214.23 189.31 218.25 C 187.22 222.30 190.79 225.94 194.12 227.77 C 202.24 232.00 211.27 234.30 219.41 238.58 C 244.48 249.99 266.34 269.24 283.12 290.91 C 296.60 307.95 307.60 327.07 315.66 347.26 C 320.67 360.93 324.83 375.30 324.35 390.00 C 324.74 412.78 316.85 435.06 303.22 453.20 C 300.43 456.73 297.62 460.25 294.65 463.63 C 281.28 477.48 264.91 487.21 247.15 494.34 C 240.39 498.32 232.37 503.50 231.32 512.00 L 222.69 512.00 C 225.53 506.78 228.73 501.19 233.05 497.07 C 239.32 492.91 245.16 488.33 251.77 484.77 C 262.23 478.98 272.37 473.32 281.55 465.57 C 291.50 457.62 300.26 448.72 306.54 437.54 C 312.38 427.01 315.50 415.01 316.01 403.01 C 317.26 391.88 315.39 381.21 315.35 370.11 C 313.07 353.31 304.40 336.57 295.86 322.09 C 286.04 306.35 275.32 290.02 261.93 277.09 C 246.17 261.03 226.57 249.73 206.88 239.21 C 200.14 235.57 193.19 232.30 186.61 228.38 C 184.08 226.95 182.01 224.00 182.38 220.99 C 182.72 216.52 185.78 213.63 187.99 209.94 C 190.72 206.82 197.77 205.37 200.37 209.25 Z"
     fill="#944901"
     id="path54" />
  <path
     d="M 414.18 207.87 C 421.21 212.65 429.54 215.01 438.00 215.24 C 441.16 215.26 444.31 214.58 447.49 214.37 C 450.95 215.29 453.70 213.85 457.10 213.56 C 461.06 213.23 465.05 213.13 469.02 213.16 C 466.01 215.81 462.77 218.30 459.28 220.28 C 456.02 222.09 452.58 221.92 448.91 222.48 C 452.32 224.16 456.01 224.80 459.33 226.64 C 461.77 227.99 464.18 229.40 466.68 230.66 C 463.22 232.08 459.65 233.19 456.09 234.34 C 457.62 235.23 459.15 236.13 460.67 237.05 C 457.13 238.91 453.31 240.56 449.40 241.50 C 446.29 242.13 442.89 241.93 439.73 242.02 C 436.11 242.06 434.57 245.31 431.01 245.94 C 426.28 247.22 421.70 244.69 418.08 241.86 C 411.35 236.36 406.36 228.27 401.32 221.23 L 401.17 223.08 C 399.61 218.65 396.39 215.62 394.17 211.61 C 403.08 216.34 411.82 220.30 422.00 221.30 C 423.59 221.40 425.26 220.97 426.84 220.70 C 427.25 216.80 422.32 214.33 419.30 213.07 C 419.39 213.79 419.48 214.51 419.57 215.23 C 417.24 213.70 415.29 211.80 413.47 209.71 C 413.70 209.10 413.94 208.48 414.18 207.87 Z"
     fill="#944901"
     id="path56" />
  <path
     d="M 200.37 209.25 L 201.49 209.52 C 197.87 211.75 194.80 214.89 192.15 218.18 C 190.85 219.74 190.71 222.27 192.35 223.64 C 195.82 226.68 200.81 228.26 205.02 230.03 C 218.51 235.25 231.51 241.28 243.36 249.66 C 244.57 250.38 246.00 251.78 247.44 251.83 C 251.11 251.08 254.16 248.55 257.87 247.61 C 271.45 243.57 286.36 245.04 300.02 248.00 C 303.71 248.56 307.16 250.63 309.72 253.31 C 311.19 254.91 312.02 256.67 311.60 258.89 C 310.59 264.16 306.54 269.27 303.80 273.77 C 303.12 275.02 303.58 276.69 302.96 277.97 C 300.27 283.48 296.08 288.43 292.02 293.00 C 291.32 293.88 290.27 294.80 290.01 295.93 C 291.00 297.86 292.37 299.64 293.61 301.41 C 302.80 314.61 310.43 328.75 316.82 343.50 C 323.44 342.70 329.78 342.12 336.46 342.13 C 335.63 342.72 334.80 343.30 333.96 343.88 C 328.60 344.73 323.19 344.91 317.85 345.87 C 320.02 353.27 322.82 360.38 324.23 368.01 C 328.08 385.85 327.47 404.57 321.98 422.01 C 316.26 441.02 304.18 458.29 289.58 471.59 C 285.24 475.65 280.21 478.90 275.87 482.94 C 274.90 483.99 273.30 485.31 273.32 486.84 C 273.14 491.85 273.75 497.08 273.18 502.14 C 272.74 504.70 271.82 507.21 271.12 509.71 C 270.07 505.08 270.80 500.60 271.86 496.04 C 272.83 492.33 272.61 488.19 272.91 484.32 C 267.69 486.87 262.76 490.02 257.41 492.41 C 252.72 494.50 247.64 496.43 243.38 499.32 C 238.63 502.48 235.06 506.50 233.31 512.00 L 231.32 512.00 C 232.37 503.50 240.39 498.32 247.15 494.34 C 264.91 487.21 281.28 477.48 294.65 463.63 C 297.62 460.25 300.43 456.73 303.22 453.20 C 316.85 435.06 324.74 412.78 324.35 390.00 C 324.83 375.30 320.67 360.93 315.66 347.26 C 307.60 327.07 296.60 307.95 283.12 290.91 C 266.34 269.24 244.48 249.99 219.41 238.58 C 211.27 234.30 202.24 232.00 194.12 227.77 C 190.79 225.94 187.22 222.30 189.31 218.25 C 191.64 214.23 196.39 211.42 200.37 209.25 Z"
     fill="#0a0604"
     id="path58" />
  <path
     d="M 512.00 208.87 L 512.00 211.41 C 508.02 213.94 503.94 216.30 500.08 219.01 C 504.35 223.43 508.16 228.21 512.00 233.00 L 512.00 236.65 C 507.36 231.31 503.22 225.36 498.07 220.51 C 490.27 225.26 482.91 230.72 475.11 235.49 C 477.38 236.19 479.76 235.65 480.45 238.46 C 481.11 241.99 478.00 245.43 475.56 247.58 C 470.63 251.58 465.06 252.49 458.93 251.16 C 461.71 253.09 464.84 254.49 467.55 256.50 C 468.95 257.45 469.37 259.76 467.59 260.56 C 463.30 262.85 457.33 262.62 452.57 262.89 C 452.10 271.08 453.26 279.76 452.19 288.02 C 451.71 291.55 451.85 295.09 451.51 298.62 C 449.62 313.11 446.08 327.67 440.28 341.11 C 437.85 346.81 435.41 352.66 431.98 357.84 C 430.42 360.48 429.33 363.38 427.88 366.09 C 425.95 369.78 423.03 373.19 420.57 376.56 C 414.36 385.01 407.82 393.21 401.32 401.43 C 398.85 404.67 395.50 407.03 394.32 410.82 C 393.09 414.75 390.06 416.44 387.68 419.63 C 380.37 429.11 373.22 438.77 369.19 450.16 C 363.72 464.87 363.65 481.64 365.69 497.01 C 366.22 502.05 367.42 506.97 367.99 512.00 L 365.84 512.00 C 364.22 506.52 363.87 500.64 363.07 495.00 C 361.69 484.58 362.22 474.43 362.72 463.98 C 362.91 461.92 363.49 459.89 364.04 457.90 C 367.12 447.74 371.21 438.12 377.58 429.56 C 380.02 426.48 381.12 422.71 383.71 419.71 C 386.39 415.85 389.90 412.52 392.30 408.50 C 394.29 403.98 398.25 402.35 401.42 398.42 C 408.17 390.14 414.83 381.70 421.12 373.07 C 425.69 367.00 427.99 360.18 431.44 353.51 C 435.94 344.53 440.24 335.73 443.30 326.12 C 446.80 314.97 448.73 303.60 449.94 292.00 C 450.72 282.26 451.81 272.67 451.40 262.87 C 444.44 262.10 438.02 260.36 432.19 256.36 C 435.93 256.88 439.26 258.65 442.99 259.24 C 450.45 260.67 458.96 261.26 466.25 258.80 C 461.48 255.33 455.52 252.61 451.39 248.34 C 452.50 247.13 453.50 248.29 454.87 248.52 C 461.95 250.81 470.88 249.97 475.91 243.93 C 477.50 242.23 477.69 240.26 477.97 238.06 C 473.77 237.27 470.76 239.24 466.93 240.41 C 466.13 240.15 465.93 239.45 466.34 238.33 C 476.18 232.29 485.57 225.71 495.34 219.31 C 501.20 216.23 506.01 211.80 512.00 208.87 Z"
     fill="#0a0604"
     id="path60" />
  <path
     d="M 182.45 212.82 L 184.36 212.39 C 182.80 214.43 181.35 216.58 180.14 218.84 C 177.16 218.81 174.17 218.77 171.19 218.65 C 174.03 217.45 176.99 216.85 179.95 216.06 C 180.86 215.03 181.60 213.91 182.45 212.82 Z"
     fill="#944901"
     id="path62" />
  <path
     d="M 512.00 211.41 L 512.00 215.67 C 509.81 217.15 507.55 218.42 505.27 219.79 C 507.57 222.42 509.87 224.94 512.00 227.72 L 512.00 233.00 C 508.16 228.21 504.35 223.43 500.08 219.01 C 503.94 216.30 508.02 213.94 512.00 211.41 Z"
     fill="#fefefe"
     id="path64" />
  <path
     d="M 422.14 216.98 C 422.88 217.42 423.42 217.98 423.78 218.67 C 421.85 218.98 419.96 218.75 418.08 218.28 C 419.27 217.29 420.62 216.99 422.14 216.98 Z"
     fill="#f4db8f"
     id="path68" />
  <path
     d="M 159.85 220.71 C 153.68 224.59 147.31 224.19 140.44 225.60 C 135.18 227.15 130.36 228.41 127.48 233.54 C 123.24 239.75 125.91 245.43 123.72 252.14 C 120.39 249.36 118.88 244.88 116.94 241.04 C 115.23 237.90 115.57 234.26 116.80 231.03 C 118.73 226.93 123.50 225.68 127.55 224.87 C 134.68 223.78 141.89 223.19 148.99 221.89 C 152.59 221.22 156.25 221.45 159.85 220.71 Z"
     fill="#0a0604"
     id="path70" />
  <path
     d="M 401.32 221.23 C 406.36 228.27 411.35 236.36 418.08 241.86 C 421.70 244.69 426.28 247.22 431.01 245.94 C 434.57 245.31 436.11 242.06 439.73 242.02 L 440.20 242.82 C 439.47 244.13 438.74 245.44 437.95 246.70 C 434.25 252.28 429.58 256.87 424.37 261.03 C 430.66 264.16 437.91 266.28 443.67 270.31 C 445.05 271.22 444.66 272.37 444.89 273.79 C 436.50 275.49 426.71 271.28 418.40 269.92 C 420.74 273.87 423.74 277.22 425.47 281.55 C 428.90 289.35 431.09 299.22 427.27 307.26 C 426.44 309.05 424.09 311.86 422.03 310.06 C 420.41 307.98 419.62 305.22 418.32 302.91 C 419.26 310.86 417.73 318.34 412.62 324.60 C 411.70 326.17 410.29 324.82 409.15 324.32 C 409.22 326.84 410.03 329.16 408.22 331.27 C 407.14 332.07 405.28 331.68 404.01 331.66 C 399.73 331.15 395.46 331.21 391.16 331.24 C 392.02 330.35 392.66 329.57 393.98 329.39 C 398.53 328.12 402.50 329.20 407.02 329.80 C 408.53 323.94 404.91 317.57 405.48 311.47 C 406.48 310.45 407.31 310.25 407.98 310.88 C 410.12 313.96 410.41 318.46 411.43 322.04 C 415.41 317.04 417.20 310.33 415.78 304.05 C 415.12 300.36 413.17 297.17 412.55 293.47 C 413.72 293.54 414.64 293.95 415.29 294.69 C 418.84 298.64 421.40 303.23 423.31 308.16 C 425.96 306.22 426.51 303.08 426.79 300.01 C 427.56 290.73 423.67 281.19 418.19 273.86 C 416.26 271.10 413.60 269.48 413.00 266.14 C 417.37 266.18 420.72 268.09 425.00 269.05 C 430.28 270.25 435.86 271.82 441.28 271.83 C 435.76 267.64 428.38 265.89 422.34 262.59 C 421.01 261.73 421.13 260.28 422.43 259.45 C 427.17 255.93 431.26 252.07 434.79 247.31 C 432.16 247.91 429.72 248.70 426.99 248.28 C 422.66 247.77 418.74 245.28 415.48 242.52 C 409.42 237.10 404.51 230.49 401.17 223.08 L 401.32 221.23 Z"
     fill="#0a0604"
     id="path72" />
  <path
     d="M 498.07 220.51 C 503.22 225.36 507.36 231.31 512.00 236.65 L 512.00 242.80 C 507.47 240.06 503.01 236.99 498.22 234.74 C 496.90 234.08 495.59 234.21 494.16 234.15 C 494.22 235.57 493.97 237.03 494.76 238.28 C 499.25 245.39 505.35 250.32 512.00 255.25 L 512.00 269.96 C 508.03 269.07 504.12 269.30 500.09 269.26 C 505.05 271.76 508.04 275.67 512.00 279.49 L 512.00 307.17 C 508.34 305.47 505.14 303.54 501.01 303.47 C 498.41 303.41 496.52 302.11 494.09 301.27 C 500.36 307.44 505.53 314.41 507.68 323.09 C 510.88 337.17 509.38 351.18 505.48 364.94 C 503.51 360.71 502.05 356.41 499.51 352.46 C 494.25 344.06 486.91 336.53 478.20 331.72 C 476.57 330.85 475.66 331.35 474.18 332.16 C 479.14 339.97 484.31 347.49 487.93 356.08 C 492.13 364.87 495.09 375.32 501.20 382.83 C 503.47 385.81 506.18 387.98 508.89 390.58 C 497.49 390.72 486.32 388.40 478.45 379.54 C 476.72 377.72 475.69 374.71 473.22 374.00 C 473.24 375.52 473.15 377.05 473.58 378.52 C 477.78 391.26 484.56 403.41 493.70 413.27 C 496.04 415.78 498.59 418.08 500.89 420.63 C 491.65 419.98 482.46 417.78 473.97 414.06 C 471.02 412.80 468.69 410.69 465.91 409.16 C 464.31 408.27 462.05 408.49 460.26 408.34 C 460.05 412.66 463.36 414.18 465.60 417.42 C 473.76 427.91 478.07 442.03 476.95 455.26 C 471.91 451.54 467.97 446.74 462.17 443.77 C 460.23 442.97 457.98 442.82 456.75 444.85 C 455.59 447.09 456.63 450.47 457.35 452.74 C 460.33 461.10 465.84 468.69 471.99 475.01 C 474.83 478.02 478.13 479.77 480.27 483.15 C 469.97 483.64 458.60 479.83 450.33 473.69 C 447.56 471.80 446.43 469.06 444.44 466.52 C 443.63 466.33 442.81 466.17 441.99 466.03 C 442.80 469.33 444.85 471.90 446.00 475.05 C 447.78 479.89 449.22 484.87 450.35 489.91 C 451.43 494.89 452.77 499.69 452.83 504.83 C 450.42 502.09 448.26 498.96 445.52 496.54 C 443.92 495.35 442.77 494.91 441.69 496.98 C 442.42 502.19 445.24 506.51 444.88 512.00 L 367.99 512.00 C 367.42 506.97 366.22 502.05 365.69 497.01 C 363.65 481.64 363.72 464.87 369.19 450.16 C 373.22 438.77 380.37 429.11 387.68 419.63 C 390.06 416.44 393.09 414.75 394.32 410.82 C 395.50 407.03 398.85 404.67 401.32 401.43 C 407.82 393.21 414.36 385.01 420.57 376.56 C 423.03 373.19 425.95 369.78 427.88 366.09 C 429.33 363.38 430.42 360.48 431.98 357.84 C 435.41 352.66 437.85 346.81 440.28 341.11 C 446.08 327.67 449.62 313.11 451.51 298.62 C 451.85 295.09 451.71 291.55 452.19 288.02 C 453.26 279.76 452.10 271.08 452.57 262.89 C 457.33 262.62 463.30 262.85 467.59 260.56 C 469.37 259.76 468.95 257.45 467.55 256.50 C 464.84 254.49 461.71 253.09 458.93 251.16 C 465.06 252.49 470.63 251.58 475.56 247.58 C 478.00 245.43 481.11 241.99 480.45 238.46 C 479.76 235.65 477.38 236.19 475.11 235.49 C 482.91 230.72 490.27 225.26 498.07 220.51 Z"
     fill="#944901"
     id="path74" />
  <path
     d="M 494.16 234.15 C 495.59 234.21 496.90 234.08 498.22 234.74 C 503.01 236.99 507.47 240.06 512.00 242.80 L 512.00 245.91 C 507.17 242.60 502.20 239.01 496.76 236.80 C 500.24 242.98 506.51 248.11 512.00 252.45 L 512.00 255.25 C 505.35 250.32 499.25 245.39 494.76 238.28 C 493.97 237.03 494.22 235.57 494.16 234.15 Z"
     fill="#0a0604"
     id="path76" />
  <path
     d="M 275.29 238.09 C 278.88 237.57 282.49 237.62 286.09 237.94 C 283.79 238.04 281.48 238.22 279.18 238.37 C 279.46 238.81 279.73 239.25 280.01 239.70 C 277.38 239.47 274.13 239.22 271.60 238.53 C 272.84 238.43 274.06 238.24 275.29 238.09 Z"
     fill="#0a0604"
     id="path78" />
  <path
     d="M 496.76 236.80 C 502.20 239.01 507.17 242.60 512.00 245.91 L 512.00 252.45 C 506.51 248.11 500.24 242.98 496.76 236.80 Z"
     fill="#fefefe"
     id="path80" />
  <path
     d="M 279.18 238.37 C 281.48 238.22 283.79 238.04 286.09 237.94 C 295.69 238.89 305.12 240.14 312.96 246.31 C 308.88 243.37 304.54 243.53 299.77 242.37 C 293.25 240.86 286.66 240.28 280.01 239.70 C 279.73 239.25 279.46 238.81 279.18 238.37 Z"
     fill="#0a0604"
     id="path82" />
  <path
     d="M 440.20 242.82 C 442.33 243.95 444.43 244.61 445.99 246.54 C 443.31 246.66 440.63 246.68 437.95 246.70 C 438.74 245.44 439.47 244.13 440.20 242.82 Z"
     fill="#944901"
     id="path84" />
  <path
     d="M 289.96 248.46 C 284.85 249.80 279.84 250.75 275.02 253.05 C 269.09 255.73 265.48 260.29 258.92 261.65 C 255.20 258.32 250.99 255.56 247.47 252.03 C 251.97 250.87 256.59 250.52 261.05 249.21 C 270.68 246.66 280.19 247.15 289.96 248.46 Z"
     fill="#c39112"
     id="path86" />
  <path
     d="M 298.00 250.53 C 302.17 250.43 306.43 252.10 308.46 255.91 C 308.84 258.25 308.70 260.15 307.31 262.11 C 304.56 266.18 303.09 270.80 299.97 274.63 C 296.99 279.68 292.72 283.65 289.45 288.45 C 288.76 289.28 288.16 290.81 287.03 291.00 C 284.33 289.45 285.52 286.74 286.54 284.52 C 289.05 279.62 289.78 274.46 291.19 269.21 C 292.02 265.94 291.87 262.33 291.63 258.98 C 291.65 256.68 289.47 254.64 288.29 252.78 C 290.39 250.07 294.94 250.67 298.00 250.53 Z"
     fill="#010091"
     id="path88" />
  <path
     d="M 23.00 253.13 C 27.90 253.67 31.40 256.85 34.36 260.54 C 35.05 262.12 35.36 264.67 34.00 266.00 C 31.80 268.27 29.53 271.28 26.02 271.12 C 23.47 270.70 20.98 269.92 18.47 269.32 C 16.84 267.72 15.07 266.20 13.63 264.43 C 12.53 262.04 13.54 259.98 15.33 258.33 C 17.54 256.31 19.70 252.89 23.00 253.13 Z"
     fill="#fefefe"
     id="path90" />
  <path
     d="M 283.89 253.13 C 283.55 256.55 282.22 259.86 281.29 263.17 C 279.86 266.83 278.32 271.29 275.06 273.70 C 273.37 270.88 271.95 267.66 269.83 265.14 C 268.83 264.15 268.02 263.02 266.46 263.52 C 265.44 264.19 264.94 265.61 264.27 266.60 C 263.20 265.56 262.14 264.53 261.08 263.50 C 269.25 261.03 274.36 253.29 283.89 253.13 Z"
     fill="#fefefe"
     id="path92" />
  <path
     d="M 286.65 255.92 C 288.46 257.46 289.60 259.60 289.72 261.99 C 290.07 266.43 289.12 270.63 287.69 274.80 C 286.23 278.87 285.42 282.69 283.10 286.34 C 280.04 283.27 276.87 280.13 274.32 276.61 C 276.68 275.44 278.75 274.50 279.93 271.98 C 282.11 267.63 283.46 263.05 286.28 259.00 C 286.41 257.98 286.53 256.95 286.65 255.92 Z"
     fill="#011dbc"
     id="path94" />
  <path
     d="M 30.58 261.40 C 31.07 263.27 31.19 265.21 29.32 266.34 C 26.40 268.23 23.16 266.64 20.73 264.74 C 21.45 264.50 22.16 264.28 22.88 264.07 C 24.78 264.31 26.82 265.32 28.57 264.20 C 29.33 260.36 23.77 259.52 21.07 259.84 C 20.22 259.66 19.37 259.47 18.52 259.27 C 22.15 256.18 28.14 257.46 30.58 261.40 Z"
     fill="#0a0604"
     id="path96" />
  <path
     d="M 18.52 259.27 C 19.37 259.47 20.22 259.66 21.07 259.84 L 18.18 261.25 C 19.71 263.15 20.56 263.58 22.88 264.07 C 22.16 264.28 21.45 264.50 20.73 264.74 C 20.09 264.80 18.72 265.74 18.44 264.76 C 17.24 263.09 16.76 260.73 18.52 259.27 Z"
     fill="#0a0604"
     id="path98" />
  <path
     d="M 21.07 259.84 C 23.77 259.52 29.33 260.36 28.57 264.20 C 26.82 265.32 24.78 264.31 22.88 264.07 C 20.56 263.58 19.71 263.15 18.18 261.25 L 21.07 259.84 Z"
     fill="#fefefe"
     id="path100" />
  <path
     d="M 245.10 265.56 C 250.31 269.31 255.40 273.60 259.77 278.29 C 260.51 280.31 258.61 280.08 257.36 279.63 C 252.34 276.99 250.12 272.57 245.96 269.06 C 245.24 269.67 244.65 270.36 244.19 271.12 C 241.81 277.16 240.63 283.22 239.19 289.39 C 233.03 286.54 228.57 281.53 225.24 275.73 C 224.53 274.49 224.64 272.75 224.44 271.37 C 221.55 271.17 222.28 273.00 221.95 275.00 C 221.58 280.81 222.62 286.54 222.47 292.33 C 216.23 290.00 209.63 286.87 204.77 282.23 C 202.84 280.52 202.27 277.96 199.29 278.00 C 198.89 284.36 199.41 290.23 200.28 296.51 C 196.21 296.36 193.36 294.01 190.16 291.79 C 183.65 286.78 180.61 279.46 179.58 271.49 C 181.70 270.02 184.46 269.42 187.00 269.23 C 189.48 269.86 191.58 271.96 193.91 273.06 C 196.19 274.23 197.38 275.25 198.77 277.41 C 199.79 277.58 200.80 277.75 201.81 277.92 C 200.25 277.25 198.53 277.26 199.23 274.97 C 200.22 271.62 204.02 266.72 208.01 267.56 C 214.47 267.87 220.44 269.48 226.99 268.74 C 233.08 268.02 238.98 266.22 245.10 265.56 Z"
     fill="#fefefe"
     id="path102" />
  <path
     d="M 267.25 266.23 C 269.98 268.12 270.72 270.84 271.84 273.77 C 270.19 272.22 268.48 270.70 266.97 269.00 C 265.97 268.11 266.77 267.15 267.25 266.23 Z"
     fill="#011dbc"
     id="path104" />
  <path
     d="M 200.33 268.84 C 199.23 270.14 198.12 271.44 197.02 272.75 C 195.51 271.88 192.43 270.90 192.00 269.01 C 193.98 267.54 198.30 267.14 200.33 268.84 Z"
     fill="#010091"
     id="path106" />
  <path
     d="M 500.09 269.26 C 504.12 269.30 508.03 269.07 512.00 269.96 L 512.00 271.85 C 510.71 271.83 509.41 271.82 508.12 271.84 C 509.14 273.61 510.62 274.83 512.00 276.30 L 512.00 279.49 C 508.04 275.67 505.05 271.76 500.09 269.26 Z"
     fill="#0a0604"
     id="path108" />
  <path
     d="M 177.59 271.43 C 177.75 279.38 181.23 285.84 186.21 291.80 C 178.20 291.64 170.57 292.94 162.88 295.08 C 164.45 288.10 167.26 281.25 171.34 275.36 C 172.83 272.96 175.18 272.53 177.59 271.43 Z"
     fill="#fefefe"
     id="path110" />
  <path
     d="M 508.12 271.84 C 509.41 271.82 510.71 271.83 512.00 271.85 L 512.00 276.30 C 510.62 274.83 509.14 273.61 508.12 271.84 Z"
     fill="#fefefe"
     id="path112" />
  <path
     d="M 246.29 273.26 L 246.90 273.32 C 249.33 275.88 251.43 278.60 254.44 280.56 C 256.42 282.28 259.58 281.54 262.04 281.66 C 265.08 284.93 268.86 287.40 271.71 290.82 C 272.46 294.63 269.79 295.75 266.98 297.25 C 259.30 300.33 252.39 303.74 244.00 304.60 C 240.39 304.51 237.76 306.65 234.26 307.37 C 238.57 307.70 242.45 306.32 246.67 306.23 C 246.46 309.00 247.63 313.53 245.16 315.46 C 242.67 314.31 240.53 313.76 237.78 313.51 C 234.72 312.00 231.91 310.03 228.90 308.41 C 225.90 311.48 228.35 316.86 226.79 320.90 C 223.38 320.42 220.64 318.72 217.71 317.05 C 217.00 316.36 216.29 315.66 215.59 314.95 C 216.76 313.74 218.22 313.09 219.72 312.42 C 215.76 313.17 211.89 314.23 208.02 315.36 C 202.72 317.09 196.96 316.44 191.30 316.57 C 191.68 316.84 192.06 317.12 192.44 317.40 C 196.57 317.42 200.77 317.76 204.88 317.36 C 208.26 316.34 210.88 314.76 214.60 315.50 C 212.69 318.65 212.49 322.31 210.44 325.39 C 206.23 326.84 202.14 328.23 197.66 328.57 C 190.68 330.39 182.82 328.22 176.11 326.05 C 170.21 324.64 164.19 324.01 158.13 324.55 C 150.83 326.49 144.55 330.98 139.49 336.49 C 134.60 341.94 132.43 348.13 129.60 354.70 C 127.73 354.30 126.18 352.80 124.74 354.82 C 123.62 357.50 123.53 360.83 123.38 363.71 C 119.19 364.58 116.70 360.50 115.84 357.03 C 115.24 352.36 113.52 348.64 115.05 343.96 C 118.01 333.47 124.53 323.85 132.45 316.44 C 135.57 313.52 138.58 309.81 143.07 309.18 C 145.04 314.03 149.10 315.88 152.59 319.36 C 154.22 319.44 155.85 319.51 157.48 319.58 C 158.36 318.35 159.49 317.63 159.51 316.02 C 160.02 311.05 160.23 306.17 161.31 301.25 C 161.64 300.19 161.78 298.21 163.03 297.90 C 171.21 294.53 179.94 293.63 188.69 294.49 C 193.02 296.27 196.07 299.14 201.13 298.60 C 202.28 297.09 203.19 295.00 205.12 294.41 C 207.95 293.51 211.03 291.20 214.02 291.47 C 217.77 292.68 220.46 295.56 224.65 293.75 C 224.77 290.62 224.16 287.07 224.94 284.06 C 225.56 283.51 226.19 282.97 226.84 282.45 C 231.28 286.61 234.46 292.06 241.38 291.61 C 241.89 288.01 243.06 284.58 243.63 280.99 C 244.08 278.26 244.82 275.63 246.29 273.26 Z"
     fill="#011dbc"
     id="path114" />
  <path
     d="M 159.98 279.70 C 161.68 280.11 163.24 280.43 164.48 281.78 C 164.34 283.23 163.64 284.65 163.19 286.03 C 161.17 291.38 159.82 296.91 158.62 302.50 C 157.69 306.95 158.07 311.60 157.13 316.02 C 155.60 318.03 153.24 316.49 151.72 315.29 C 145.32 310.03 140.67 302.24 137.04 294.89 C 136.39 292.94 136.25 288.47 133.04 289.85 C 129.93 293.83 129.54 299.53 126.13 303.56 C 123.72 302.42 121.74 301.02 120.18 298.84 C 117.93 295.69 115.44 291.92 115.22 287.98 C 114.57 288.39 113.99 288.86 113.47 289.40 C 110.97 293.84 110.62 300.26 107.04 303.95 C 103.94 300.40 102.73 296.22 101.06 291.94 C 100.33 290.38 100.38 288.88 100.41 287.20 C 99.78 287.29 99.15 287.37 98.53 287.46 C 97.13 291.62 96.71 295.87 95.87 300.15 C 92.49 299.23 90.19 295.31 88.51 292.47 C 87.36 289.70 85.71 286.57 85.48 283.61 L 86.41 283.27 C 102.66 284.29 118.90 287.48 135.01 289.40 C 144.96 290.15 151.84 284.26 159.98 279.70 Z"
     fill="#fefefe"
     id="path118" />
  <path
     d="M 201.28 282.18 C 204.11 284.93 207.00 287.19 210.34 289.28 C 208.05 291.22 205.36 292.04 202.56 292.93 C 201.79 289.38 201.46 285.80 201.28 282.18 Z"
     fill="#fefefe"
     id="path120" />
  <path
     d="M 35.85 289.32 C 38.67 292.74 42.03 299.38 38.13 303.11 C 34.60 300.09 34.08 296.14 33.31 291.83 C 34.11 290.96 34.96 290.13 35.85 289.32 Z"
     fill="#fefefe"
     id="path122" />
  <path
     d="M 271.71 290.82 C 272.35 292.01 272.93 293.24 273.53 294.46 C 274.04 294.79 274.54 295.13 275.04 295.48 C 271.23 295.45 267.70 298.72 264.19 300.08 C 262.07 301.46 258.20 301.73 257.03 303.97 C 257.30 306.01 260.48 305.58 262.09 306.08 C 259.51 306.16 257.31 306.37 254.98 305.03 C 253.27 304.02 249.59 303.34 248.40 305.35 C 247.48 308.80 247.30 312.48 246.89 316.01 C 243.47 316.39 240.75 314.95 237.78 313.51 C 240.53 313.76 242.67 314.31 245.16 315.46 C 247.63 313.53 246.46 309.00 246.67 306.23 C 242.45 306.32 238.57 307.70 234.26 307.37 C 237.76 306.65 240.39 304.51 244.00 304.60 C 252.39 303.74 259.30 300.33 266.98 297.25 C 269.79 295.75 272.46 294.63 271.71 290.82 Z"
     fill="#0a0604"
     id="path124" />
  <path
     d="M 35.52 292.11 C 36.96 294.47 37.94 296.20 37.51 299.09 C 35.89 296.63 35.41 295.09 35.52 292.11 Z"
     fill="#0a0604"
     id="path126" />
  <path
     d="M 133.54 293.34 C 135.54 292.72 135.03 294.54 135.65 295.86 C 136.57 299.94 138.86 302.98 140.87 306.62 C 136.50 309.39 132.87 312.93 128.99 316.29 C 128.53 312.54 128.29 308.78 127.69 305.04 C 130.86 301.59 131.67 297.46 133.54 293.34 Z"
     fill="#fefefe"
     id="path128" />
  <path
     d="M 114.13 293.91 C 117.60 298.69 119.36 303.58 125.54 305.62 C 126.07 309.87 126.61 314.05 126.23 318.34 C 120.83 315.05 116.53 309.80 113.83 304.13 C 112.23 300.49 112.40 297.44 114.13 293.91 Z"
     fill="#fefefe"
     id="path130" />
  <path
     d="M 51.17 295.28 C 52.25 296.15 53.31 296.82 53.99 298.05 C 54.38 301.74 47.88 305.76 45.67 302.03 C 46.06 297.92 47.40 296.64 51.17 295.28 Z"
     fill="#fefefe"
     id="path132" />
  <path
     d="M 275.04 295.48 C 275.88 296.65 276.68 297.85 277.49 299.04 C 276.04 301.84 274.04 304.17 272.02 306.55 C 268.68 306.72 265.40 306.50 262.09 306.08 C 260.48 305.58 257.30 306.01 257.03 303.97 C 258.20 301.73 262.07 301.46 264.19 300.08 C 267.70 298.72 271.23 295.45 275.04 295.48 Z"
     fill="#011dbc"
     id="path134" />
  <path
     d="M 51.75 298.52 C 50.70 300.76 50.26 300.56 47.83 300.77 C 48.87 299.47 50.28 299.11 51.75 298.52 Z"
     fill="#0a0604"
     id="path136" />
  <path
     d="M 494.09 301.27 C 496.52 302.11 498.41 303.41 501.01 303.47 C 505.14 303.54 508.34 305.47 512.00 307.17 L 512.00 309.84 C 508.09 308.08 505.19 305.69 501.04 305.27 C 504.96 310.36 508.28 315.69 509.78 322.02 C 510.65 326.02 511.83 330.10 512.00 334.20 L 512.00 344.14 C 511.03 352.11 509.22 360.06 507.35 367.87 C 506.94 369.60 506.53 370.17 504.85 371.00 C 502.94 367.33 502.37 363.19 500.56 359.45 C 496.32 349.74 487.94 340.29 478.83 334.89 C 480.61 338.14 482.82 341.13 484.64 344.36 C 489.89 353.42 493.26 362.97 497.58 372.40 C 500.73 379.30 505.21 385.39 512.00 389.05 L 512.00 392.76 C 503.59 393.06 495.62 392.78 487.84 389.21 C 483.84 387.47 480.59 384.79 477.22 382.09 C 482.51 395.19 490.59 408.36 501.48 417.52 C 502.91 419.01 506.67 420.35 506.67 422.59 C 505.80 423.17 504.92 423.42 504.02 423.33 C 492.48 422.55 481.31 420.26 470.84 415.20 C 468.02 413.80 465.93 411.49 463.09 410.13 C 464.28 412.55 466.07 414.13 467.70 416.32 C 473.78 424.34 477.79 434.00 478.92 444.01 C 479.90 451.21 480.01 458.12 478.26 465.22 L 477.33 464.37 C 477.13 462.35 477.47 460.62 476.15 458.92 C 473.26 454.96 469.22 451.67 465.39 448.64 C 463.51 447.12 461.47 446.01 459.22 445.12 C 457.93 448.48 459.36 451.33 460.53 454.45 C 465.21 465.49 473.56 473.86 482.72 481.30 C 484.49 482.67 484.56 485.36 481.90 485.62 C 470.45 486.36 458.39 482.18 448.94 475.84 C 451.76 485.06 454.03 494.44 455.47 503.99 C 455.82 506.24 455.82 508.45 455.61 510.72 C 455.00 510.59 454.39 510.45 453.78 510.29 C 450.47 506.63 448.58 502.19 444.43 499.08 C 445.87 503.37 447.47 507.37 447.38 512.00 L 444.88 512.00 C 445.24 506.51 442.42 502.19 441.69 496.98 C 442.77 494.91 443.92 495.35 445.52 496.54 C 448.26 498.96 450.42 502.09 452.83 504.83 C 452.77 499.69 451.43 494.89 450.35 489.91 C 449.22 484.87 447.78 479.89 446.00 475.05 C 444.85 471.90 442.80 469.33 441.99 466.03 C 442.81 466.17 443.63 466.33 444.44 466.52 C 446.43 469.06 447.56 471.80 450.33 473.69 C 458.60 479.83 469.97 483.64 480.27 483.15 C 478.13 479.77 474.83 478.02 471.99 475.01 C 465.84 468.69 460.33 461.10 457.35 452.74 C 456.63 450.47 455.59 447.09 456.75 444.85 C 457.98 442.82 460.23 442.97 462.17 443.77 C 467.97 446.74 471.91 451.54 476.95 455.26 C 478.07 442.03 473.76 427.91 465.60 417.42 C 463.36 414.18 460.05 412.66 460.26 408.34 C 462.05 408.49 464.31 408.27 465.91 409.16 C 468.69 410.69 471.02 412.80 473.97 414.06 C 482.46 417.78 491.65 419.98 500.89 420.63 C 498.59 418.08 496.04 415.78 493.70 413.27 C 484.56 403.41 477.78 391.26 473.58 378.52 C 473.15 377.05 473.24 375.52 473.22 374.00 C 475.69 374.71 476.72 377.72 478.45 379.54 C 486.32 388.40 497.49 390.72 508.89 390.58 C 506.18 387.98 503.47 385.81 501.20 382.83 C 495.09 375.32 492.13 364.87 487.93 356.08 C 484.31 347.49 479.14 339.97 474.18 332.16 C 475.66 331.35 476.57 330.85 478.20 331.72 C 486.91 336.53 494.25 344.06 499.51 352.46 C 502.05 356.41 503.51 360.71 505.48 364.94 C 509.38 351.18 510.88 337.17 507.68 323.09 C 505.53 314.41 500.36 307.44 494.09 301.27 Z"
     fill="#0a0604"
     id="path138" />
  <path
     d="M 31.90 301.98 C 33.40 302.99 34.72 304.15 36.41 304.84 C 35.42 305.64 34.45 306.51 33.39 307.23 C 31.21 307.65 28.74 307.51 26.54 307.21 C 25.29 306.40 24.23 305.28 23.14 304.28 C 25.55 301.95 28.71 301.67 31.90 301.98 Z"
     fill="#fefefe"
     id="path140" />
  <path
     d="M 33.32 303.86 C 31.26 305.62 28.64 306.16 26.77 303.78 C 29.33 302.98 30.77 302.95 33.32 303.86 Z"
     fill="#0a0604"
     id="path142" />
  <path
     d="M 281.04 303.98 C 287.33 312.19 292.71 321.17 297.82 330.16 C 300.44 335.01 303.22 339.90 305.15 345.07 C 296.20 346.73 287.30 348.27 278.45 350.51 C 271.31 352.37 264.38 355.73 257.16 356.88 C 240.51 360.08 224.67 365.66 209.07 372.17 C 196.74 375.95 187.00 382.81 175.72 388.75 C 166.07 394.09 156.93 400.24 148.92 407.86 C 145.60 406.73 142.44 406.01 138.90 406.21 C 140.49 407.74 142.39 408.74 144.29 409.82 C 135.54 411.33 124.52 411.19 116.83 406.22 C 113.32 404.02 112.37 400.79 110.83 397.21 C 109.78 396.88 109.18 397.16 109.01 398.06 C 108.04 400.62 107.15 403.06 105.33 405.17 C 105.54 401.44 105.91 397.73 105.82 393.98 C 102.94 394.15 103.25 398.39 101.36 400.28 C 100.41 396.55 99.68 390.01 95.54 388.43 L 95.80 390.95 C 94.82 389.32 93.87 387.69 93.14 385.93 C 95.83 384.91 93.78 381.05 93.74 378.94 C 94.58 379.45 95.41 379.96 96.24 380.47 L 96.97 378.76 C 99.04 378.23 100.98 378.22 103.10 378.52 C 109.74 380.14 117.03 379.46 124.00 379.60 C 133.09 379.75 141.67 377.50 150.25 374.74 C 153.32 372.39 155.96 370.10 159.63 368.64 C 170.99 362.06 182.09 354.99 193.52 348.51 C 209.07 339.38 225.32 331.85 241.87 324.75 C 249.82 321.27 258.01 317.85 265.50 313.45 C 270.61 310.10 276.14 307.70 281.04 303.98 Z"
     fill="#c39112"
     id="path146" />
  <path
     d="M 40.39 305.41 C 41.19 304.68 42.06 304.52 43.02 304.94 C 45.83 305.87 48.70 307.83 49.18 310.97 C 49.52 312.83 50.41 314.72 48.14 315.72 C 45.42 315.45 42.77 315.41 41.13 312.90 C 39.73 310.56 37.17 307.49 40.39 305.41 Z"
     fill="#fefefe"
     id="path148" />
  <path
     d="M 250.02 305.95 C 256.04 307.08 261.69 309.12 267.98 308.89 C 267.46 309.53 266.86 310.05 266.19 310.45 C 261.11 313.34 255.88 315.93 250.64 318.49 C 248.47 314.97 249.29 309.83 250.02 305.95 Z"
     fill="#fefefe"
     id="path150" />
  <path
     d="M 501.04 305.27 C 505.19 305.69 508.09 308.08 512.00 309.84 L 512.00 314.11 L 511.21 314.14 C 510.54 314.97 510.80 315.58 512.00 315.96 L 512.00 334.20 C 511.83 330.10 510.65 326.02 509.78 322.02 C 508.28 315.69 504.96 310.36 501.04 305.27 Z"
     fill="#fefefe"
     id="path152" />
  <path
     d="M 41.15 307.16 C 44.21 307.55 45.96 310.17 46.91 312.87 C 43.80 312.42 42.10 309.95 41.15 307.16 Z"
     fill="#0a0604"
     id="path154" />
  <path
     d="M 219.72 312.42 C 218.22 313.09 216.76 313.74 215.59 314.95 C 216.29 315.66 217.00 316.36 217.71 317.05 C 216.92 317.13 216.13 317.25 215.35 317.42 C 212.08 319.23 214.09 323.76 210.44 325.39 C 212.49 322.31 212.69 318.65 214.60 315.50 C 210.88 314.76 208.26 316.34 204.88 317.36 C 200.77 317.76 196.57 317.42 192.44 317.40 C 192.06 317.12 191.68 316.84 191.30 316.57 C 196.96 316.44 202.72 317.09 208.02 315.36 C 211.89 314.23 215.76 313.17 219.72 312.42 Z"
     fill="#0a0604"
     id="path156" />
  <path
     d="M 229.49 312.35 L 230.06 311.89 C 235.78 315.39 241.14 317.74 247.85 318.68 C 247.11 320.24 245.56 320.52 244.12 321.21 C 237.65 323.98 231.22 326.88 224.79 329.75 C 221.88 331.01 219.38 332.65 216.16 333.05 C 214.90 328.87 213.90 323.48 215.75 319.36 C 220.14 320.52 223.69 323.33 228.02 324.72 L 229.11 324.12 C 230.10 320.47 229.01 316.16 229.49 312.35 Z"
     fill="#fefefe"
     id="path158" />
  <path
     d="M 14.46 324.51 C 16.61 324.08 18.55 324.20 20.13 325.85 C 23.50 328.82 27.14 332.60 25.39 337.49 C 23.06 342.92 17.17 347.74 10.96 346.39 C 6.98 345.59 5.50 341.61 5.16 338.01 C 4.98 335.03 4.84 331.20 6.67 328.65 C 8.51 326.42 11.73 325.20 14.46 324.51 Z"
     fill="#fefefe"
     id="path162" />
  <path
     d="M 19.82 330.18 C 22.83 334.12 21.46 339.94 16.97 342.03 C 14.03 343.44 11.66 342.35 8.89 341.24 C 8.67 337.09 4.98 335.29 7.11 331.06 C 9.44 326.12 16.76 325.78 19.82 330.18 Z"
     fill="#0a0604"
     id="path164" />
  <path
     d="M 158.18 327.73 C 158.97 329.11 159.50 330.68 160.04 332.17 C 158.17 330.99 156.54 329.66 154.98 328.11 C 155.83 328.04 157.51 326.98 158.18 327.73 Z"
     fill="#fefefe"
     id="path166" />
  <path
     d="M 160.40 326.76 C 166.22 326.23 171.46 327.39 176.91 329.25 C 176.33 330.58 174.28 331.20 173.23 332.23 C 170.02 335.18 166.39 334.78 162.30 336.31 C 162.48 340.99 159.61 342.68 156.47 345.40 L 155.54 346.38 C 152.10 342.07 150.42 336.90 146.47 333.00 C 148.41 331.42 150.40 330.18 152.63 329.07 C 154.96 331.30 157.49 333.29 159.93 335.40 C 161.53 335.69 163.03 335.66 164.42 335.32 C 164.58 332.29 160.86 329.97 160.40 326.76 Z"
     fill="#fefefe"
     id="path168" />
  <path
     d="M 211.08 327.54 C 212.58 328.23 214.07 330.63 213.14 332.17 C 210.05 332.83 206.92 332.39 204.06 331.06 C 206.05 328.87 208.09 327.73 211.08 327.54 Z"
     fill="#010091"
     id="path170" />
  <path
     d="M 18.55 332.48 C 20.25 335.29 18.38 339.63 15.09 340.16 C 13.20 340.46 11.27 340.61 9.37 340.83 C 8.70 337.78 5.81 333.58 8.93 331.06 C 11.45 327.96 16.93 328.90 18.55 332.48 Z"
     fill="#fefefe"
     id="path172" />
  <path
     d="M 179.93 330.46 C 181.87 330.07 184.02 331.12 185.99 331.34 C 188.48 331.59 191.01 331.53 193.52 331.62 C 193.57 333.36 193.32 334.94 192.91 336.61 C 192.20 339.45 192.95 342.63 192.60 345.53 C 190.10 348.58 185.51 349.77 182.40 352.26 C 179.68 354.49 176.57 355.84 173.55 357.57 C 171.13 359.62 168.04 360.22 165.54 362.14 C 165.54 360.65 165.54 359.17 165.60 357.68 C 165.71 355.97 165.82 355.70 164.39 354.68 C 160.98 352.30 157.79 349.98 155.54 346.38 L 156.47 345.40 C 158.53 345.68 160.89 346.23 162.43 344.44 C 165.82 341.03 169.60 337.77 173.84 335.47 C 176.28 334.22 177.18 331.37 179.93 330.46 Z"
     fill="#010091"
     id="path174" />
  <path
     d="M 198.99 331.84 C 203.59 333.74 208.04 334.56 212.96 335.11 C 207.38 338.45 201.46 341.28 195.79 344.47 C 195.63 341.02 195.54 337.40 196.12 333.98 C 196.30 332.38 197.18 330.97 198.99 331.84 Z"
     fill="#fefefe"
     id="path176" />
  <path
     d="M 478.83 334.89 C 487.94 340.29 496.32 349.74 500.56 359.45 C 502.37 363.19 502.94 367.33 504.85 371.00 C 506.53 370.17 506.94 369.60 507.35 367.87 C 509.22 360.06 511.03 352.11 512.00 344.14 L 512.00 366.94 C 510.61 370.58 507.69 372.58 504.87 375.06 C 503.64 373.79 502.41 372.51 501.19 371.22 C 503.88 376.75 506.25 381.82 512.00 384.81 L 512.00 389.05 C 505.21 385.39 500.73 379.30 497.58 372.40 C 493.26 362.97 489.89 353.42 484.64 344.36 C 482.82 341.13 480.61 338.14 478.83 334.89 Z"
     fill="#fefefe"
     id="path180" />
  <path
     d="M 142.22 337.39 C 141.25 340.42 140.10 343.40 139.04 346.41 C 138.34 345.28 137.90 344.12 137.72 342.92 C 138.81 340.75 140.20 338.78 142.22 337.39 Z"
     fill="#fefefe"
     id="path182" />
  <path
     d="M 146.10 337.14 C 150.43 341.16 151.99 346.77 156.12 350.90 C 158.86 353.86 162.18 355.64 165.60 357.68 C 165.54 359.17 165.54 360.65 165.54 362.14 C 160.89 365.31 156.12 368.21 151.81 371.87 C 149.36 374.22 144.96 373.35 143.78 370.14 C 141.44 364.17 140.36 357.36 140.95 350.97 C 141.67 346.01 142.47 340.88 146.10 337.14 Z"
     fill="#fefefe"
     id="path184" />
  <path
     d="M 347.81 342.27 C 343.17 343.21 338.75 344.38 333.96 343.88 C 334.80 343.30 335.63 342.72 336.46 342.13 C 340.03 341.27 344.35 340.84 347.81 342.27 Z"
     fill="#944901"
     id="path186" />
  <path
     d="M 107.73 342.21 C 110.02 347.00 112.32 351.37 113.06 356.72 C 111.35 356.68 109.68 355.90 108.33 357.33 C 105.01 360.49 105.86 365.01 106.20 369.09 C 104.38 367.90 103.67 366.03 103.21 364.01 C 101.45 356.64 103.56 348.42 107.73 342.21 Z"
     fill="#fefefe"
     id="path188" />
  <path
     d="M 135.90 347.02 C 140.03 349.46 138.31 352.92 138.53 356.87 C 136.72 356.84 133.29 356.15 132.78 354.06 C 133.37 351.91 133.97 348.28 135.90 347.02 Z"
     fill="#fefefe"
     id="path190" />
  <path
     d="M 306.23 347.37 C 308.65 353.92 311.19 360.57 312.62 367.41 C 314.25 372.65 313.39 377.39 313.85 383.00 C 314.76 395.30 314.04 408.01 311.04 420.00 C 309.11 427.53 305.67 434.20 302.00 440.98 C 298.87 446.16 294.17 450.65 289.95 454.97 C 284.62 460.39 278.73 465.19 272.51 469.54 C 258.63 479.49 241.24 486.00 229.37 498.37 C 225.09 502.22 222.78 507.02 220.12 512.00 L 148.16 512.00 C 146.91 507.96 143.77 504.38 143.48 500.19 C 145.34 500.95 146.43 502.23 147.64 503.73 C 146.60 501.87 145.56 500.02 144.44 498.21 C 141.50 493.21 137.48 488.71 134.95 483.51 C 135.72 483.03 136.48 482.55 137.24 482.07 C 134.61 478.33 131.60 474.89 128.99 471.14 C 134.81 470.81 140.72 470.36 145.26 466.22 C 146.28 464.83 146.04 463.61 144.03 463.63 C 141.99 464.11 140.05 464.92 138.08 465.66 C 139.35 456.99 143.62 448.64 148.40 441.39 C 155.03 431.92 162.66 423.24 168.93 413.51 C 167.28 422.40 165.85 430.91 167.07 440.01 C 167.88 444.82 169.72 449.52 172.60 453.47 C 172.07 447.23 168.88 442.29 169.00 436.00 C 168.50 425.19 170.65 414.78 172.45 404.02 C 172.76 400.04 174.34 396.61 173.82 392.59 C 181.03 388.06 188.64 384.15 196.14 380.11 C 201.91 376.99 207.85 374.20 214.06 372.05 C 225.25 368.15 235.84 363.71 247.53 361.45 C 266.87 355.66 286.22 350.31 306.23 347.37 Z"
     fill="#c39112"
     id="path192" />
  <path
     d="M 494.30 355.07 C 496.26 358.20 497.56 361.80 498.55 365.34 C 497.07 361.95 495.63 358.53 494.30 355.07 Z"
     fill="#812d70"
     id="path194" />
  <path
     d="M 126.63 355.92 C 129.59 359.85 131.94 364.02 135.54 367.48 C 137.88 370.53 141.59 371.29 143.76 374.47 C 137.21 375.88 130.84 377.25 124.09 376.97 C 119.72 377.06 115.54 377.23 111.24 376.29 C 110.85 375.21 110.45 374.13 110.05 373.05 C 108.57 369.27 107.66 365.52 108.48 361.44 C 108.75 359.89 109.88 359.29 110.92 358.27 C 115.38 361.46 118.59 366.71 122.07 370.92 C 123.95 372.91 123.95 375.33 126.57 376.46 C 126.31 369.40 124.40 363.01 126.63 355.92 Z"
     fill="#fefefe"
     id="path196" />
  <path
     d="M 132.14 357.22 C 134.63 358.07 137.11 359.24 139.24 360.82 C 139.85 363.12 139.63 365.70 139.67 368.07 C 136.50 366.21 134.19 362.81 132.18 359.80 C 131.62 359.13 131.61 358.27 132.14 357.22 Z"
     fill="#010091"
     id="path198" />
  <path
     d="M 94.95 359.39 C 99.59 362.47 101.82 368.71 106.39 371.70 C 107.27 372.82 107.97 373.94 108.56 375.25 L 108.72 376.71 C 103.80 377.06 99.64 375.40 95.05 374.03 C 94.48 373.64 94.12 373.00 93.97 372.12 C 93.11 368.05 92.94 363.17 94.95 359.39 Z"
     fill="#fefefe"
     id="path200" />
  <path
     d="M 110.05 373.05 C 110.45 374.13 110.85 375.21 111.24 376.29 C 115.54 377.23 119.72 377.06 124.09 376.97 C 119.06 377.62 113.87 377.48 108.83 377.14 C 105.86 376.97 102.32 375.74 99.73 377.63 C 100.85 377.95 101.97 378.25 103.10 378.52 C 100.98 378.22 99.04 378.23 96.97 378.76 C 96.67 378.13 96.36 377.50 96.04 376.87 C 97.04 376.77 98.03 376.68 99.02 376.58 C 97.68 375.75 96.34 374.94 95.05 374.03 C 99.64 375.40 103.80 377.06 108.72 376.71 L 108.56 375.25 C 109.15 375.42 109.74 375.59 110.32 375.75 C 110.22 374.85 110.13 373.95 110.05 373.05 Z"
     fill="#812d70"
     id="path204" />
  <path
     d="M 304.69 374.58 L 305.46 374.41 C 303.99 377.99 304.12 382.19 303.37 386.02 C 301.89 393.74 302.46 401.58 304.50 409.14 C 305.35 411.83 306.90 414.24 307.91 416.88 C 305.09 416.26 303.41 414.36 301.24 412.65 C 300.55 411.71 299.96 410.71 299.53 409.63 C 300.74 410.88 302.10 411.58 303.60 411.75 C 299.81 399.36 301.27 386.84 304.69 374.58 Z"
     fill="#0a0604"
     id="path206" />
  <path
     d="M 477.22 382.09 C 480.59 384.79 483.84 387.47 487.84 389.21 C 495.62 392.78 503.59 393.06 512.00 392.76 L 512.00 397.01 C 507.19 396.74 502.33 396.70 497.55 396.12 C 493.83 395.64 490.55 394.23 486.99 393.18 C 488.29 396.96 490.56 399.89 492.79 403.14 C 495.86 407.42 499.01 411.58 503.32 414.71 C 506.07 416.71 509.00 419.11 510.81 422.02 C 509.51 424.09 507.42 425.88 505.49 427.39 C 503.03 428.51 499.62 426.96 497.01 426.71 C 489.67 425.80 481.93 424.22 475.14 421.23 C 477.52 425.69 480.02 429.87 481.21 434.85 C 483.41 443.00 484.74 452.07 483.16 460.44 C 482.02 462.34 479.99 463.87 478.26 465.22 C 480.01 458.12 479.90 451.21 478.92 444.01 C 477.79 434.00 473.78 424.34 467.70 416.32 C 466.07 414.13 464.28 412.55 463.09 410.13 C 465.93 411.49 468.02 413.80 470.84 415.20 C 481.31 420.26 492.48 422.55 504.02 423.33 C 504.92 423.42 505.80 423.17 506.67 422.59 C 506.67 420.35 502.91 419.01 501.48 417.52 C 490.59 408.36 482.51 395.19 477.22 382.09 Z"
     fill="#fefefe"
     id="path208" />
  <path
     d="M 173.82 392.59 C 174.34 396.61 172.76 400.04 172.45 404.02 C 170.65 414.78 168.50 425.19 169.00 436.00 C 168.88 442.29 172.07 447.23 172.60 453.47 C 169.72 449.52 167.88 444.82 167.07 440.01 C 165.85 430.91 167.28 422.40 168.93 413.51 C 170.87 408.63 172.47 404.03 171.49 398.69 L 170.12 398.01 L 169.81 395.73 C 170.35 395.95 170.88 396.17 171.41 396.39 C 171.47 395.59 171.53 394.80 171.59 394.00 C 172.32 393.52 173.07 393.04 173.82 392.59 Z"
     fill="#944901"
     id="path210" />
  <path
     d="M 170.12 398.01 L 171.49 398.69 C 172.47 404.03 170.87 408.63 168.93 413.51 C 162.66 423.24 155.03 431.92 148.40 441.39 C 143.62 448.64 139.35 456.99 138.08 465.66 C 140.05 464.92 141.99 464.11 144.03 463.63 C 146.04 463.61 146.28 464.83 145.26 466.22 C 140.72 470.36 134.81 470.81 128.99 471.14 C 131.60 474.89 134.61 478.33 137.24 482.07 C 136.48 482.55 135.72 483.03 134.95 483.51 C 137.48 488.71 141.50 493.21 144.44 498.21 C 143.07 499.04 142.44 497.84 141.24 497.26 C 141.66 499.19 141.93 501.15 142.16 503.11 C 141.13 500.60 140.58 497.93 139.58 495.43 C 137.84 492.26 135.45 489.49 133.69 486.32 C 131.97 483.11 129.80 480.67 130.19 476.78 C 129.08 475.22 127.89 473.69 126.86 472.07 C 126.18 471.12 125.59 469.24 126.95 468.62 C 130.02 468.57 133.03 468.73 136.08 468.18 C 135.06 461.00 139.51 452.88 142.58 446.56 C 148.53 435.61 157.82 426.07 164.66 415.64 C 168.06 410.55 170.31 404.16 170.12 398.01 Z"
     fill="#0a0604"
     id="path214" />
  <path
     d="M 296.23 408.37 C 296.97 408.43 297.71 408.50 298.45 408.60 C 298.81 408.94 299.17 409.28 299.53 409.63 C 299.96 410.71 300.55 411.71 301.24 412.65 L 299.53 412.77 C 298.96 412.76 298.39 412.75 297.82 412.74 C 297.20 411.32 296.67 409.86 296.23 408.37 Z"
     fill="#944901"
     id="path216" />
  <path
     d="M 299.53 412.77 C 300.62 414.51 301.83 416.22 302.73 418.07 C 303.14 420.30 300.35 419.26 299.13 419.35 C 299.38 420.43 299.62 421.50 299.85 422.58 C 297.64 421.84 295.44 420.65 295.65 417.97 C 296.56 416.95 298.22 416.67 299.45 416.16 C 298.90 415.03 298.36 413.89 297.82 412.74 C 298.39 412.75 298.96 412.76 299.53 412.77 Z"
     fill="#0a0604"
     id="path218" />
  <path
     d="M 299.54 425.17 C 298.08 426.62 296.64 428.05 295.51 429.79 C 291.81 435.42 288.14 441.05 284.92 446.98 C 283.08 450.53 280.32 453.11 279.34 456.82 C 278.59 459.30 277.73 461.70 276.45 463.96 C 276.27 459.24 279.08 456.44 280.50 452.19 C 284.30 441.55 290.28 431.88 299.54 425.17 Z"
     fill="#0a0604"
     id="path220" />
  <path
     d="M 459.22 445.12 C 461.47 446.01 463.51 447.12 465.39 448.64 C 469.22 451.67 473.26 454.96 476.15 458.92 C 477.47 460.62 477.13 462.35 477.33 464.37 C 475.13 462.61 473.24 460.71 471.43 458.55 C 469.04 455.69 466.13 453.55 463.23 451.26 C 465.05 454.69 466.29 458.28 468.45 461.54 C 472.08 467.11 476.68 472.10 481.91 476.21 C 484.73 478.44 487.19 480.94 489.05 484.04 C 487.31 485.77 485.64 487.99 483.49 489.21 C 479.82 490.08 475.84 490.02 472.14 489.32 C 466.21 488.16 460.50 486.63 455.22 483.57 C 457.09 489.98 458.22 496.45 459.55 502.99 C 460.11 506.33 460.05 509.59 457.37 512.00 L 447.38 512.00 C 447.47 507.37 445.87 503.37 444.43 499.08 C 448.58 502.19 450.47 506.63 453.78 510.29 C 454.39 510.45 455.00 510.59 455.61 510.72 C 455.82 508.45 455.82 506.24 455.47 503.99 C 454.03 494.44 451.76 485.06 448.94 475.84 C 458.39 482.18 470.45 486.36 481.90 485.62 C 484.56 485.36 484.49 482.67 482.72 481.30 C 473.56 473.86 465.21 465.49 460.53 454.45 C 459.36 451.33 457.93 448.48 459.22 445.12 Z"
     fill="#fefefe"
     id="path222" />
  <path
     d="M 141.24 497.26 C 142.44 497.84 143.07 499.04 144.44 498.21 C 145.56 500.02 146.60 501.87 147.64 503.73 C 146.43 502.23 145.34 500.95 143.48 500.19 C 143.77 504.38 146.91 507.96 148.16 512.00 L 146.03 512.00 C 144.55 509.12 143.21 506.17 142.16 503.11 C 141.93 501.15 141.66 499.19 141.24 497.26 Z"
     fill="#0a0604"
     id="path224" />
</svg>
